G04 DipTrace 4.3.0.3*
G04 2 - Bottom.gbr*
%MOIN*%
G04 #@! TF.FileFunction,Copper,L2,Bot*
G04 #@! TF.Part,Single*
G04 #@! TA.AperFunction,Conductor*
%ADD15C,0.015748*%
G04 #@! TA.AperFunction,CopperBalancing*
%ADD17C,0.007874*%
%ADD19R,0.255906X0.070866*%
%ADD20R,0.07874X0.027559*%
%ADD21R,0.055118X0.062992*%
%ADD22R,0.055118X0.047244*%
%ADD23R,0.086614X0.047244*%
G04 #@! TA.AperFunction,ComponentPad*
%ADD24R,0.066929X0.066929*%
%ADD25C,0.066929*%
%ADD26R,0.075591X0.075591*%
%ADD27C,0.075591*%
%ADD28C,0.03937*%
G04 #@! TA.AperFunction,ViaPad*
%ADD32C,0.017717*%
%FSLAX26Y26*%
G04*
G70*
G90*
G75*
G01*
G04 Bottom*
%LPD*%
G36*
X2523573Y794243D2*
X2539322Y800148D1*
X2543259D1*
X2578692Y786369D1*
X2539322Y772589D1*
X2523573Y778495D1*
Y794243D1*
G37*
X1602866Y749951D2*
D15*
X1619316D1*
X1819316D1*
X1859941Y709327D1*
X2051969D1*
X2147441D1*
X2224483Y786369D1*
X2263066D1*
X2375566D1*
X2578692D1*
X1619316Y749951D2*
D3*
X1602866D2*
X1584941D1*
X2051969Y798230D2*
Y709327D1*
Y798230D2*
X2036344D1*
X2034941Y796827D1*
X2051969Y798230D2*
X2067913D1*
X2069316Y796827D1*
G36*
X1477067Y983908D2*
X1461516Y1003987D1*
Y1007333D1*
X1508366D1*
Y1003987D1*
X1492815Y983908D1*
X1477067D1*
G37*
X1484941Y1037451D2*
D15*
Y849951D1*
X1584941Y749951D1*
G36*
X684277Y492077D2*
X668529Y484203D1*
X655734D1*
Y515699D1*
X668529D1*
X684277Y507825D1*
Y492077D1*
G37*
X540576Y499951D2*
D15*
X1053692D1*
X1078690Y524950D1*
Y587453D1*
Y624951D1*
G36*
X1049486Y643020D2*
X1018378Y633062D1*
X1014737Y634078D1*
X1031689Y684203D1*
X1035329Y683187D1*
X1060622Y654155D1*
X1049486Y643020D1*
G37*
X1001285Y666772D2*
D15*
X1036870D1*
X1078690Y624951D1*
G36*
X684277Y592077D2*
X668529Y584203D1*
X655734D1*
Y615699D1*
X668529D1*
X684277Y607825D1*
Y592077D1*
G37*
X540576Y599951D2*
D15*
X863066D1*
G36*
X1052279Y745795D2*
X1018382Y733060D1*
X1014769Y734169D1*
X1031728Y784291D1*
X1035341Y783182D1*
X1057847Y751363D1*
X1052279Y745795D1*
G37*
X1001294Y766772D2*
D17*
X1036870D1*
X1097441Y706201D1*
X1478692D1*
X1619316Y565576D1*
X1992913D1*
G36*
X1041261Y821227D2*
X1001663Y828978D1*
X998990Y831651D1*
X1036406Y869066D1*
X1039078Y866394D1*
X1046829Y826795D1*
X1041261Y821227D1*
G37*
X1001285Y866772D2*
D17*
X1143105Y724951D1*
X1491190D1*
X1628690Y587451D1*
X2047441D1*
G36*
X676403Y696014D2*
X668529Y692077D1*
X655734D1*
Y707825D1*
X668529D1*
X676403Y703888D1*
Y696014D1*
G37*
X540576Y699951D2*
D17*
X953692D1*
X969766Y716026D1*
X1028240D1*
X1060152Y684114D1*
X1188066D1*
X1472654D1*
X1491659Y665109D1*
X1188066Y649951D2*
Y684114D1*
X1750566Y724951D2*
X1792647D1*
X1813119Y704479D1*
X1331816Y968701D2*
Y974951D1*
X1363067D1*
G36*
X2531448Y833613D2*
X2539322Y837550D1*
X2543259D1*
Y821802D1*
X2539322D1*
X2531448Y825739D1*
Y833613D1*
G37*
X2578692Y829676D2*
D17*
X2499041D1*
X2484941Y815576D1*
X2316190D1*
G36*
X2531448Y703692D2*
X2539322Y707629D1*
X2543259D1*
Y691881D1*
X2539322D1*
X2531448Y695818D1*
Y703692D1*
G37*
X2578692Y699755D2*
D17*
X2247636D1*
X2231815Y715576D1*
Y734325D1*
G36*
X2531448Y1006841D2*
X2539322Y1010778D1*
X2543259D1*
Y995030D1*
X2539322D1*
X2531448Y998967D1*
Y1006841D1*
G37*
X2578692Y1002904D2*
D17*
X2387894D1*
X2338066Y953076D1*
G36*
X2531448Y920227D2*
X2539322Y924164D1*
X2543259D1*
Y908416D1*
X2539322D1*
X2531448Y912353D1*
Y920227D1*
G37*
X2578692Y916290D2*
D17*
X2351280D1*
X2294316Y859327D1*
G36*
X2531448Y746999D2*
X2539322Y750936D1*
X2543259D1*
Y735188D1*
X2539322D1*
X2531448Y739125D1*
Y746999D1*
G37*
X2578692Y743062D2*
D17*
X2281177D1*
X2280537Y743702D1*
X2272442D1*
G36*
X1781004Y983908D2*
X1761516Y1013553D1*
Y1016899D1*
X1808366D1*
Y1013553D1*
X1788878Y983908D1*
X1781004D1*
G37*
X1784941Y1037451D2*
D17*
Y924951D1*
X1834941Y874951D1*
X2078692D1*
X2128692Y824951D1*
Y771825D1*
G36*
X1694321Y985002D2*
X1667873Y1008666D1*
X1667194Y1011943D1*
X1712700Y1023088D1*
X1713379Y1019812D1*
X1699889Y990570D1*
X1694321Y985002D1*
G37*
X1684941Y1037451D2*
D17*
Y999950D1*
X1828690Y856201D1*
X2072442D1*
X2109941Y818702D1*
Y749951D1*
X1406816Y643701D2*
Y612451D1*
G36*
X676403Y896014D2*
X668529Y892077D1*
X655734D1*
Y907825D1*
X668529D1*
X676403Y903888D1*
Y896014D1*
G37*
X1416190Y918702D2*
D17*
X1231815D1*
X1113066D1*
X1097441Y934327D1*
X844316D1*
X809941Y899951D1*
X540576D1*
X1231815Y890576D2*
Y918702D1*
X1350567Y1053076D2*
Y1021827D1*
X1369316Y512451D2*
X1400566D1*
G36*
X676403Y996014D2*
X668529Y992077D1*
X655734D1*
Y1007825D1*
X668529D1*
X676403Y1003888D1*
Y996014D1*
G37*
X1403690Y999951D2*
D17*
X1231815D1*
X540576D1*
X1231815Y971825D2*
Y999951D1*
X1666190Y671827D2*
X1666192Y704479D1*
X1488067Y534327D2*
X1456816D1*
D32*
X1602866Y749951D3*
D3*
X2051969Y798230D3*
D3*
D3*
X2375566Y786369D3*
X2263066D3*
X1078690Y524950D3*
X1992913Y565576D3*
X2047441Y587451D3*
X1491659Y665109D3*
X1750566Y724951D3*
X1813119Y704479D3*
X1363067Y974951D3*
X2316190Y815576D3*
X2231815Y734325D3*
X2338066Y953076D3*
X2294316Y859327D3*
D3*
X2272442Y743702D3*
X2128692Y771825D3*
X2109941Y749951D3*
X1406816Y643701D3*
X1416190Y918702D3*
X1350567Y1021827D3*
X1400566Y512451D3*
X1403690Y999951D3*
X1666192Y704479D3*
X1456816Y534327D3*
X1078690Y587453D3*
Y624951D3*
Y568702D3*
Y606201D3*
X1584941Y749951D3*
X1619316D3*
X2069316Y796827D3*
X2034941D3*
X2466192Y893702D3*
X2425566Y721827D3*
X2450566Y762451D3*
X2366192D3*
X1000566Y424951D3*
Y1074951D3*
X1913066Y784327D3*
X2091192Y587451D3*
X1913066Y606201D3*
X2081816Y743702D3*
X1147441Y965576D3*
X928690Y968702D3*
X781816Y846827D3*
X1063066Y840576D3*
X1459941Y806201D3*
X1606816D3*
X1547441Y724951D3*
X1766192Y606201D3*
X1956816Y915576D3*
X1466192Y628076D3*
X1316192Y496827D3*
X1319316Y628076D3*
X781816Y649951D3*
X1138066Y612451D3*
Y496827D3*
X2172441Y1049951D3*
X3072441Y549951D3*
X2872441Y449951D3*
X2472441Y1049951D3*
X2672441D3*
X2772441D3*
X2872441D3*
X3072441Y849951D3*
X2872441D3*
X2672441D3*
X2244316Y762451D3*
X2172441Y849951D3*
Y949951D3*
X2672441Y449951D3*
X2472441D3*
X850566Y649951D3*
X2072441Y449951D3*
X1872441D3*
X1672441D3*
X1472441D3*
X1572441Y549951D3*
X919316Y649951D3*
X2372441Y1049951D3*
X2972441Y549951D3*
Y849951D3*
X2772441D3*
Y749951D3*
X2572441Y549951D3*
X2472441D3*
X2672441D3*
X2472441Y649951D3*
X2772441Y449951D3*
X878690Y599951D3*
X2372441Y449951D3*
X2172441D3*
X1972441D3*
X1772441D3*
X1572441D3*
X919316Y599951D3*
X2344316Y646827D3*
X2506816Y853076D3*
X2466192Y981201D3*
X2506816Y937451D3*
X781816Y468701D3*
Y1028076D3*
Y946827D3*
Y749951D3*
X919316D3*
X781816Y549951D3*
X841192Y524951D3*
X928690Y846827D3*
X703690Y1028076D3*
Y946827D3*
Y846827D3*
Y749951D3*
Y649951D3*
Y549951D3*
Y468702D3*
X2172441Y531201D3*
X2313066D3*
X956215Y1086657D2*
D17*
X2216090D1*
X2338167D2*
X3079302D1*
X959368Y1078915D2*
X1331494D1*
X1369640D2*
X1438723D1*
X1531165D2*
X1565577D1*
X1604299D2*
X1665578D1*
X1704301D2*
X1765580D1*
X1804302D2*
X1865581D1*
X1904304D2*
X1965583D1*
X2004305D2*
X2216090D1*
X2338167D2*
X2565938D1*
X2646568D2*
X2928143D1*
X3040269D2*
X3076142D1*
X960706Y1071172D2*
X1323812D1*
X1377321D2*
X1438723D1*
X1531165D2*
X1553704D1*
X1616179D2*
X1653706D1*
X1716173D2*
X1753707D1*
X1816175D2*
X1853709D1*
X1916176D2*
X1953702D1*
X2016178D2*
X2216090D1*
X2338167D2*
X2565938D1*
X2646568D2*
X2928143D1*
X3040269D2*
X3074804D1*
X960414Y1063429D2*
X1319867D1*
X1381266D2*
X1438723D1*
X1531165D2*
X1546883D1*
X1623000D2*
X1646877D1*
X1723002D2*
X1746879D1*
X1823003D2*
X1846880D1*
X1923005D2*
X1946882D1*
X2022998D2*
X2216090D1*
X2338167D2*
X2565938D1*
X2646568D2*
X2928143D1*
X3040269D2*
X3075096D1*
X958461Y1055686D2*
X1318237D1*
X1382896D2*
X1438723D1*
X1531165D2*
X1542539D1*
X1627345D2*
X1642540D1*
X1727338D2*
X1742542D1*
X1827340D2*
X1842544D1*
X1927341D2*
X1942537D1*
X2027343D2*
X2216090D1*
X2338167D2*
X2565938D1*
X2646568D2*
X2928143D1*
X3040269D2*
X3077049D1*
X693705Y1047944D2*
X890349D1*
X954531D2*
X1318545D1*
X1382589D2*
X1438723D1*
X1531165D2*
X1539948D1*
X1629936D2*
X1639949D1*
X1729930D2*
X1739951D1*
X1829931D2*
X1839952D1*
X1929933D2*
X1939946D1*
X2029934D2*
X2216090D1*
X2338167D2*
X2565938D1*
X2646568D2*
X2928143D1*
X3040269D2*
X3080979D1*
X693705Y1040201D2*
X897193D1*
X947688D2*
X1320859D1*
X1380274D2*
X1438723D1*
X1531165D2*
X1538802D1*
X1631082D2*
X1638803D1*
X1731075D2*
X1738805D1*
X1831077D2*
X1838806D1*
X1931079D2*
X1938800D1*
X2031080D2*
X2216090D1*
X2338167D2*
X2565938D1*
X2646568D2*
X2928143D1*
X3040269D2*
X3087807D1*
X693705Y1032458D2*
X911803D1*
X933078D2*
X1325765D1*
X1375368D2*
X1438723D1*
X1531165D2*
X1538994D1*
X1630889D2*
X1638996D1*
X1730883D2*
X1738997D1*
X1830885D2*
X1838999D1*
X1930886D2*
X1938993D1*
X2030888D2*
X2565938D1*
X2646568D2*
X2928143D1*
X3040269D2*
X3102394D1*
X3123746D2*
X3137004D1*
X693705Y1024715D2*
X1329156D1*
X1371977D2*
X1438723D1*
X1531165D2*
X1540540D1*
X1629336D2*
X1640541D1*
X1729338D2*
X1740543D1*
X1829339D2*
X1840544D1*
X1929341D2*
X1940546D1*
X2029342D2*
X2526568D1*
X2646568D2*
X2928143D1*
X3040269D2*
X3137004D1*
X693705Y1016972D2*
X1329525D1*
X1371608D2*
X1390903D1*
X1416476D2*
X1438723D1*
X1531165D2*
X1543600D1*
X1626283D2*
X1643594D1*
X1726285D2*
X1743595D1*
X1826286D2*
X1843597D1*
X1926288D2*
X1943599D1*
X2026282D2*
X2379684D1*
X2646568D2*
X2928143D1*
X3040269D2*
X3137004D1*
X1423120Y1009230D2*
X1438723D1*
X1531165D2*
X1548552D1*
X1621331D2*
X1648546D1*
X1722463D2*
X1748547D1*
X1821334D2*
X1848549D1*
X1921336D2*
X1948551D1*
X2021330D2*
X2370941D1*
X2630820D2*
X3137004D1*
X1425250Y1001487D2*
X1438723D1*
X1531165D2*
X1556395D1*
X1613488D2*
X1656389D1*
X1718895D2*
X1754338D1*
X1815544D2*
X1856392D1*
X1913493D2*
X1956394D1*
X2013487D2*
X2363197D1*
X2630820D2*
X3137004D1*
X1424358Y993744D2*
X1438723D1*
X1531165D2*
X1571751D1*
X1598132D2*
X1665816D1*
X1715320D2*
X1759428D1*
X1810454D2*
X1871748D1*
X1898129D2*
X1971750D1*
X1998131D2*
X2355454D1*
X2630820D2*
X3137004D1*
X1419944Y986001D2*
X1459523D1*
X1510365D2*
X1674467D1*
X1722171D2*
X1764518D1*
X1805363D2*
X2347711D1*
X2394269D2*
X2526568D1*
X2630820D2*
X3137004D1*
X693705Y978259D2*
X1200035D1*
X1263594D2*
X1300851D1*
X1384419D2*
X1464314D1*
X1505574D2*
X1683118D1*
X1729914D2*
X1768248D1*
X1801634D2*
X2339968D1*
X2386526D2*
X2526568D1*
X2630820D2*
X2978201D1*
X3021699D2*
X3137004D1*
X693705Y970516D2*
X1199404D1*
X1264232D2*
X1299429D1*
X1384204D2*
X1464314D1*
X1505574D2*
X1691092D1*
X1737658D2*
X1768248D1*
X1801634D2*
X2325896D1*
X2378790D2*
X2526568D1*
X2630820D2*
X2967966D1*
X3031934D2*
X3137004D1*
X693705Y962773D2*
X1200696D1*
X1262933D2*
X1299936D1*
X1380751D2*
X1464314D1*
X1505574D2*
X1698835D1*
X1745401D2*
X1768248D1*
X1801634D2*
X2318845D1*
X2371047D2*
X2526568D1*
X2630820D2*
X2961923D1*
X3037985D2*
X3137004D1*
X693705Y955030D2*
X1204195D1*
X1259434D2*
X1302481D1*
X1369932D2*
X1464314D1*
X1505574D2*
X1706578D1*
X1753144D2*
X1768248D1*
X1801634D2*
X2316545D1*
X2363304D2*
X2526568D1*
X2630820D2*
X2958162D1*
X3041738D2*
X3137004D1*
X693705Y947287D2*
X834308D1*
X1107452D2*
X1211031D1*
X1252598D2*
X1307718D1*
X1355914D2*
X1464314D1*
X1505574D2*
X1714322D1*
X1760888D2*
X1768248D1*
X1801634D2*
X2317276D1*
X2358859D2*
X2526568D1*
X2630820D2*
X2956094D1*
X3043814D2*
X3137004D1*
X693705Y939545D2*
X826250D1*
X1115503D2*
X1318706D1*
X1344926D2*
X1464314D1*
X1505574D2*
X1722065D1*
X1801634D2*
X2321444D1*
X2354684D2*
X2526568D1*
X2630820D2*
X2955463D1*
X3044437D2*
X3137004D1*
X693705Y931802D2*
X818506D1*
X1433170D2*
X1464314D1*
X1505574D2*
X1729808D1*
X1801634D2*
X2346973D1*
X2630820D2*
X2956225D1*
X3043683D2*
X3137004D1*
X693705Y924059D2*
X810771D1*
X1437107D2*
X1464314D1*
X1505574D2*
X1737552D1*
X1809116D2*
X2335769D1*
X2630820D2*
X2958439D1*
X3041461D2*
X3137004D1*
X693705Y916316D2*
X803027D1*
X849586D2*
X995833D1*
X1006735D2*
X1092167D1*
X1437668D2*
X1464314D1*
X1505574D2*
X1745295D1*
X1816859D2*
X2328026D1*
X2630820D2*
X2962384D1*
X3037524D2*
X3137004D1*
X841842Y908573D2*
X973495D1*
X1029073D2*
X1099910D1*
X1435177D2*
X1464314D1*
X1505574D2*
X1753038D1*
X1824602D2*
X2320283D1*
X2630820D2*
X2968705D1*
X3031195D2*
X3137004D1*
X834099Y900831D2*
X964214D1*
X1038354D2*
X1201080D1*
X1262548D2*
X1404705D1*
X1427672D2*
X1464314D1*
X1505574D2*
X1760781D1*
X1832346D2*
X2312539D1*
X2630820D2*
X2979608D1*
X3020292D2*
X3137004D1*
X826356Y893088D2*
X958262D1*
X1044306D2*
X1199473D1*
X1264156D2*
X1464314D1*
X1505574D2*
X1768525D1*
X1840089D2*
X2304796D1*
X2351362D2*
X2526568D1*
X2630820D2*
X3137004D1*
X817028Y885345D2*
X954333D1*
X1048243D2*
X1199812D1*
X1263817D2*
X1464314D1*
X1505574D2*
X1776268D1*
X2091581D2*
X2297053D1*
X2343619D2*
X2526568D1*
X2630820D2*
X3137004D1*
X693705Y877602D2*
X951926D1*
X1050642D2*
X1202157D1*
X1261472D2*
X1464314D1*
X1505574D2*
X1784011D1*
X2099324D2*
X2283542D1*
X2335875D2*
X2526568D1*
X2630820D2*
X3137004D1*
X693705Y869860D2*
X950827D1*
X1051742D2*
X1207094D1*
X1256535D2*
X1464314D1*
X1505574D2*
X1791747D1*
X2107067D2*
X2275561D1*
X2328132D2*
X2526568D1*
X2630820D2*
X3137004D1*
X693705Y862117D2*
X950950D1*
X1052895D2*
X1217174D1*
X1246462D2*
X1464314D1*
X1505574D2*
X1799490D1*
X2114811D2*
X2272892D1*
X2320389D2*
X2526568D1*
X2630820D2*
X3137004D1*
X693705Y854374D2*
X952303D1*
X1054418D2*
X1464314D1*
X1509365D2*
X1807233D1*
X2122554D2*
X2273300D1*
X2315337D2*
X2526568D1*
X2630820D2*
X3137004D1*
X693705Y846631D2*
X954994D1*
X1055932D2*
X1464591D1*
X1517108D2*
X1814977D1*
X2130290D2*
X2277022D1*
X2311615D2*
X2526568D1*
X2630820D2*
X3137004D1*
X693705Y838888D2*
X959277D1*
X1057447D2*
X1467682D1*
X1524852D2*
X2066476D1*
X2138033D2*
X2289525D1*
X2299104D2*
X2484976D1*
X2630820D2*
X3137004D1*
X693705Y831146D2*
X965752D1*
X1060192D2*
X1474895D1*
X1532595D2*
X2074220D1*
X2144131D2*
X2301574D1*
X2630820D2*
X3137004D1*
X693705Y823403D2*
X976094D1*
X1067936D2*
X1482638D1*
X1540338D2*
X2081955D1*
X2145384D2*
X2296099D1*
X2630820D2*
X3137004D1*
X693705Y815660D2*
X991212D1*
X1075679D2*
X1490381D1*
X1548081D2*
X2025261D1*
X2078993D2*
X2089698D1*
X2145384D2*
X2294577D1*
X2630820D2*
X3137004D1*
X693705Y807917D2*
X972519D1*
X1083422D2*
X1498125D1*
X1555825D2*
X2016525D1*
X2087728D2*
X2093251D1*
X2145384D2*
X2296038D1*
X2630820D2*
X3137004D1*
X693705Y800175D2*
X963622D1*
X1091166D2*
X1505868D1*
X1563568D2*
X2013596D1*
X2145384D2*
X2209439D1*
X2630820D2*
X3137004D1*
X693705Y792432D2*
X957870D1*
X1098909D2*
X1513611D1*
X1571311D2*
X2013796D1*
X2145384D2*
X2201696D1*
X2630820D2*
X3137004D1*
X693705Y784689D2*
X954079D1*
X1106652D2*
X1521354D1*
X1579055D2*
X2017233D1*
X2087029D2*
X2093251D1*
X2145861D2*
X2193952D1*
X2630820D2*
X3137004D1*
X693705Y776946D2*
X951795D1*
X1114388D2*
X1529098D1*
X1586798D2*
X2027944D1*
X2076310D2*
X2093251D1*
X2149667D2*
X2186209D1*
X2630820D2*
X3137004D1*
X693705Y769203D2*
X950804D1*
X1122131D2*
X1536841D1*
X1824910D2*
X2031335D1*
X2072596D2*
X2093251D1*
X2150144D2*
X2178466D1*
X2630820D2*
X3137004D1*
X693705Y761461D2*
X951027D1*
X1129874D2*
X1544584D1*
X1836660D2*
X2031335D1*
X2072596D2*
X2091798D1*
X2147545D2*
X2170722D1*
X2228423D2*
X2260774D1*
X2284110D2*
X2526568D1*
X2630820D2*
X3137004D1*
X693705Y753718D2*
X952488D1*
X1137618D2*
X1552328D1*
X1844403D2*
X2031335D1*
X2072596D2*
X2088668D1*
X2139771D2*
X2162987D1*
X2240195D2*
X2253392D1*
X2630820D2*
X3137004D1*
X693705Y745975D2*
X955294D1*
X1145361D2*
X1560071D1*
X1852138D2*
X2031335D1*
X2072596D2*
X2088706D1*
X2131174D2*
X2155243D1*
X2630820D2*
X3137004D1*
X693705Y738232D2*
X959739D1*
X1500730D2*
X1566938D1*
X1859882D2*
X2031335D1*
X2072596D2*
X2091936D1*
X2127944D2*
X2147500D1*
X2205193D2*
X2210569D1*
X2630820D2*
X3137004D1*
X693705Y730490D2*
X962361D1*
X1508934D2*
X1576742D1*
X1867625D2*
X2031335D1*
X2072596D2*
X2101740D1*
X2118140D2*
X2139757D1*
X2197449D2*
X2210554D1*
X2630820D2*
X3137004D1*
X693705Y722747D2*
X953203D1*
X1516678D2*
X1655405D1*
X1676980D2*
X1729070D1*
X2189706D2*
X2213714D1*
X2249915D2*
X2526568D1*
X2630820D2*
X3137004D1*
X1524421Y715004D2*
X1647431D1*
X1684954D2*
X1731477D1*
X2181971D2*
X2215129D1*
X2630820D2*
X3137004D1*
X1532164Y707261D2*
X1644763D1*
X1687622D2*
X1738790D1*
X1762341D2*
X1787056D1*
X2174227D2*
X2217467D1*
X2630820D2*
X3137004D1*
X1539908Y699518D2*
X1645178D1*
X1687207D2*
X1792108D1*
X1834137D2*
X1840898D1*
X2166484D2*
X2224595D1*
X2630820D2*
X3137004D1*
X1547651Y691776D2*
X1640826D1*
X1691552D2*
X1795830D1*
X1830408D2*
X1849895D1*
X2157487D2*
X2232330D1*
X2630820D2*
X3137004D1*
X693705Y684033D2*
X953826D1*
X1555386D2*
X1636197D1*
X1696181D2*
X1808372D1*
X1817866D2*
X2244441D1*
X2630820D2*
X3137004D1*
X693705Y676290D2*
X951649D1*
X1563130D2*
X1634067D1*
X1698318D2*
X2526568D1*
X2630820D2*
X3137004D1*
X693705Y668547D2*
X950765D1*
X1570873D2*
X1633921D1*
X1698464D2*
X2526568D1*
X2630820D2*
X2996133D1*
X3003767D2*
X3137004D1*
X693705Y660804D2*
X951096D1*
X1071688D2*
X1157543D1*
X1218588D2*
X1394148D1*
X1419490D2*
X1470496D1*
X1578616D2*
X1635728D1*
X1696650D2*
X2526568D1*
X2630820D2*
X2974180D1*
X3025728D2*
X3137004D1*
X693705Y653062D2*
X952657D1*
X1079431D2*
X1155774D1*
X1220356D2*
X1387427D1*
X1426211D2*
X1473880D1*
X1586360D2*
X1639911D1*
X1692467D2*
X2526568D1*
X2630820D2*
X2965706D1*
X3034202D2*
X3137004D1*
X693705Y645319D2*
X955594D1*
X1087175D2*
X1155966D1*
X1220164D2*
X1385266D1*
X1428364D2*
X1484383D1*
X1498938D2*
X1516295D1*
X1594103D2*
X1648100D1*
X1684277D2*
X2526568D1*
X2630820D2*
X2960500D1*
X3039400D2*
X3137004D1*
X693705Y637576D2*
X960200D1*
X1096041D2*
X1158142D1*
X1217988D2*
X1386120D1*
X1427511D2*
X1524038D1*
X1601846D2*
X2526568D1*
X2630820D2*
X2957324D1*
X3042576D2*
X3137004D1*
X693705Y629833D2*
X967151D1*
X1099724D2*
X1162841D1*
X1213290D2*
X1379576D1*
X1434054D2*
X1531781D1*
X1609590D2*
X2955740D1*
X3044168D2*
X3137004D1*
X693705Y622091D2*
X978586D1*
X1024144D2*
X1052704D1*
X1100108D2*
X1172253D1*
X1203878D2*
X1375877D1*
X1437753D2*
X1539517D1*
X1617333D2*
X2955556D1*
X3044344D2*
X3137004D1*
X693705Y614348D2*
X950734D1*
X1051834D2*
X1058064D1*
X1099324D2*
X1374432D1*
X1439199D2*
X1547260D1*
X1625076D2*
X2956771D1*
X3043137D2*
X3137004D1*
X693705Y606605D2*
X950734D1*
X1051834D2*
X1057080D1*
X1100301D2*
X1374916D1*
X1438714D2*
X1555004D1*
X1632819D2*
X2038471D1*
X2056409D2*
X2959500D1*
X3040400D2*
X3137004D1*
X693705Y598862D2*
X950734D1*
X1051834D2*
X1058064D1*
X1099324D2*
X1377438D1*
X1436192D2*
X1562747D1*
X2065652D2*
X2964106D1*
X3035794D2*
X3137004D1*
X693705Y591119D2*
X950734D1*
X1051834D2*
X1057403D1*
X1099978D2*
X1382644D1*
X1430986D2*
X1570490D1*
X2068728D2*
X2971504D1*
X3028396D2*
X3137004D1*
X693705Y583377D2*
X950734D1*
X1051834D2*
X1057480D1*
X1099901D2*
X1393517D1*
X1420121D2*
X1578233D1*
X2068651D2*
X2985698D1*
X3014202D2*
X3137004D1*
X693705Y575634D2*
X950734D1*
X1051834D2*
X1058064D1*
X1099316D2*
X1585977D1*
X2065375D2*
X3137004D1*
X693705Y567891D2*
X950734D1*
X1051834D2*
X1057095D1*
X1100285D2*
X1593720D1*
X2014402D2*
X2039502D1*
X2055379D2*
X3137004D1*
X693705Y560148D2*
X950734D1*
X1051834D2*
X1058064D1*
X1099316D2*
X1468974D1*
X1507166D2*
X1601463D1*
X2013810D2*
X3137004D1*
X693705Y552406D2*
X950734D1*
X1051834D2*
X1058064D1*
X1099316D2*
X1445690D1*
X1514840D2*
X1609614D1*
X2009834D2*
X3137004D1*
X693705Y544663D2*
X950734D1*
X1051834D2*
X1058064D1*
X1099316D2*
X1437947D1*
X1518769D2*
X3137004D1*
X693705Y536920D2*
X950734D1*
X1051834D2*
X1058064D1*
X1099316D2*
X1348449D1*
X1390186D2*
X1435363D1*
X1520399D2*
X3137004D1*
X693705Y529177D2*
X950734D1*
X1099870D2*
X1341652D1*
X1413762D2*
X1435848D1*
X1520084D2*
X3137004D1*
X693705Y521434D2*
X950734D1*
X1100008D2*
X1338176D1*
X1420144D2*
X1439669D1*
X1517762D2*
X3137004D1*
X1097002Y513692D2*
X1336899D1*
X1422143D2*
X1453210D1*
X1512856D2*
X2565938D1*
X2646568D2*
X3137004D1*
X1088536Y505949D2*
X1337553D1*
X1421136D2*
X1473257D1*
X1502875D2*
X2565938D1*
X2646568D2*
X3137004D1*
X1080792Y498206D2*
X1340260D1*
X1416545D2*
X2565938D1*
X2646568D2*
X3137004D1*
X1073049Y490463D2*
X1345758D1*
X1392877D2*
X2565938D1*
X2646568D2*
X3137004D1*
X1064322Y482720D2*
X1357669D1*
X1380966D2*
X2565938D1*
X2646568D2*
X3137004D1*
X693705Y474978D2*
X2565938D1*
X2646568D2*
X2928143D1*
X3040269D2*
X3137004D1*
X693705Y467235D2*
X911026D1*
X933854D2*
X2565938D1*
X2646568D2*
X2928143D1*
X3040269D2*
X3101686D1*
X3124446D2*
X3137004D1*
X693705Y459492D2*
X896939D1*
X947942D2*
X2216090D1*
X2338167D2*
X2565938D1*
X2646568D2*
X2928143D1*
X3040269D2*
X3087576D1*
X693705Y451749D2*
X890211D1*
X954678D2*
X2216090D1*
X2338167D2*
X2565938D1*
X2646568D2*
X2928143D1*
X3040269D2*
X3080840D1*
X958538Y444007D2*
X2216090D1*
X2338167D2*
X2565938D1*
X2646568D2*
X2928143D1*
X3040269D2*
X3076972D1*
X960445Y436264D2*
X2216090D1*
X2338167D2*
X2565938D1*
X2646568D2*
X2928143D1*
X3040269D2*
X3075065D1*
X960691Y428521D2*
X2216090D1*
X2338167D2*
X2928143D1*
X3040269D2*
X3074819D1*
X959307Y420778D2*
X2216090D1*
X2338167D2*
X2928143D1*
X3040269D2*
X3076196D1*
X956100Y413035D2*
X2216090D1*
X2338167D2*
X2928143D1*
X3040269D2*
X3079402D1*
X2568036Y518810D2*
X2645778D1*
Y431880D1*
X2566723D1*
Y518810D1*
X2568036D1*
X2930240Y1085739D2*
X3039479D1*
Y1014558D1*
X2928928D1*
Y1085739D1*
X2930240D1*
X3043475Y621020D2*
X3042947Y617134D1*
X3042074Y613312D1*
X3040861Y609583D1*
X3039318Y605977D1*
X3037459Y602525D1*
X3035298Y599253D1*
X3032852Y596188D1*
X3030141Y593355D1*
X3027187Y590776D1*
X3024014Y588472D1*
X3020647Y586462D1*
X3017114Y584762D1*
X3013442Y583385D1*
X3009662Y582343D1*
X3005803Y581644D1*
X3001898Y581294D1*
X2997976Y581295D1*
X2994071Y581648D1*
X2990213Y582350D1*
X2986433Y583394D1*
X2982763Y584773D1*
X2979230Y586476D1*
X2975865Y588488D1*
X2972693Y590794D1*
X2969741Y593375D1*
X2967032Y596210D1*
X2964588Y599276D1*
X2962429Y602550D1*
X2960572Y606003D1*
X2959032Y609610D1*
X2957822Y613339D1*
X2956950Y617163D1*
X2956425Y621049D1*
X2956251Y624966D1*
X2956428Y628883D1*
X2956956Y632769D1*
X2957829Y636591D1*
X2959042Y640320D1*
X2960585Y643926D1*
X2962444Y647378D1*
X2964605Y650650D1*
X2967051Y653715D1*
X2969762Y656548D1*
X2972716Y659127D1*
X2975889Y661431D1*
X2979256Y663441D1*
X2982789Y665141D1*
X2986461Y666518D1*
X2990241Y667560D1*
X2994100Y668259D1*
X2998005Y668609D1*
X3001926Y668608D1*
X3005832Y668255D1*
X3009690Y667553D1*
X3013469Y666509D1*
X3017140Y665130D1*
X3020673Y663427D1*
X3024038Y661415D1*
X3027210Y659109D1*
X3030162Y656528D1*
X3032871Y653693D1*
X3035315Y650626D1*
X3037474Y647353D1*
X3039331Y643899D1*
X3040871Y640293D1*
X3042081Y636564D1*
X3042953Y632740D1*
X3043478Y628854D1*
X3043652Y624951D1*
X3043475Y621020D1*
Y935980D2*
X3042947Y932095D1*
X3042074Y928272D1*
X3040861Y924543D1*
X3039318Y920938D1*
X3037459Y917486D1*
X3035298Y914214D1*
X3032852Y911149D1*
X3030141Y908315D1*
X3027187Y905736D1*
X3024014Y903433D1*
X3020647Y901423D1*
X3017114Y899722D1*
X3013442Y898346D1*
X3009662Y897304D1*
X3005803Y896605D1*
X3001898Y896255D1*
X2997976Y896256D1*
X2994071Y896609D1*
X2990213Y897310D1*
X2986433Y898355D1*
X2982763Y899734D1*
X2979230Y901436D1*
X2975865Y903449D1*
X2972693Y905754D1*
X2969741Y908335D1*
X2967032Y911171D1*
X2964588Y914237D1*
X2962429Y917510D1*
X2960572Y920964D1*
X2959032Y924570D1*
X2957822Y928300D1*
X2956950Y932123D1*
X2956425Y936009D1*
X2956251Y939927D1*
X2956428Y943844D1*
X2956956Y947729D1*
X2957829Y951552D1*
X2959042Y955281D1*
X2960585Y958886D1*
X2962444Y962339D1*
X2964605Y965610D1*
X2967051Y968675D1*
X2969762Y971509D1*
X2972716Y974088D1*
X2975889Y976392D1*
X2979256Y978402D1*
X2982789Y980102D1*
X2986461Y981478D1*
X2990241Y982520D1*
X2994100Y983219D1*
X2998005Y983570D1*
X3001926Y983568D1*
X3005832Y983215D1*
X3009690Y982514D1*
X3013469Y981470D1*
X3017140Y980090D1*
X3020673Y978388D1*
X3024038Y976376D1*
X3027210Y974070D1*
X3030162Y971489D1*
X3032871Y968654D1*
X3035315Y965587D1*
X3037474Y962314D1*
X3039331Y958860D1*
X3040871Y955254D1*
X3042081Y951524D1*
X3042953Y947701D1*
X3043478Y943815D1*
X3043652Y939912D1*
X3043475Y935980D1*
X1630355Y1036139D2*
X1630298Y1034831D1*
X1630204Y1033525D1*
X1630072Y1032222D1*
X1629903Y1030924D1*
X1629696Y1029631D1*
X1629452Y1028344D1*
X1629171Y1027065D1*
X1628853Y1025795D1*
X1628499Y1024535D1*
X1628109Y1023285D1*
X1627683Y1022047D1*
X1627221Y1020821D1*
X1626724Y1019610D1*
X1626193Y1018413D1*
X1625627Y1017232D1*
X1625027Y1016068D1*
X1624394Y1014922D1*
X1623729Y1013794D1*
X1623031Y1012686D1*
X1622301Y1011599D1*
X1621541Y1010533D1*
X1620750Y1009489D1*
X1619929Y1008469D1*
X1619079Y1007473D1*
X1618201Y1006501D1*
X1617296Y1005556D1*
X1616363Y1004637D1*
X1615404Y1003745D1*
X1614420Y1002881D1*
X1613412Y1002046D1*
X1612380Y1001240D1*
X1611325Y1000464D1*
X1610248Y999719D1*
X1609150Y999006D1*
X1608032Y998324D1*
X1606895Y997675D1*
X1605739Y997059D1*
X1604567Y996476D1*
X1603378Y995927D1*
X1602173Y995413D1*
X1600955Y994934D1*
X1599723Y994490D1*
X1598479Y994082D1*
X1597223Y993710D1*
X1595958Y993374D1*
X1594683Y993075D1*
X1593400Y992813D1*
X1592110Y992588D1*
X1590814Y992400D1*
X1589513Y992249D1*
X1588209Y992136D1*
X1586902Y992061D1*
X1585593Y992023D1*
X1584283D1*
X1582974Y992061D1*
X1581667Y992136D1*
X1580363Y992250D1*
X1579062Y992400D1*
X1577766Y992588D1*
X1576476Y992814D1*
X1575193Y993076D1*
X1573919Y993376D1*
X1572653Y993712D1*
X1571398Y994084D1*
X1570154Y994492D1*
X1568922Y994936D1*
X1567703Y995415D1*
X1566499Y995930D1*
X1565310Y996478D1*
X1564137Y997061D1*
X1562982Y997677D1*
X1561845Y998327D1*
X1560727Y999009D1*
X1559629Y999722D1*
X1558553Y1000467D1*
X1557498Y1001243D1*
X1556466Y1002049D1*
X1555457Y1002884D1*
X1554473Y1003748D1*
X1553515Y1004641D1*
X1552582Y1005560D1*
X1551677Y1006506D1*
X1550799Y1007477D1*
X1549949Y1008473D1*
X1549128Y1009494D1*
X1548338Y1010537D1*
X1547577Y1011603D1*
X1546848Y1012691D1*
X1546150Y1013799D1*
X1545485Y1014927D1*
X1544852Y1016073D1*
X1544252Y1017237D1*
X1543687Y1018418D1*
X1543156Y1019615D1*
X1542659Y1020827D1*
X1542197Y1022052D1*
X1541771Y1023290D1*
X1541381Y1024540D1*
X1541027Y1025801D1*
X1540710Y1027071D1*
X1540429Y1028350D1*
X1540185Y1029637D1*
X1539978Y1030930D1*
X1539809Y1032228D1*
X1539677Y1033531D1*
X1539583Y1034837D1*
X1539527Y1036145D1*
X1539508Y1037454D1*
X1539527Y1038764D1*
X1539584Y1040072D1*
X1539678Y1041378D1*
X1539810Y1042681D1*
X1539979Y1043979D1*
X1540186Y1045272D1*
X1540430Y1046558D1*
X1540711Y1047837D1*
X1541029Y1049108D1*
X1541383Y1050368D1*
X1541773Y1051618D1*
X1542199Y1052856D1*
X1542661Y1054082D1*
X1543158Y1055293D1*
X1543689Y1056490D1*
X1544255Y1057671D1*
X1544855Y1058835D1*
X1545488Y1059981D1*
X1546153Y1061109D1*
X1546851Y1062217D1*
X1547581Y1063304D1*
X1548341Y1064370D1*
X1549132Y1065414D1*
X1549953Y1066434D1*
X1550802Y1067430D1*
X1551681Y1068402D1*
X1552586Y1069347D1*
X1553519Y1070266D1*
X1554478Y1071158D1*
X1555462Y1072022D1*
X1556470Y1072857D1*
X1557502Y1073663D1*
X1558557Y1074439D1*
X1559634Y1075184D1*
X1560732Y1075897D1*
X1561850Y1076579D1*
X1562987Y1077228D1*
X1564142Y1077844D1*
X1565315Y1078427D1*
X1566504Y1078976D1*
X1567708Y1079490D1*
X1568927Y1079969D1*
X1570159Y1080413D1*
X1571403Y1080821D1*
X1572659Y1081193D1*
X1573924Y1081529D1*
X1575199Y1081828D1*
X1576482Y1082090D1*
X1577772Y1082315D1*
X1579068Y1082503D1*
X1580368Y1082654D1*
X1581673Y1082767D1*
X1582980Y1082842D1*
X1584289Y1082880D1*
X1585599D1*
X1586907Y1082842D1*
X1588215Y1082766D1*
X1589519Y1082653D1*
X1590820Y1082503D1*
X1592116Y1082314D1*
X1593406Y1082089D1*
X1594688Y1081827D1*
X1595963Y1081527D1*
X1597229Y1081191D1*
X1598484Y1080819D1*
X1599728Y1080411D1*
X1600960Y1079967D1*
X1602179Y1079487D1*
X1603383Y1078973D1*
X1604572Y1078424D1*
X1605744Y1077842D1*
X1606900Y1077225D1*
X1608037Y1076576D1*
X1609155Y1075894D1*
X1610253Y1075181D1*
X1611329Y1074435D1*
X1612384Y1073660D1*
X1613416Y1072854D1*
X1614425Y1072018D1*
X1615409Y1071154D1*
X1616367Y1070262D1*
X1617300Y1069343D1*
X1618205Y1068397D1*
X1619083Y1067426D1*
X1619933Y1066430D1*
X1620753Y1065409D1*
X1621544Y1064365D1*
X1622305Y1063299D1*
X1623034Y1062212D1*
X1623732Y1061104D1*
X1624397Y1059976D1*
X1625030Y1058830D1*
X1625629Y1057666D1*
X1626195Y1056485D1*
X1626726Y1055288D1*
X1627223Y1054076D1*
X1627685Y1052851D1*
X1628111Y1051613D1*
X1628501Y1050363D1*
X1628855Y1049102D1*
X1629172Y1047832D1*
X1629453Y1046553D1*
X1629697Y1045266D1*
X1629903Y1043973D1*
X1630073Y1042675D1*
X1630205Y1041372D1*
X1630299Y1040066D1*
X1630355Y1038758D1*
X1630374Y1037451D1*
X1630355Y1036139D1*
X1930204Y1033519D2*
X1929698Y1029643D1*
X1928861Y1025824D1*
X1927699Y1022092D1*
X1926220Y1018473D1*
X1924436Y1014995D1*
X1922359Y1011683D1*
X1920006Y1008561D1*
X1917392Y1005654D1*
X1914539Y1002982D1*
X1911466Y1000565D1*
X1908197Y998422D1*
X1904755Y996567D1*
X1901167Y995015D1*
X1897459Y993777D1*
X1893659Y992863D1*
X1889793Y992278D1*
X1885892Y992028D1*
X1881984Y992115D1*
X1878097Y992537D1*
X1874261Y993291D1*
X1870505Y994373D1*
X1866855Y995773D1*
X1863339Y997482D1*
X1859983Y999487D1*
X1856812Y1001773D1*
X1853849Y1004324D1*
X1851116Y1007119D1*
X1848634Y1010139D1*
X1846420Y1013361D1*
X1844492Y1016762D1*
X1842863Y1020316D1*
X1841546Y1023996D1*
X1840550Y1027776D1*
X1839883Y1031628D1*
X1839549Y1035523D1*
X1839551Y1039433D1*
X1839889Y1043327D1*
X1840561Y1047178D1*
X1841562Y1050957D1*
X1842883Y1054636D1*
X1844516Y1058188D1*
X1846449Y1061587D1*
X1848666Y1064806D1*
X1851152Y1067823D1*
X1853888Y1070616D1*
X1856854Y1073162D1*
X1860028Y1075445D1*
X1863386Y1077446D1*
X1866904Y1079151D1*
X1870555Y1080547D1*
X1874313Y1081624D1*
X1878150Y1082374D1*
X1882037Y1082792D1*
X1885945Y1082873D1*
X1889846Y1082619D1*
X1893711Y1082030D1*
X1897510Y1081111D1*
X1901217Y1079869D1*
X1904803Y1078313D1*
X1908242Y1076454D1*
X1911509Y1074307D1*
X1914579Y1071886D1*
X1917429Y1069211D1*
X1920039Y1066301D1*
X1922389Y1063177D1*
X1924462Y1059862D1*
X1926242Y1056382D1*
X1927717Y1052761D1*
X1928875Y1049027D1*
X1929707Y1045208D1*
X1930208Y1041331D1*
X1930374Y1037451D1*
X1930204Y1033519D1*
X2030204D2*
X2029698Y1029643D1*
X2028861Y1025824D1*
X2027699Y1022092D1*
X2026220Y1018473D1*
X2024436Y1014995D1*
X2022359Y1011683D1*
X2020006Y1008561D1*
X2017392Y1005654D1*
X2014539Y1002982D1*
X2011466Y1000565D1*
X2008197Y998422D1*
X2004755Y996567D1*
X2001167Y995015D1*
X1997459Y993777D1*
X1993659Y992863D1*
X1989793Y992278D1*
X1985892Y992028D1*
X1981984Y992115D1*
X1978097Y992537D1*
X1974261Y993291D1*
X1970505Y994373D1*
X1966855Y995773D1*
X1963339Y997482D1*
X1959983Y999487D1*
X1956812Y1001773D1*
X1953849Y1004324D1*
X1951116Y1007119D1*
X1948634Y1010139D1*
X1946420Y1013361D1*
X1944492Y1016762D1*
X1942863Y1020316D1*
X1941546Y1023996D1*
X1940550Y1027776D1*
X1939883Y1031628D1*
X1939549Y1035523D1*
X1939551Y1039433D1*
X1939889Y1043327D1*
X1940561Y1047178D1*
X1941562Y1050957D1*
X1942883Y1054636D1*
X1944516Y1058188D1*
X1946449Y1061587D1*
X1948666Y1064806D1*
X1951152Y1067823D1*
X1953888Y1070616D1*
X1956854Y1073162D1*
X1960028Y1075445D1*
X1963386Y1077446D1*
X1966904Y1079151D1*
X1970555Y1080547D1*
X1974313Y1081624D1*
X1978150Y1082374D1*
X1982037Y1082792D1*
X1985945Y1082873D1*
X1989846Y1082619D1*
X1993711Y1082030D1*
X1997510Y1081111D1*
X2001217Y1079869D1*
X2004803Y1078313D1*
X2008242Y1076454D1*
X2011509Y1074307D1*
X2014579Y1071886D1*
X2017429Y1069211D1*
X2020039Y1066301D1*
X2022389Y1063177D1*
X2024462Y1059862D1*
X2026242Y1056382D1*
X2027717Y1052761D1*
X2028875Y1049027D1*
X2029707Y1045208D1*
X2030208Y1041331D1*
X2030374Y1037451D1*
X2030204Y1033519D1*
X952834Y616535D2*
X1051049D1*
Y525370D1*
X1058850Y533172D1*
X1058848Y562379D1*
X1058715Y562807D1*
X1057961Y566694D1*
X1057955Y570654D1*
X1058699Y574542D1*
X1058847Y574912D1*
X1058848Y581126D1*
X1058715Y581558D1*
X1057961Y585445D1*
X1057955Y589404D1*
X1058699Y593293D1*
X1058847Y593663D1*
X1058848Y599873D1*
X1058715Y600306D1*
X1057961Y604193D1*
X1057955Y608152D1*
X1058699Y612041D1*
X1058847Y612411D1*
X1058848Y616736D1*
X1046182Y629398D1*
X1022875Y621935D1*
X1019660Y620525D1*
X1015928Y619211D1*
X1012103Y618198D1*
X1008209Y617492D1*
X1004272Y617098D1*
X1000316Y617017D1*
X996366Y617252D1*
X992447Y617799D1*
X988585Y618656D1*
X984802Y619817D1*
X981123Y621275D1*
X977572Y623021D1*
X974171Y625043D1*
X970942Y627329D1*
X967904Y629864D1*
X965077Y632633D1*
X962479Y635618D1*
X960127Y638799D1*
X958034Y642158D1*
X956216Y645672D1*
X954682Y649319D1*
X953442Y653077D1*
X952506Y656921D1*
X951877Y660828D1*
X951561Y664772D1*
X951560Y668729D1*
X951872Y672674D1*
X952497Y676581D1*
X953431Y680426D1*
X954630Y684071D1*
X954369Y684061D1*
X945857Y684046D1*
X692916D1*
X692913Y578212D1*
Y519791D1*
X729563Y519794D1*
X951523D1*
X951521Y616535D1*
X952834D1*
X1697599Y667900D2*
X1696879Y664070D1*
X1695693Y660357D1*
X1694060Y656819D1*
X1692004Y653508D1*
X1689557Y650474D1*
X1686756Y647765D1*
X1683643Y645420D1*
X1680266Y643475D1*
X1676675Y641960D1*
X1672926Y640898D1*
X1669074Y640305D1*
X1665178Y640189D1*
X1661298Y640554D1*
X1657492Y641392D1*
X1653818Y642691D1*
X1650331Y644433D1*
X1647085Y646589D1*
X1644128Y649128D1*
X1641506Y652011D1*
X1639258Y655195D1*
X1637419Y658631D1*
X1636015Y662266D1*
X1635069Y666047D1*
X1634595Y669915D1*
X1634599Y673813D1*
X1635083Y677680D1*
X1636038Y681458D1*
X1637450Y685091D1*
X1639298Y688522D1*
X1641553Y691700D1*
X1644182Y694577D1*
X1646818Y696830D1*
X1646216Y698584D1*
X1645462Y702471D1*
X1645456Y706430D1*
X1646200Y710319D1*
X1647667Y713997D1*
X1649803Y717331D1*
X1652532Y720200D1*
X1655754Y722501D1*
X1659353Y724151D1*
X1663200Y725090D1*
X1667154Y725284D1*
X1671074Y724725D1*
X1674818Y723435D1*
X1678249Y721460D1*
X1681245Y718872D1*
X1683697Y715763D1*
X1685516Y712246D1*
X1686637Y708448D1*
X1687018Y704479D1*
X1686647Y700565D1*
X1685564Y696858D1*
X1686813Y695840D1*
X1689608Y693124D1*
X1692047Y690085D1*
X1694095Y686769D1*
X1695720Y683227D1*
X1696897Y679511D1*
X1697608Y675680D1*
X1697844Y671827D1*
X1697599Y667900D1*
X1438225Y608525D2*
X1437505Y604695D1*
X1436319Y600982D1*
X1434686Y597444D1*
X1432630Y594132D1*
X1430183Y591099D1*
X1427382Y588389D1*
X1424269Y586044D1*
X1420892Y584100D1*
X1417301Y582585D1*
X1413552Y581523D1*
X1409700Y580930D1*
X1405804Y580814D1*
X1401924Y581178D1*
X1398118Y582016D1*
X1394444Y583316D1*
X1390957Y585057D1*
X1387711Y587214D1*
X1384754Y589753D1*
X1382132Y592636D1*
X1379884Y595820D1*
X1378045Y599255D1*
X1376641Y602891D1*
X1375695Y606672D1*
X1375220Y610540D1*
X1375225Y614437D1*
X1375709Y618304D1*
X1376664Y622083D1*
X1378076Y625715D1*
X1379924Y629147D1*
X1382179Y632325D1*
X1384808Y635202D1*
X1387056Y637123D1*
X1386841Y637806D1*
X1386087Y641693D1*
X1386081Y645652D1*
X1386825Y649541D1*
X1388292Y653219D1*
X1390428Y656553D1*
X1393156Y659422D1*
X1396378Y661723D1*
X1399978Y663373D1*
X1403824Y664312D1*
X1407779Y664505D1*
X1411699Y663947D1*
X1415442Y662657D1*
X1418874Y660682D1*
X1421870Y658093D1*
X1424321Y654984D1*
X1426141Y651468D1*
X1427261Y647670D1*
X1427643Y643701D1*
X1427272Y639787D1*
X1426523Y637223D1*
X1427439Y636465D1*
X1430234Y633749D1*
X1432673Y630710D1*
X1434721Y627394D1*
X1436346Y623851D1*
X1437523Y620136D1*
X1438234Y616304D1*
X1438470Y612451D1*
X1438225Y608525D1*
X1393971Y492696D2*
X1392683Y491099D1*
X1389882Y488389D1*
X1386769Y486044D1*
X1383392Y484100D1*
X1379801Y482585D1*
X1376052Y481523D1*
X1372200Y480930D1*
X1368304Y480814D1*
X1364424Y481178D1*
X1360618Y482016D1*
X1356944Y483316D1*
X1353457Y485057D1*
X1350211Y487214D1*
X1347254Y489753D1*
X1344632Y492636D1*
X1342384Y495820D1*
X1340545Y499255D1*
X1339141Y502891D1*
X1338195Y506672D1*
X1337720Y510540D1*
X1337725Y514437D1*
X1338209Y518304D1*
X1339164Y522083D1*
X1340576Y525715D1*
X1342424Y529147D1*
X1344679Y532325D1*
X1347308Y535202D1*
X1350271Y537734D1*
X1353522Y539883D1*
X1357013Y541616D1*
X1360690Y542907D1*
X1364498Y543736D1*
X1368379Y544091D1*
X1372274Y543966D1*
X1376124Y543364D1*
X1379872Y542293D1*
X1383459Y540770D1*
X1386832Y538817D1*
X1389939Y536465D1*
X1392734Y533749D1*
X1393970Y532208D1*
X1397574Y533062D1*
X1401528Y533256D1*
X1405448Y532698D1*
X1409192Y531408D1*
X1412623Y529433D1*
X1415619Y526844D1*
X1418071Y523735D1*
X1419890Y520218D1*
X1421011Y516421D1*
X1421392Y512451D1*
X1421021Y508538D1*
X1419911Y504737D1*
X1418102Y501216D1*
X1415658Y498100D1*
X1412669Y495503D1*
X1409243Y493519D1*
X1405503Y492218D1*
X1401585Y491650D1*
X1397630Y491833D1*
X1394048Y492696D1*
X1519476Y530400D2*
X1518755Y526570D1*
X1517569Y522857D1*
X1515936Y519319D1*
X1513881Y516008D1*
X1511434Y512974D1*
X1508633Y510265D1*
X1505520Y507920D1*
X1502143Y505975D1*
X1498552Y504460D1*
X1494802Y503398D1*
X1490950Y502805D1*
X1487055Y502689D1*
X1483175Y503054D1*
X1479369Y503892D1*
X1475694Y505191D1*
X1472208Y506933D1*
X1468962Y509089D1*
X1466005Y511628D1*
X1463354Y514552D1*
X1461754Y514094D1*
X1457836Y513525D1*
X1453880Y513708D1*
X1450031Y514636D1*
X1446427Y516276D1*
X1443199Y518568D1*
X1440463Y521430D1*
X1438318Y524758D1*
X1436841Y528432D1*
X1436087Y532319D1*
X1436081Y536278D1*
X1436825Y540167D1*
X1438292Y543845D1*
X1440428Y547179D1*
X1443156Y550048D1*
X1446378Y552349D1*
X1449978Y553999D1*
X1453824Y554937D1*
X1457779Y555131D1*
X1461699Y554573D1*
X1463289Y554025D1*
X1463430Y554200D1*
X1466059Y557077D1*
X1469021Y559609D1*
X1472272Y561758D1*
X1475763Y563491D1*
X1479440Y564782D1*
X1483248Y565611D1*
X1487129Y565966D1*
X1491025Y565842D1*
X1494875Y565239D1*
X1498622Y564169D1*
X1502210Y562645D1*
X1505582Y560693D1*
X1508690Y558340D1*
X1511484Y555624D1*
X1513924Y552585D1*
X1515972Y549269D1*
X1517596Y545727D1*
X1518774Y542011D1*
X1519485Y538180D1*
X1519720Y534327D1*
X1519476Y530400D1*
X1608925Y730108D2*
X1607804Y729718D1*
X1603885Y729150D1*
X1599930Y729333D1*
X1596709Y730109D1*
X1596730Y769795D2*
X1599874Y770562D1*
X1603829Y770756D1*
X1607749Y770198D1*
X1608922Y769793D1*
X1057438Y480466D2*
X1061209Y481588D1*
X1064681Y483430D1*
X1067722Y485921D1*
X1088442Y506639D1*
X1090794Y508002D1*
X1093783Y510599D1*
X1096226Y513714D1*
X1098036Y517236D1*
X1099146Y521037D1*
X1099517Y524979D1*
X1099135Y528920D1*
X1098533Y531277D1*
Y562692D1*
X1099146Y564788D1*
X1099517Y568730D1*
X1099135Y572671D1*
X1098533Y575030D1*
Y581442D1*
X1099146Y583539D1*
X1099517Y587481D1*
X1099135Y591422D1*
X1098533Y593777D1*
Y600190D1*
X1099146Y602287D1*
X1099517Y606229D1*
X1099135Y610170D1*
X1098533Y612524D1*
Y618941D1*
X1099146Y621038D1*
X1099517Y624980D1*
X1099135Y628921D1*
X1098015Y632718D1*
X1096196Y636235D1*
X1093744Y639344D1*
X1090748Y641933D1*
X1088245Y643458D1*
X1069377Y662327D1*
X1064255Y668209D1*
X1162281Y668208D1*
X1161173Y666647D1*
X1159325Y663215D1*
X1157913Y659583D1*
X1156958Y655804D1*
X1156474Y651937D1*
X1156470Y648040D1*
X1156944Y644172D1*
X1157890Y640391D1*
X1159294Y636755D1*
X1161134Y633320D1*
X1163382Y630136D1*
X1166004Y627253D1*
X1168960Y624714D1*
X1172207Y622557D1*
X1175693Y620816D1*
X1179367Y619516D1*
X1183173Y618678D1*
X1187054Y618314D1*
X1190949Y618430D1*
X1194801Y619023D1*
X1198551Y620085D1*
X1202141Y621600D1*
X1205519Y623544D1*
X1208632Y625889D1*
X1211433Y628599D1*
X1213880Y631632D1*
X1215935Y634944D1*
X1217568Y638482D1*
X1218754Y642195D1*
X1219475Y646025D1*
X1219719Y649951D1*
X1219484Y653804D1*
X1218772Y657636D1*
X1217595Y661351D1*
X1215970Y664894D1*
X1213922Y668209D1*
X1466066Y668208D1*
X1470929Y663345D1*
Y663101D1*
X1471684Y659214D1*
X1473160Y655540D1*
X1475305Y652212D1*
X1478042Y649351D1*
X1481270Y647058D1*
X1484874Y645418D1*
X1488723Y644490D1*
X1492678Y644307D1*
X1496596Y644876D1*
X1500336Y646176D1*
X1503763Y648160D1*
X1506751Y650757D1*
X1508927Y653472D1*
X1608061Y554337D1*
X1608561Y553858D1*
X1611760Y551580D1*
X1615419Y550155D1*
X1619316Y549671D1*
X1979501Y549672D1*
X1982525Y547525D1*
X1986128Y545886D1*
X1989978Y544957D1*
X1993933Y544774D1*
X1997851Y545343D1*
X2001591Y546643D1*
X2005017Y548628D1*
X2008006Y551225D1*
X2010449Y554340D1*
X2012259Y557862D1*
X2013369Y561663D1*
X2013740Y565605D1*
X2013358Y569545D1*
X2012769Y571544D1*
X2034029Y571548D1*
X2037052Y569401D1*
X2040656Y567761D1*
X2044505Y566833D1*
X2048460Y566650D1*
X2052379Y567218D1*
X2056119Y568519D1*
X2059545Y570503D1*
X2062534Y573100D1*
X2064977Y576216D1*
X2066786Y579737D1*
X2067897Y583538D1*
X2068268Y587480D1*
X2067886Y591421D1*
X2066765Y595218D1*
X2064946Y598735D1*
X2062494Y601844D1*
X2059499Y604433D1*
X2056067Y606408D1*
X2052323Y607698D1*
X2048404Y608256D1*
X2044449Y608062D1*
X2040602Y607123D1*
X2037003Y605474D1*
X2033996Y603357D1*
X1635277Y603359D1*
X1502437Y736198D1*
X1500355Y737951D1*
X1496891Y739800D1*
X1493075Y740744D1*
X1491176Y740857D1*
X1149693D1*
X1057873Y832680D1*
X1051011Y867739D1*
X1050890Y870746D1*
X1050417Y874675D1*
X1049634Y878553D1*
X1048545Y882357D1*
X1047157Y886063D1*
X1045479Y889647D1*
X1043522Y893086D1*
X1041298Y896358D1*
X1038821Y899444D1*
X1036107Y902323D1*
X1033172Y904977D1*
X1030036Y907390D1*
X1026718Y909545D1*
X1023239Y911431D1*
X1019621Y913034D1*
X1015888Y914345D1*
X1012062Y915354D1*
X1008168Y916057D1*
X1004231Y916448D1*
X1000274Y916525D1*
X996325Y916288D1*
X992406Y915737D1*
X988544Y914877D1*
X984762Y913713D1*
X981085Y912251D1*
X977536Y910503D1*
X974136Y908478D1*
X970909Y906189D1*
X967873Y903651D1*
X965048Y900880D1*
X962453Y897893D1*
X960103Y894709D1*
X958014Y891349D1*
X956198Y887834D1*
X954667Y884185D1*
X953431Y880426D1*
X952497Y876581D1*
X951872Y872674D1*
X951560Y868729D1*
X951561Y864772D1*
X951877Y860828D1*
X952506Y856921D1*
X953442Y853077D1*
X954682Y849319D1*
X956216Y845672D1*
X958034Y842158D1*
X960127Y838799D1*
X962479Y835618D1*
X965077Y832633D1*
X967904Y829864D1*
X970942Y827329D1*
X974171Y825043D1*
X977572Y823021D1*
X981123Y821275D1*
X984802Y819817D1*
X988585Y818656D1*
X992447Y817799D1*
X996366Y817252D1*
X1000476Y817015D1*
X1003153Y816491D1*
X1002210Y816527D1*
X1000242Y816524D1*
X998275Y816444D1*
X996313Y816286D1*
X994359Y816050D1*
X992416Y815737D1*
X988553Y814877D1*
X984772Y813713D1*
X981094Y812251D1*
X977545Y810503D1*
X974145Y808478D1*
X970918Y806189D1*
X967882Y803651D1*
X965058Y800880D1*
X962462Y797893D1*
X960112Y794709D1*
X958023Y791349D1*
X956207Y787834D1*
X954676Y784185D1*
X953440Y780426D1*
X952507Y776581D1*
X951881Y772674D1*
X951569Y768729D1*
X951570Y764772D1*
X951886Y760828D1*
X952515Y756921D1*
X953452Y753077D1*
X954691Y749319D1*
X956225Y745672D1*
X958044Y742158D1*
X960136Y738799D1*
X962488Y735618D1*
X965086Y732633D1*
X966215Y731527D1*
X963297Y730557D1*
X959932Y728527D1*
X958508Y727262D1*
X947106Y715857D1*
X692913D1*
X692910Y884046D1*
X809941D1*
X812653Y884279D1*
X816410Y885421D1*
X819775Y887451D1*
X821197Y888714D1*
X850902Y918421D1*
X1090855Y918419D1*
X1101819Y907455D1*
X1103901Y905702D1*
X1107365Y903853D1*
X1111181Y902909D1*
X1113079Y902796D1*
X1202668Y902793D1*
X1201662Y900208D1*
X1200707Y896429D1*
X1200224Y892562D1*
X1200219Y888665D1*
X1200694Y884796D1*
X1201640Y881016D1*
X1203043Y877380D1*
X1204883Y873944D1*
X1207131Y870761D1*
X1209753Y867878D1*
X1212710Y865339D1*
X1215956Y863182D1*
X1219443Y861441D1*
X1223117Y860141D1*
X1226923Y859303D1*
X1230803Y858939D1*
X1234698Y859054D1*
X1238550Y859647D1*
X1242300Y860710D1*
X1245891Y862224D1*
X1249268Y864169D1*
X1252381Y866514D1*
X1255182Y869224D1*
X1257629Y872257D1*
X1259684Y875568D1*
X1261318Y879107D1*
X1262503Y882819D1*
X1263224Y886649D1*
X1263469Y890576D1*
X1263233Y894429D1*
X1262522Y898261D1*
X1261344Y901976D1*
X1260968Y902796D1*
X1402778Y902798D1*
X1405802Y900651D1*
X1409405Y899012D1*
X1413254Y898083D1*
X1417210Y897900D1*
X1421128Y898469D1*
X1424868Y899769D1*
X1428294Y901754D1*
X1431283Y904351D1*
X1433726Y907466D1*
X1435536Y910988D1*
X1436646Y914788D1*
X1437017Y918730D1*
X1436635Y922671D1*
X1435515Y926469D1*
X1433696Y929986D1*
X1431244Y933095D1*
X1428248Y935684D1*
X1424816Y937659D1*
X1421073Y938948D1*
X1417153Y939507D1*
X1413198Y939313D1*
X1409352Y938374D1*
X1405752Y936724D1*
X1402744Y934608D1*
X1119652Y934610D1*
X1111292Y942970D1*
X1108196Y946045D1*
X1104997Y948323D1*
X1101338Y949748D1*
X1097441Y950232D1*
X848271D1*
X843635Y950218D1*
X839763Y949567D1*
X836168Y947987D1*
X833069Y945574D1*
X803353Y915857D1*
X692913Y915860D1*
X692912Y984046D1*
X1202668Y984043D1*
X1201662Y981457D1*
X1200707Y977678D1*
X1200224Y973811D1*
X1200219Y969914D1*
X1200694Y966046D1*
X1201640Y962265D1*
X1203043Y958629D1*
X1204883Y955194D1*
X1207131Y952010D1*
X1209753Y949127D1*
X1212710Y946588D1*
X1215956Y944431D1*
X1219443Y942690D1*
X1223117Y941390D1*
X1226923Y940552D1*
X1230803Y940188D1*
X1234698Y940304D1*
X1238550Y940897D1*
X1242300Y941959D1*
X1245891Y943474D1*
X1249268Y945418D1*
X1252381Y947763D1*
X1255182Y950473D1*
X1257629Y953506D1*
X1259684Y956818D1*
X1261318Y960356D1*
X1262503Y964069D1*
X1263224Y967899D1*
X1263469Y971825D1*
X1263233Y975678D1*
X1262522Y979510D1*
X1261344Y983225D1*
X1261016Y984046D1*
X1304196D1*
X1303076Y981965D1*
X1301664Y978332D1*
X1300709Y974554D1*
X1300225Y970687D1*
X1300220Y966789D1*
X1300695Y962921D1*
X1301641Y959140D1*
X1303045Y955505D1*
X1304884Y952069D1*
X1307132Y948886D1*
X1309754Y946002D1*
X1312711Y943463D1*
X1315957Y941307D1*
X1319444Y939565D1*
X1323118Y938266D1*
X1326924Y937428D1*
X1330804Y937063D1*
X1334700Y937179D1*
X1338552Y937772D1*
X1342301Y938834D1*
X1345892Y940349D1*
X1349269Y942294D1*
X1352382Y944639D1*
X1355183Y947348D1*
X1357630Y950382D1*
X1359686Y953693D1*
X1359990Y954353D1*
X1360030Y954357D1*
X1360131Y954333D1*
X1364086Y954150D1*
X1368005Y954718D1*
X1371745Y956019D1*
X1375171Y958003D1*
X1378160Y960600D1*
X1380603Y963716D1*
X1382412Y967237D1*
X1383523Y971038D1*
X1383894Y974980D1*
X1383512Y978921D1*
X1382391Y982718D1*
X1381802Y984046D1*
X1390278Y984048D1*
X1393302Y981901D1*
X1396905Y980261D1*
X1400754Y979333D1*
X1404710Y979150D1*
X1408628Y979718D1*
X1412368Y981019D1*
X1415794Y983003D1*
X1418783Y985600D1*
X1421226Y988716D1*
X1423036Y992237D1*
X1424146Y996038D1*
X1424517Y999980D1*
X1424135Y1003921D1*
X1423015Y1007718D1*
X1421196Y1011235D1*
X1418744Y1014344D1*
X1415748Y1016933D1*
X1412316Y1018908D1*
X1408573Y1020198D1*
X1404653Y1020756D1*
X1400698Y1020562D1*
X1396852Y1019623D1*
X1393252Y1017974D1*
X1390245Y1015857D1*
X1370421Y1015853D1*
X1371023Y1017913D1*
X1371394Y1021855D1*
X1371012Y1025796D1*
X1370327Y1028407D1*
X1371133Y1029014D1*
X1373934Y1031724D1*
X1376381Y1034757D1*
X1378436Y1038068D1*
X1380069Y1041607D1*
X1381255Y1045319D1*
X1381976Y1049149D1*
X1382220Y1053076D1*
X1381985Y1056929D1*
X1381274Y1060761D1*
X1380096Y1064476D1*
X1378472Y1068018D1*
X1376424Y1071334D1*
X1373984Y1074373D1*
X1371190Y1077090D1*
X1368082Y1079442D1*
X1364710Y1081395D1*
X1361122Y1082918D1*
X1357375Y1083989D1*
X1353525Y1084591D1*
X1349629Y1084716D1*
X1345748Y1084361D1*
X1341940Y1083531D1*
X1338263Y1082241D1*
X1334772Y1080508D1*
X1331521Y1078359D1*
X1328559Y1075827D1*
X1325930Y1072950D1*
X1323674Y1069771D1*
X1321826Y1066340D1*
X1320414Y1062708D1*
X1319459Y1058929D1*
X1318976Y1055062D1*
X1318971Y1051165D1*
X1319446Y1047296D1*
X1320392Y1043516D1*
X1321795Y1039880D1*
X1323635Y1036444D1*
X1325883Y1033261D1*
X1328505Y1030378D1*
X1330806Y1028401D1*
X1330838Y1028324D1*
X1330576Y1027667D1*
X1329832Y1023778D1*
X1329837Y1019819D1*
X1330592Y1015932D1*
X1330622Y1015857D1*
X692913Y1015854D1*
X692910Y1050621D1*
X889546Y1050641D1*
X889911Y1049926D1*
X892051Y1046629D1*
X894525Y1043573D1*
X897305Y1040793D1*
X900360Y1038318D1*
X903657Y1036177D1*
X907159Y1034392D1*
X910830Y1032983D1*
X914627Y1031965D1*
X918510Y1031349D1*
X922436Y1031143D1*
X926362Y1031348D1*
X930245Y1031963D1*
X934042Y1032980D1*
X937713Y1034389D1*
X941216Y1036173D1*
X944513Y1038314D1*
X947569Y1040788D1*
X950349Y1043567D1*
X952823Y1046622D1*
X954965Y1049919D1*
X956750Y1053422D1*
X958159Y1057092D1*
X959177Y1060889D1*
X959793Y1064772D1*
X959999Y1068702D1*
X959793Y1072624D1*
X959179Y1076507D1*
X958162Y1080305D1*
X956753Y1083975D1*
X954969Y1087478D1*
X952828Y1090776D1*
X950354Y1093831D1*
X949837Y1094390D1*
X2216881Y1094389D1*
Y1042009D1*
X2217431Y1040070D1*
X2218869Y1038657D1*
X2220818Y1038140D1*
X2333508Y1038141D1*
X2335447Y1038691D1*
X2336861Y1040129D1*
X2337377Y1042077D1*
Y1094390D1*
X3085734Y1094399D1*
X3085162Y1093826D1*
X3082687Y1090771D1*
X3080546Y1087474D1*
X3078761Y1083972D1*
X3077351Y1080302D1*
X3076333Y1076504D1*
X3075718Y1072621D1*
X3075512Y1068695D1*
X3075717Y1064769D1*
X3076332Y1060886D1*
X3077349Y1057089D1*
X3078757Y1053418D1*
X3080542Y1049915D1*
X3082683Y1046618D1*
X3085156Y1043563D1*
X3087936Y1040782D1*
X3090991Y1038308D1*
X3094288Y1036166D1*
X3097791Y1034381D1*
X3101461Y1032972D1*
X3105258Y1031954D1*
X3109141Y1031339D1*
X3113067Y1031133D1*
X3116993Y1031338D1*
X3120876Y1031953D1*
X3124674Y1032970D1*
X3128344Y1034378D1*
X3131847Y1036163D1*
X3135144Y1038303D1*
X3137795Y1040420D1*
X3137793Y459441D1*
X3135147Y461584D1*
X3131850Y463726D1*
X3128347Y465511D1*
X3124677Y466920D1*
X3120880Y467938D1*
X3116997Y468554D1*
X3113071Y468760D1*
X3109145Y468554D1*
X3105262Y467940D1*
X3101464Y466923D1*
X3097794Y465514D1*
X3094291Y463730D1*
X3090993Y461589D1*
X3087938Y459115D1*
X3085158Y456336D1*
X3082683Y453281D1*
X3080542Y449984D1*
X3078757Y446481D1*
X3077347Y442811D1*
X3076329Y439014D1*
X3075714Y435131D1*
X3075508Y431205D1*
X3075713Y427279D1*
X3076328Y423396D1*
X3077345Y419598D1*
X3078753Y415928D1*
X3080538Y412425D1*
X3082679Y409127D1*
X3085153Y406072D1*
X3085668Y405512D1*
X3039479D1*
Y475502D1*
X2928928D1*
X2928926Y405512D1*
X2337377Y405514D1*
X2337376Y457894D1*
X2336826Y459833D1*
X2335389Y461246D1*
X2333440Y461763D1*
X2220750Y461762D1*
X2218810Y461212D1*
X2217397Y459774D1*
X2216880Y457826D1*
X2216876Y405512D1*
X949788Y405515D1*
X950350Y406077D1*
X952825Y409132D1*
X954966Y412428D1*
X956751Y415931D1*
X958161Y419601D1*
X959178Y423399D1*
X959794Y427281D1*
X960000Y431211D1*
X959795Y435133D1*
X959180Y439017D1*
X958163Y442814D1*
X956754Y446484D1*
X954970Y449987D1*
X952829Y453285D1*
X950355Y456340D1*
X947576Y459121D1*
X944521Y461595D1*
X941224Y463736D1*
X937721Y465522D1*
X934051Y466931D1*
X930254Y467949D1*
X926371Y468564D1*
X922445Y468770D1*
X918519Y468565D1*
X914636Y467950D1*
X910838Y466933D1*
X907168Y465525D1*
X903665Y463740D1*
X900367Y461599D1*
X897312Y459126D1*
X894532Y456346D1*
X892057Y453291D1*
X889916Y449994D1*
X889544Y449266D1*
X850377Y449267D1*
X692913Y449278D1*
X692911Y480109D1*
X1053672D1*
X1057438Y480466D1*
X1465456Y846205D2*
X1466578Y842434D1*
X1468420Y838962D1*
X1470910Y835921D1*
X1566442Y740383D1*
X1568588Y737055D1*
X1571324Y734193D1*
X1574552Y731901D1*
X1578156Y730261D1*
X1582005Y729333D1*
X1585960Y729150D1*
X1589879Y729718D1*
X1591000Y730108D1*
X1596709Y730109D1*
X1599930Y729333D1*
X1603885Y729150D1*
X1607804Y729718D1*
X1609194Y730109D1*
X1613159D1*
X1616380Y729333D1*
X1620336Y729150D1*
X1624254Y729718D1*
X1625375Y730108D1*
X1730444Y730112D1*
X1729830Y726903D1*
X1729836Y722943D1*
X1730590Y719057D1*
X1732067Y715383D1*
X1734212Y712055D1*
X1736948Y709193D1*
X1740177Y706901D1*
X1743781Y705261D1*
X1747630Y704333D1*
X1751585Y704150D1*
X1755503Y704718D1*
X1759243Y706019D1*
X1762669Y708003D1*
X1764007Y709046D1*
X1786060Y709044D1*
X1792389Y702715D1*
X1792390Y702471D1*
X1793144Y698584D1*
X1794621Y694910D1*
X1796766Y691582D1*
X1799502Y688721D1*
X1802731Y686428D1*
X1806334Y684788D1*
X1810184Y683860D1*
X1814139Y683677D1*
X1818057Y684246D1*
X1821797Y685546D1*
X1825223Y687531D1*
X1828212Y690127D1*
X1830655Y693243D1*
X1832465Y696765D1*
X1833575Y700565D1*
X1833946Y704507D1*
X1833728Y707478D1*
X1845898Y695308D1*
X1848815Y692897D1*
X1852272Y691026D1*
X1856030Y689873D1*
X1859941Y689484D1*
X2147441D1*
X2150708Y689755D1*
X2154502Y690783D1*
X2158019Y692539D1*
X2161123Y694956D1*
X2163381Y697205D1*
X2232706Y766526D1*
X2256908Y766527D1*
X2260130Y765750D1*
X2264085Y765567D1*
X2268003Y766136D1*
X2269396Y766526D1*
X2369408Y766527D1*
X2372630Y765750D1*
X2376585Y765567D1*
X2380503Y766136D1*
X2381891Y766526D1*
X2521401Y766527D1*
X2527353Y764292D1*
X2527352Y758967D1*
X2286486D1*
X2284500Y760684D1*
X2281068Y762659D1*
X2277325Y763948D1*
X2273405Y764507D1*
X2269450Y764313D1*
X2265604Y763374D1*
X2262004Y761724D1*
X2258782Y759423D1*
X2256054Y756554D1*
X2253918Y753220D1*
X2252451Y749542D1*
X2251707Y745654D1*
X2251713Y741694D1*
X2252467Y737807D1*
X2253944Y734133D1*
X2256089Y730806D1*
X2258825Y727944D1*
X2262053Y725651D1*
X2265657Y724012D1*
X2269506Y723083D1*
X2273462Y722900D1*
X2277380Y723469D1*
X2281120Y724769D1*
X2284546Y726754D1*
X2285088Y727156D1*
X2527353D1*
X2527357Y715660D1*
X2254227Y715658D1*
X2248227Y721656D1*
X2249351Y723090D1*
X2251160Y726611D1*
X2252271Y730412D1*
X2252642Y734354D1*
X2252260Y738295D1*
X2251139Y742092D1*
X2249320Y745609D1*
X2246868Y748718D1*
X2243873Y751307D1*
X2240441Y753282D1*
X2236697Y754572D1*
X2232778Y755130D1*
X2228823Y754936D1*
X2224976Y753997D1*
X2221377Y752348D1*
X2218155Y750047D1*
X2215426Y747177D1*
X2213290Y743844D1*
X2211824Y740166D1*
X2211080Y736277D1*
X2211085Y732317D1*
X2211840Y728431D1*
X2213316Y724757D1*
X2215462Y721429D1*
X2215909Y720881D1*
Y715576D1*
X2216142Y712864D1*
X2217284Y709107D1*
X2219315Y705742D1*
X2220578Y704319D1*
X2236389Y688508D1*
X2238472Y686755D1*
X2241936Y684906D1*
X2245752Y683961D1*
X2247651Y683849D1*
X2527353Y683848D1*
Y630699D1*
X2630030D1*
Y717317D1*
X2630026Y760621D1*
X2630030Y764873D1*
Y847238D1*
X2630026Y890542D1*
X2630030Y894794D1*
Y973534D1*
Y1014558D1*
X2645778D1*
Y1085739D1*
X2566723D1*
Y1028652D1*
X2527353D1*
Y1018810D1*
X2391869D1*
X2387213Y1018795D1*
X2383340Y1018144D1*
X2379745Y1016564D1*
X2376647Y1014151D1*
X2336236Y973744D1*
X2335074Y973687D1*
X2331227Y972748D1*
X2327628Y971098D1*
X2324406Y968797D1*
X2321677Y965928D1*
X2319541Y962594D1*
X2318074Y958916D1*
X2317330Y955028D1*
X2317336Y951068D1*
X2318090Y947181D1*
X2319567Y943508D1*
X2321712Y940180D1*
X2324448Y937318D1*
X2327677Y935025D1*
X2331281Y933386D1*
X2335130Y932457D1*
X2339085Y932274D1*
X2343003Y932843D1*
X2346743Y934143D1*
X2350169Y936128D1*
X2353158Y938725D1*
X2355602Y941840D1*
X2357411Y945362D1*
X2358521Y949163D1*
X2358820Y951336D1*
X2394479Y986999D1*
X2527353D1*
X2527357Y942038D1*
X2527353Y937786D1*
X2527356Y932196D1*
X2355200D1*
X2350599Y932181D1*
X2346726Y931530D1*
X2343131Y929950D1*
X2340033Y927537D1*
X2292487Y879994D1*
X2291324Y879937D1*
X2287478Y878999D1*
X2283878Y877349D1*
X2280656Y875048D1*
X2277928Y872179D1*
X2275792Y868845D1*
X2274325Y865167D1*
X2273581Y861278D1*
X2273587Y857319D1*
X2274341Y853432D1*
X2275818Y849758D1*
X2277963Y846430D1*
X2280699Y843568D1*
X2283927Y841276D1*
X2287531Y839636D1*
X2291380Y838708D1*
X2295336Y838525D1*
X2299254Y839094D1*
X2302994Y840394D1*
X2306420Y842378D1*
X2309409Y844975D1*
X2311852Y848091D1*
X2313662Y851613D1*
X2314772Y855413D1*
X2315068Y857585D1*
X2357870Y900384D1*
X2527353D1*
X2527357Y855424D1*
X2527353Y851172D1*
X2527357Y845581D1*
X2503023D1*
X2498360Y845567D1*
X2494487Y844916D1*
X2490892Y843336D1*
X2487794Y840923D1*
X2478356Y831482D1*
X2329491Y831483D1*
X2328248Y832558D1*
X2324816Y834533D1*
X2321073Y835822D1*
X2317153Y836381D1*
X2313198Y836187D1*
X2309352Y835248D1*
X2305752Y833598D1*
X2302530Y831297D1*
X2299802Y828428D1*
X2297666Y825094D1*
X2296199Y821416D1*
X2295455Y817528D1*
X2295461Y813568D1*
X2296215Y809681D1*
X2297585Y806211D1*
X2269122D1*
X2267948Y806615D1*
X2264028Y807173D1*
X2260074Y806979D1*
X2256742Y806211D1*
X2224483D1*
X2221216Y805940D1*
X2217422Y804913D1*
X2213905Y803157D1*
X2210801Y800740D1*
X2208543Y798490D1*
X2139220Y729169D1*
X2111257D1*
X2111802Y729208D1*
X2112585Y729293D1*
X2113364Y729408D1*
X2114138Y729552D1*
X2114906Y729725D1*
X2115667Y729927D1*
X2116420Y730158D1*
X2117163Y730417D1*
X2117897Y730704D1*
X2118619Y731019D1*
X2122045Y733003D1*
X2125034Y735600D1*
X2127477Y738716D1*
X2129286Y742237D1*
X2130397Y746038D1*
X2130768Y749951D1*
X2130733Y751172D1*
X2133629Y751592D1*
X2137369Y752893D1*
X2140795Y754877D1*
X2143784Y757474D1*
X2146228Y760590D1*
X2148037Y764111D1*
X2149147Y767912D1*
X2149518Y771854D1*
X2149137Y775795D1*
X2148016Y779592D1*
X2146197Y783109D1*
X2144597Y785274D1*
Y824951D1*
X2144364Y827663D1*
X2143222Y831420D1*
X2141192Y834786D1*
X2139931Y836206D1*
X2089939Y886198D1*
X2087857Y887951D1*
X2084392Y889800D1*
X2080577Y890744D1*
X2078674Y890857D1*
X1841531Y890855D1*
X1800847Y931543D1*
Y980327D1*
X1817783Y1006088D1*
X1820006Y1008561D1*
X1822359Y1011683D1*
X1824436Y1014995D1*
X1826220Y1018473D1*
X1827699Y1022092D1*
X1828861Y1025824D1*
X1829698Y1029643D1*
X1830204Y1033519D1*
X1830374Y1037451D1*
X1830208Y1041331D1*
X1829707Y1045208D1*
X1828875Y1049027D1*
X1827717Y1052761D1*
X1826242Y1056382D1*
X1824462Y1059862D1*
X1822389Y1063177D1*
X1820039Y1066301D1*
X1817429Y1069211D1*
X1814579Y1071886D1*
X1811509Y1074307D1*
X1808242Y1076454D1*
X1804803Y1078313D1*
X1801217Y1079869D1*
X1797510Y1081111D1*
X1793711Y1082030D1*
X1789846Y1082619D1*
X1785945Y1082873D1*
X1782037Y1082792D1*
X1778150Y1082374D1*
X1774313Y1081624D1*
X1770555Y1080547D1*
X1766904Y1079151D1*
X1763386Y1077446D1*
X1760028Y1075445D1*
X1756854Y1073162D1*
X1753888Y1070616D1*
X1751152Y1067823D1*
X1748666Y1064806D1*
X1746449Y1061587D1*
X1744516Y1058188D1*
X1742883Y1054636D1*
X1741562Y1050957D1*
X1740561Y1047178D1*
X1739889Y1043327D1*
X1739551Y1039433D1*
X1739549Y1035523D1*
X1739883Y1031628D1*
X1740550Y1027776D1*
X1741546Y1023996D1*
X1742863Y1020316D1*
X1744492Y1016762D1*
X1746420Y1013361D1*
X1748634Y1010139D1*
X1751116Y1007119D1*
X1752164Y1005990D1*
X1769035Y980325D1*
X1769036Y938349D1*
X1714251Y993132D1*
X1724065Y1014403D1*
X1724436Y1014995D1*
X1726220Y1018473D1*
X1727699Y1022092D1*
X1728861Y1025824D1*
X1729698Y1029643D1*
X1730204Y1033519D1*
X1730374Y1037451D1*
X1730208Y1041331D1*
X1729707Y1045208D1*
X1728875Y1049027D1*
X1727717Y1052761D1*
X1726242Y1056382D1*
X1724462Y1059862D1*
X1722389Y1063177D1*
X1720039Y1066301D1*
X1717429Y1069211D1*
X1714579Y1071886D1*
X1711509Y1074307D1*
X1708242Y1076454D1*
X1704803Y1078313D1*
X1701217Y1079869D1*
X1697510Y1081111D1*
X1693711Y1082030D1*
X1689846Y1082619D1*
X1685945Y1082873D1*
X1682037Y1082792D1*
X1678150Y1082374D1*
X1674313Y1081624D1*
X1670555Y1080547D1*
X1666904Y1079151D1*
X1663386Y1077446D1*
X1660028Y1075445D1*
X1656854Y1073162D1*
X1653888Y1070616D1*
X1651152Y1067823D1*
X1648666Y1064806D1*
X1646449Y1061587D1*
X1644516Y1058188D1*
X1642883Y1054636D1*
X1641562Y1050957D1*
X1640561Y1047178D1*
X1639889Y1043327D1*
X1639551Y1039433D1*
X1639549Y1035523D1*
X1639883Y1031628D1*
X1640550Y1027776D1*
X1641546Y1023996D1*
X1642863Y1020316D1*
X1644492Y1016762D1*
X1646420Y1013361D1*
X1648634Y1010139D1*
X1651116Y1007119D1*
X1653849Y1004324D1*
X1656812Y1001773D1*
X1659983Y999487D1*
X1660583Y999129D1*
X1686096Y976302D1*
X1814679Y847718D1*
X1817935Y844483D1*
X1821134Y842205D1*
X1824793Y840780D1*
X1828690Y840295D1*
X2065852Y840297D1*
X2094035Y812115D1*
X2094033Y763253D1*
X2092995Y762059D1*
X2091010Y758634D1*
X2089709Y754894D1*
X2089139Y750976D1*
X2089321Y747021D1*
X2090249Y743171D1*
X2091888Y739567D1*
X2094179Y736338D1*
X2097040Y733601D1*
X2100368Y731455D1*
X2101074Y731107D1*
X2101792Y730785D1*
X2102523Y730491D1*
X2103264Y730224D1*
X2104014Y729986D1*
X2104773Y729776D1*
X2105539Y729595D1*
X2106312Y729443D1*
X2107089Y729321D1*
X2107871Y729228D1*
X2108577Y729169D1*
X2071811D1*
X2071809Y776239D1*
X2074254Y776594D1*
X2077994Y777894D1*
X2081420Y779878D1*
X2084409Y782475D1*
X2086852Y785591D1*
X2088662Y789113D1*
X2089772Y792913D1*
X2090143Y796855D1*
X2089761Y800796D1*
X2088641Y804594D1*
X2086821Y808110D1*
X2084370Y811219D1*
X2081374Y813808D1*
X2077942Y815783D1*
X2074199Y817073D1*
X2074080Y817090D1*
X2072305Y817580D1*
X2068401Y818066D1*
X2063829Y818072D1*
X2058024D1*
X2056851Y818476D1*
X2052931Y819034D1*
X2048976Y818840D1*
X2045832Y818073D1*
X2048976Y818840D1*
X2052931Y819034D1*
X2056851Y818476D1*
X2058024Y818072D1*
X2056851Y818476D1*
X2052931Y819034D1*
X2048976Y818840D1*
X2045644Y818072D1*
X2036363D1*
X2032590Y817713D1*
X2029383Y816811D1*
X2028102Y816499D1*
X2024503Y814849D1*
X2021281Y812548D1*
X2018552Y809679D1*
X2016416Y806345D1*
X2014950Y802667D1*
X2014206Y798778D1*
X2014211Y794819D1*
X2014966Y790932D1*
X2016442Y787258D1*
X2018588Y783930D1*
X2021324Y781068D1*
X2024552Y778776D1*
X2028156Y777136D1*
X2032005Y776208D1*
X2032125Y776202D1*
X2032123Y729169D1*
X1868159Y729170D1*
X1833347Y763982D1*
X1830845Y766101D1*
X1827436Y768057D1*
X1823708Y769302D1*
X1819803Y769788D1*
X1816076Y769794D1*
X1625372Y769793D1*
X1624199Y770198D1*
X1620279Y770756D1*
X1616324Y770562D1*
X1612988Y769794D1*
X1608922Y769793D1*
X1607749Y770198D1*
X1603829Y770756D1*
X1599874Y770562D1*
X1596537Y769794D1*
X1593158Y769796D1*
X1504784Y858168D1*
X1504781Y979813D1*
X1514238Y992018D1*
X1530374D1*
Y1082884D1*
X1439508D1*
Y992018D1*
X1455645Y992021D1*
X1465098Y979815D1*
Y849971D1*
X1465456Y846205D1*
X2314969Y857488D2*
X2314772Y855413D1*
X2313662Y851613D1*
X2311852Y848091D1*
X2309409Y844975D1*
X2306420Y842378D1*
X2302994Y840394D1*
X2299254Y839094D1*
X2295336Y838525D1*
X2291380Y838708D1*
X2287531Y839636D1*
X2283927Y841276D1*
X2280699Y843568D1*
X2277963Y846430D1*
X2275818Y849758D1*
X2274341Y853432D1*
X2273587Y857319D1*
X2273581Y861278D1*
X2274325Y865167D1*
X2275792Y868845D1*
X2277928Y872179D1*
X2280656Y875048D1*
X2283878Y877349D1*
X2287478Y878999D1*
X2291324Y879937D1*
X2292487Y879994D1*
X2527368Y872983D2*
X2630015D1*
X2566738Y475345D2*
X2645763D1*
X2606251Y431896D2*
Y518794D1*
X2566738Y1050148D2*
X2645763D1*
X2606251D2*
Y1085724D1*
X2928943Y1050148D2*
X3039464D1*
X2984203Y1014573D2*
Y1085724D1*
X2928943Y439912D2*
X3039464D1*
X2984203D2*
Y475487D1*
X1584941Y1082869D2*
Y992034D1*
X1539523Y1037451D2*
X1630359D1*
X1051033Y566772D2*
X951536D1*
X1001285Y616520D2*
Y566772D1*
D19*
X540576Y499951D3*
Y599951D3*
Y699951D3*
Y799951D3*
Y899951D3*
Y999951D3*
D20*
X2578692Y656448D3*
Y699755D3*
Y743062D3*
Y786369D3*
Y829676D3*
Y872983D3*
Y916290D3*
Y959597D3*
Y1002904D3*
D21*
X2606251Y475345D3*
D22*
Y1050148D3*
D23*
X2984203D3*
Y439912D3*
D24*
X1484941Y1037451D3*
D25*
X1584941D3*
X1684941D3*
X1784941D3*
X1884941D3*
X1984941D3*
D26*
X1001285Y566772D3*
D27*
Y666772D3*
X1001294Y766772D3*
X1001285Y866772D3*
D28*
X1331816Y968701D3*
X1350567Y1053076D3*
X1666190Y671827D3*
X1406816Y612451D3*
X1369316Y512451D3*
X1488067Y534327D3*
X1188066Y649951D3*
X1231815Y890576D3*
Y971825D3*
M02*
