G04 DipTrace 4.3.0.3*
G04 2 - Bottom.gbr*
%MOIN*%
G04 #@! TF.FileFunction,Copper,L2,Bot*
G04 #@! TF.Part,Single*
G04 #@! TA.AperFunction,Conductor*
%ADD15C,0.015748*%
G04 #@! TA.AperFunction,CopperBalancing*
%ADD17C,0.007874*%
%ADD19R,0.255906X0.070866*%
%ADD20R,0.07874X0.027559*%
%ADD21R,0.055118X0.062992*%
%ADD22R,0.055118X0.047244*%
%ADD23R,0.086614X0.047244*%
G04 #@! TA.AperFunction,ComponentPad*
%ADD24R,0.066929X0.066929*%
%ADD25C,0.066929*%
%ADD26R,0.070866X0.070866*%
%ADD27C,0.070866*%
G04 #@! TA.AperFunction,ViaPad*
%ADD31C,0.017717*%
%FSLAX26Y26*%
G04*
G70*
G90*
G75*
G01*
G04 Bottom*
%LPD*%
G36*
X2570129Y794243D2*
X2585877Y800148D1*
X2625247Y786369D1*
X2589814Y772589D1*
X2585877D1*
X2570129Y778495D1*
Y794243D1*
G37*
X1661921Y749951D2*
D15*
X1678371D1*
X1878371D1*
X1918996Y709327D1*
X2111024D1*
X2206496D1*
X2283538Y786369D1*
X2322121D1*
X2434621D1*
X2625247D1*
X1678371Y749951D2*
D3*
X1661921D2*
X1643996D1*
X2111024Y798230D2*
Y709327D1*
Y798230D2*
X2095399D1*
X2093996Y796827D1*
X2111024Y798230D2*
X2126969D1*
X2128371Y796827D1*
G36*
X1536122Y983908D2*
X1520571Y1003987D1*
Y1007333D1*
X1567421D1*
Y1003987D1*
X1551870Y983908D1*
X1536122D1*
G37*
X1543996Y1037451D2*
D15*
Y849951D1*
X1643996Y749951D1*
G36*
X743332Y492077D2*
X727584Y484203D1*
X714789D1*
Y515699D1*
X727584D1*
X743332Y507825D1*
Y492077D1*
G37*
X599631Y499951D2*
D15*
X1112747D1*
X1137745Y524950D1*
Y587453D1*
Y624951D1*
G36*
X1104173Y647389D2*
X1072449Y643314D1*
X1069196Y644719D1*
X1090622Y689460D1*
X1093875Y688055D1*
X1115308Y658524D1*
X1104173Y647389D1*
G37*
X1060340Y676614D2*
D15*
X1086083D1*
X1137745Y624951D1*
G36*
X743332Y592077D2*
X727584Y584203D1*
X714789D1*
Y615699D1*
X727584D1*
X743332Y607825D1*
Y592077D1*
G37*
X599631Y599951D2*
D15*
X922121D1*
G36*
X1106957Y750173D2*
X1072449Y743315D1*
X1069222Y744777D1*
X1090648Y789518D1*
X1093875Y788055D1*
X1112524Y755740D1*
X1106957Y750173D1*
G37*
X1060340Y776614D2*
D17*
X1086083D1*
X1156496Y706201D1*
X1593996D1*
X1734621Y565576D1*
X2051969D1*
G36*
X1097644Y833743D2*
X1060694Y841182D1*
X1058189Y843689D1*
X1093265Y878765D1*
X1095772Y876260D1*
X1103211Y839310D1*
X1097644Y833743D1*
G37*
X1060340Y876614D2*
D17*
X1212003Y724951D1*
X1597121D1*
X1734621Y587451D1*
X2106496D1*
G36*
X735458Y696014D2*
X727584Y692077D1*
X714789D1*
Y707825D1*
X727584D1*
X735458Y703888D1*
Y696014D1*
G37*
X599631Y699951D2*
D17*
X1006496D1*
X1031496Y724951D1*
X1090871D1*
X1128371Y687451D1*
X1584621D1*
X1614308Y657764D1*
X1809621Y724951D2*
X1851702D1*
X1872175Y704479D1*
G36*
X2578003Y833613D2*
X2585877Y837550D1*
X2589814D1*
Y821802D1*
X2585877D1*
X2578003Y825739D1*
Y833613D1*
G37*
X2625247Y829676D2*
D17*
X2558096D1*
X2543996Y815576D1*
X2375245D1*
G36*
X2578003Y703692D2*
X2585877Y707629D1*
X2589814D1*
Y691881D1*
X2585877D1*
X2578003Y695818D1*
Y703692D1*
G37*
X2625247Y699755D2*
D17*
X2306692D1*
X2290870Y715576D1*
Y734325D1*
G36*
X2578003Y1006841D2*
X2585877Y1010778D1*
X2589814D1*
Y995030D1*
X2585877D1*
X2578003Y998967D1*
Y1006841D1*
G37*
X2625247Y1002904D2*
D17*
X2446949D1*
X2397121Y953076D1*
G36*
X2578003Y920227D2*
X2585877Y924164D1*
X2589814D1*
Y908416D1*
X2585877D1*
X2578003Y912353D1*
Y920227D1*
G37*
X2625247Y916290D2*
D17*
X2410335D1*
X2353371Y859327D1*
G36*
X2578003Y746999D2*
X2585877Y750936D1*
X2589814D1*
Y735188D1*
X2585877D1*
X2578003Y739125D1*
Y746999D1*
G37*
X2625247Y743062D2*
D17*
X2340232D1*
X2339592Y743702D1*
X2331497D1*
G36*
X1840059Y983908D2*
X1820571Y1013552D1*
Y1016899D1*
X1867421D1*
Y1013552D1*
X1847933Y983908D1*
X1840059D1*
G37*
X1843996Y1037451D2*
D17*
Y924951D1*
X1893996Y874951D1*
X2137747D1*
X2187747Y824951D1*
Y771825D1*
G36*
X1753377Y985003D2*
X1726929Y1008667D1*
X1726249Y1011944D1*
X1771755Y1023088D1*
X1772434Y1019811D1*
X1758944Y990570D1*
X1753377Y985003D1*
G37*
X1743996Y1037451D2*
D17*
Y999950D1*
X1887745Y856201D1*
X2131497D1*
X2168996Y818702D1*
Y749951D1*
G36*
X735458Y896014D2*
X727584Y892077D1*
X714789D1*
Y907825D1*
X727584D1*
X735458Y903888D1*
Y896014D1*
G37*
X1475245Y918702D2*
D17*
X1172121D1*
X1147121Y943702D1*
X928371D1*
X884621Y899951D1*
X599631D1*
G36*
X735458Y996014D2*
X727584Y992077D1*
X714789D1*
Y1007825D1*
X727584D1*
X735458Y1003888D1*
Y996014D1*
G37*
X1462745Y999951D2*
D17*
X1290870D1*
X599631D1*
D31*
X1661921Y749951D3*
D3*
X2111024Y798230D3*
D3*
D3*
X2434621Y786369D3*
X2322121D3*
X1137745Y524950D3*
X2051969Y565576D3*
X2106496Y587451D3*
X1614308Y657764D3*
X1809621Y724951D3*
X1872175Y704479D3*
X2375245Y815576D3*
X2290870Y734325D3*
X2397121Y953076D3*
X2353371Y859327D3*
D3*
X2331497Y743702D3*
X2187747Y771825D3*
X2168996Y749951D3*
X1475245Y918702D3*
X1462745Y999951D3*
X1137745Y587453D3*
Y624951D3*
Y568702D3*
Y606201D3*
X1643996Y749951D3*
X1678371D3*
X2128371Y796827D3*
X2093996D3*
X2525247Y893702D3*
X2484621Y721827D3*
X2509621Y762451D3*
X2425247D3*
X3190871Y412451D3*
Y1087451D3*
X962745Y412451D3*
Y1087451D3*
X1972121Y784327D3*
X2150247Y587451D3*
X1972121Y606201D3*
X2140871Y743702D3*
X1231496Y940576D3*
X987745Y968702D3*
X840871Y846827D3*
X1240871D3*
X1518996Y806201D3*
X1665871D3*
X909621Y846827D3*
X1825247Y606201D3*
X2015871Y915576D3*
X1525247Y628076D3*
X1375247Y496827D3*
Y628076D3*
X909621Y749951D3*
X1218996Y612451D3*
Y496827D3*
X2231496Y1049951D3*
X3131496Y549951D3*
X2931496Y449951D3*
X2531496Y1049951D3*
X2731496D3*
X2831496D3*
X2931496D3*
X815871Y628076D3*
X3131496Y849951D3*
X2931496D3*
X2731496D3*
X2303371Y762451D3*
X2231496Y849951D3*
Y949951D3*
X2731496Y449951D3*
X2531496D3*
X909621Y649951D3*
X2131496Y449951D3*
X1931496D3*
X1731496D3*
X1531496D3*
X1631496Y549951D3*
X978371Y649951D3*
X2431496Y1049951D3*
X3031496Y549951D3*
Y849951D3*
X2831496D3*
Y749951D3*
X2631496Y549951D3*
X2531496D3*
X2731496D3*
X2531496Y649951D3*
X2831496Y449951D3*
X937745Y599951D3*
X2431496Y449951D3*
X2231496D3*
X2031496D3*
X1831496D3*
X1631496D3*
X978371Y599951D3*
X909621Y968702D3*
X2403371Y646827D3*
X2565871Y853076D3*
X2525247Y981201D3*
X2565871Y937451D3*
X840871Y468701D3*
Y1028076D3*
Y946827D3*
Y749951D3*
X978371D3*
X840871Y549951D3*
X900247Y524951D3*
X987745Y846827D3*
X762745Y1028076D3*
Y946827D3*
Y846827D3*
Y749951D3*
Y649951D3*
Y549951D3*
Y468702D3*
X2231496Y531201D3*
X2372121D3*
X1268996Y612451D3*
Y496827D3*
X1168996Y612451D3*
Y496827D3*
X1450247Y562451D3*
X1065871Y968702D3*
X1143996D3*
X1378371Y940576D3*
X1350247Y1021827D3*
X1722121Y724951D3*
X956600Y1086657D2*
D17*
X2275153D1*
X2397214D2*
X3196059D1*
X956600Y1078915D2*
X1497779D1*
X1590220D2*
X1624632D1*
X1663354D2*
X1724633D1*
X1763356D2*
X1824635D1*
X1863357D2*
X1924636D1*
X1963359D2*
X2024638D1*
X2063360D2*
X2275153D1*
X2397214D2*
X2612490D1*
X2693120D2*
X2974695D1*
X3086821D2*
X3196059D1*
X956608Y1071172D2*
X1497779D1*
X1590220D2*
X1612759D1*
X1675235D2*
X1712761D1*
X1775228D2*
X1812762D1*
X1875230D2*
X1912764D1*
X1975231D2*
X2012758D1*
X2075233D2*
X2275153D1*
X2397214D2*
X2612490D1*
X2693120D2*
X2974695D1*
X3086821D2*
X3196059D1*
X956608Y1063429D2*
X1497779D1*
X1590220D2*
X1605939D1*
X1682055D2*
X1705932D1*
X1782057D2*
X1805934D1*
X1882058D2*
X1905936D1*
X1982060D2*
X2005937D1*
X2082054D2*
X2275153D1*
X2397206D2*
X2612490D1*
X2693120D2*
X2974695D1*
X3086821D2*
X3196059D1*
X956608Y1055686D2*
X1497779D1*
X1590220D2*
X1601594D1*
X1686400D2*
X1701596D1*
X1786393D2*
X1801597D1*
X1886395D2*
X1901599D1*
X1986397D2*
X2001592D1*
X2086398D2*
X2275153D1*
X2397206D2*
X2612490D1*
X2693120D2*
X2974695D1*
X3086821D2*
X3196059D1*
X956615Y1047944D2*
X1497779D1*
X1590220D2*
X1599003D1*
X1688991D2*
X1699004D1*
X1788985D2*
X1799006D1*
X1888986D2*
X1899007D1*
X1988988D2*
X1999001D1*
X2088989D2*
X2275153D1*
X2397206D2*
X2612490D1*
X2693120D2*
X2974695D1*
X3086821D2*
X3196059D1*
X752760Y1040201D2*
X1497779D1*
X1590220D2*
X1597857D1*
X1690137D2*
X1697858D1*
X1790131D2*
X1797860D1*
X1890132D2*
X1897862D1*
X1990134D2*
X1997855D1*
X2090135D2*
X2612490D1*
X2693120D2*
X2974695D1*
X3086821D2*
X3196059D1*
X752760Y1032458D2*
X1497779D1*
X1590220D2*
X1598049D1*
X1689944D2*
X1698051D1*
X1789938D2*
X1798052D1*
X1889940D2*
X1898054D1*
X1989941D2*
X1998048D1*
X2089943D2*
X2612490D1*
X2693120D2*
X2974695D1*
X3086821D2*
X3196059D1*
X752760Y1024715D2*
X1497779D1*
X1590220D2*
X1599595D1*
X1688391D2*
X1699596D1*
X1788393D2*
X1799598D1*
X1888394D2*
X1899599D1*
X1988396D2*
X1999601D1*
X2088397D2*
X2573120D1*
X2693120D2*
X2974695D1*
X3086821D2*
X3196059D1*
X752760Y1016972D2*
X1449958D1*
X1475531D2*
X1497779D1*
X1590220D2*
X1602655D1*
X1685338D2*
X1702649D1*
X1785340D2*
X1802651D1*
X1885342D2*
X1902652D1*
X1985343D2*
X2002654D1*
X2085337D2*
X2438739D1*
X2693120D2*
X2974695D1*
X3086821D2*
X3196059D1*
X1482175Y1009230D2*
X1497779D1*
X1590220D2*
X1607607D1*
X1680386D2*
X1707601D1*
X1781518D2*
X1807603D1*
X1880390D2*
X1907604D1*
X1980391D2*
X2007606D1*
X2080385D2*
X2429996D1*
X2677372D2*
X3196059D1*
X1484305Y1001487D2*
X1497779D1*
X1590220D2*
X1615450D1*
X1672543D2*
X1715444D1*
X1777950D2*
X1813393D1*
X1874599D2*
X1915447D1*
X1972548D2*
X2015449D1*
X2072542D2*
X2422253D1*
X2677372D2*
X3196059D1*
X1483413Y993744D2*
X1497779D1*
X1590220D2*
X1630806D1*
X1657187D2*
X1724872D1*
X1774375D2*
X1818483D1*
X1869509D2*
X1930803D1*
X1957184D2*
X2030805D1*
X2057186D2*
X2414509D1*
X2677372D2*
X3196059D1*
X1478999Y986001D2*
X1518579D1*
X1569420D2*
X1733522D1*
X1781226D2*
X1823574D1*
X1864419D2*
X2406766D1*
X2453324D2*
X2573120D1*
X2677372D2*
X3196059D1*
X752760Y978259D2*
X1523369D1*
X1564629D2*
X1742181D1*
X1788969D2*
X1827303D1*
X1860689D2*
X2399023D1*
X2445581D2*
X2573120D1*
X2677372D2*
X3024761D1*
X3068251D2*
X3196059D1*
X752760Y970516D2*
X1523369D1*
X1564629D2*
X1750147D1*
X1796713D2*
X1827303D1*
X1860689D2*
X2384951D1*
X2437845D2*
X2573120D1*
X2677372D2*
X3014526D1*
X3078493D2*
X3196059D1*
X752760Y962773D2*
X1523369D1*
X1564629D2*
X1757890D1*
X1804456D2*
X1827303D1*
X1860689D2*
X2377900D1*
X2430102D2*
X2573120D1*
X2677372D2*
X3008475D1*
X3084537D2*
X3196059D1*
X752760Y955030D2*
X916416D1*
X1159071D2*
X1523369D1*
X1564629D2*
X1765633D1*
X1812199D2*
X1827303D1*
X1860689D2*
X2375601D1*
X2422359D2*
X2573120D1*
X2677372D2*
X3004714D1*
X3088297D2*
X3196059D1*
X752760Y947287D2*
X908673D1*
X1166815D2*
X1523369D1*
X1564629D2*
X1773377D1*
X1819943D2*
X1827303D1*
X1860689D2*
X2376331D1*
X2417914D2*
X2573120D1*
X2677372D2*
X3002646D1*
X3090366D2*
X3196059D1*
X752760Y939545D2*
X900930D1*
X1174558D2*
X1523369D1*
X1564629D2*
X1781120D1*
X1860689D2*
X2380499D1*
X2413739D2*
X2573120D1*
X2677372D2*
X3002023D1*
X3090996D2*
X3196059D1*
X752760Y931802D2*
X893186D1*
X1492225D2*
X1523369D1*
X1564629D2*
X1788863D1*
X1860689D2*
X2406028D1*
X2677372D2*
X3002777D1*
X3090235D2*
X3196059D1*
X752760Y924059D2*
X885451D1*
X932009D2*
X1143486D1*
X1496162D2*
X1523369D1*
X1564629D2*
X1796607D1*
X1868171D2*
X2394824D1*
X2677372D2*
X3004999D1*
X3088021D2*
X3196059D1*
X752760Y916316D2*
X877707D1*
X924266D2*
X1033658D1*
X1087021D2*
X1151222D1*
X1496724D2*
X1523369D1*
X1564629D2*
X1804350D1*
X1875914D2*
X2387081D1*
X2677372D2*
X3008936D1*
X3084076D2*
X3196059D1*
X916522Y908573D2*
X1024546D1*
X1096133D2*
X1158965D1*
X1494232D2*
X1523369D1*
X1564629D2*
X1812093D1*
X1883658D2*
X2379338D1*
X2677372D2*
X3015264D1*
X3077755D2*
X3196059D1*
X908779Y900831D2*
X1018802D1*
X1101877D2*
X1463760D1*
X1486727D2*
X1523369D1*
X1564629D2*
X1819837D1*
X1891401D2*
X2371594D1*
X2677372D2*
X3026160D1*
X3066851D2*
X3196059D1*
X901036Y893088D2*
X1015103D1*
X1105576D2*
X1523369D1*
X1564629D2*
X1827580D1*
X1899144D2*
X2363851D1*
X2410417D2*
X2573120D1*
X2677372D2*
X3196059D1*
X891701Y885345D2*
X1012965D1*
X1107721D2*
X1523369D1*
X1564629D2*
X1835323D1*
X2150636D2*
X2356108D1*
X2402674D2*
X2573120D1*
X2677372D2*
X3196059D1*
X752760Y877602D2*
X1012158D1*
X1108521D2*
X1523369D1*
X1564629D2*
X1843059D1*
X2158379D2*
X2342597D1*
X2394930D2*
X2573120D1*
X2677372D2*
X3196059D1*
X752760Y869860D2*
X1012635D1*
X1110059D2*
X1523369D1*
X1564629D2*
X1850802D1*
X2166123D2*
X2334616D1*
X2387187D2*
X2573120D1*
X2677372D2*
X3196059D1*
X752760Y862117D2*
X1014419D1*
X1111612D2*
X1523369D1*
X1564629D2*
X1858545D1*
X2173866D2*
X2331947D1*
X2379444D2*
X2573120D1*
X2677372D2*
X3196059D1*
X752760Y854374D2*
X1017694D1*
X1113173D2*
X1523369D1*
X1568420D2*
X1866289D1*
X2181609D2*
X2332355D1*
X2374392D2*
X2573120D1*
X2677372D2*
X3196059D1*
X752760Y846631D2*
X1022838D1*
X1114734D2*
X1523646D1*
X1576163D2*
X1874032D1*
X2189345D2*
X2336077D1*
X2370670D2*
X2573120D1*
X2677372D2*
X3196059D1*
X752760Y838888D2*
X1030851D1*
X1121347D2*
X1526737D1*
X1583907D2*
X2125531D1*
X2197088D2*
X2348580D1*
X2358159D2*
X2544031D1*
X2677372D2*
X3196059D1*
X752760Y831146D2*
X1046153D1*
X1129090D2*
X1533950D1*
X1591650D2*
X2133275D1*
X2203186D2*
X2360629D1*
X2677372D2*
X3196059D1*
X752760Y823403D2*
X1051959D1*
X1068728D2*
X1087576D1*
X1136833D2*
X1541693D1*
X1599393D2*
X2141010D1*
X2204439D2*
X2355154D1*
X2677372D2*
X3196059D1*
X752760Y815660D2*
X1032673D1*
X1088005D2*
X1098011D1*
X1144577D2*
X1549436D1*
X1607137D2*
X2084316D1*
X2138048D2*
X2148754D1*
X2204439D2*
X2353632D1*
X2677372D2*
X3196059D1*
X752760Y807917D2*
X1023953D1*
X1096725D2*
X1105754D1*
X1152320D2*
X1557180D1*
X1614880D2*
X2075581D1*
X2146783D2*
X2152306D1*
X2204439D2*
X2355093D1*
X2677372D2*
X3196059D1*
X752760Y800175D2*
X1018417D1*
X1102261D2*
X1113497D1*
X1160063D2*
X1564923D1*
X1622623D2*
X2072651D1*
X2204439D2*
X2268494D1*
X2677372D2*
X3196059D1*
X752760Y792432D2*
X1014865D1*
X1105952D2*
X1121241D1*
X1167807D2*
X1572666D1*
X1630366D2*
X2072851D1*
X2204439D2*
X2260751D1*
X2677372D2*
X3196059D1*
X752760Y784689D2*
X1012842D1*
X1110420D2*
X1128984D1*
X1175550D2*
X1580410D1*
X1638110D2*
X2076288D1*
X2146084D2*
X2152306D1*
X2204916D2*
X2253007D1*
X2677372D2*
X3196059D1*
X752760Y776946D2*
X1012150D1*
X1114895D2*
X1136727D1*
X1183285D2*
X1588153D1*
X1645853D2*
X2086999D1*
X2135365D2*
X2152306D1*
X2208722D2*
X2245264D1*
X2677372D2*
X3196059D1*
X752760Y769203D2*
X1012735D1*
X1119363D2*
X1144471D1*
X1191029D2*
X1595896D1*
X1883965D2*
X2090390D1*
X2131651D2*
X2152306D1*
X2209199D2*
X2237521D1*
X2677372D2*
X3196059D1*
X752760Y761461D2*
X1014642D1*
X1124515D2*
X1152214D1*
X1198772D2*
X1603639D1*
X1895715D2*
X2090390D1*
X2131651D2*
X2150853D1*
X2206600D2*
X2229777D1*
X2287478D2*
X2319829D1*
X2343165D2*
X2573120D1*
X2677372D2*
X3196059D1*
X752760Y753718D2*
X1018048D1*
X1132258D2*
X1159957D1*
X1206515D2*
X1611383D1*
X1903458D2*
X2090390D1*
X2131651D2*
X2147723D1*
X2198826D2*
X2222042D1*
X2299250D2*
X2312447D1*
X2677372D2*
X3196059D1*
X752760Y745975D2*
X1023384D1*
X1140001D2*
X1167700D1*
X1214259D2*
X1619126D1*
X1911194D2*
X2090390D1*
X2131651D2*
X2147762D1*
X2190229D2*
X2214299D1*
X2677372D2*
X3196059D1*
X752760Y738232D2*
X1021954D1*
X1147745D2*
X1175444D1*
X1606660D2*
X1625993D1*
X1918937D2*
X2090390D1*
X2131651D2*
X2150991D1*
X2186999D2*
X2206555D1*
X2264248D2*
X2269624D1*
X2677372D2*
X3196059D1*
X752760Y730490D2*
X1013750D1*
X1155488D2*
X1183187D1*
X1614865D2*
X1635797D1*
X1926680D2*
X2090390D1*
X2131651D2*
X2160795D1*
X2177195D2*
X2198812D1*
X2256505D2*
X2269609D1*
X2677372D2*
X3196059D1*
X752760Y722747D2*
X1006006D1*
X1163231D2*
X1190923D1*
X1622608D2*
X1788125D1*
X2248761D2*
X2272769D1*
X2308970D2*
X2573120D1*
X2677372D2*
X3196059D1*
X1630351Y715004D2*
X1790532D1*
X2241026D2*
X2274184D1*
X2677372D2*
X3196059D1*
X1638094Y707261D2*
X1797845D1*
X1821396D2*
X1846111D1*
X2233282D2*
X2276522D1*
X2677372D2*
X3196059D1*
X1645838Y699518D2*
X1851163D1*
X1893193D2*
X1899953D1*
X2225539D2*
X2283650D1*
X2677372D2*
X3196059D1*
X1653581Y691776D2*
X1854885D1*
X1889463D2*
X1908950D1*
X2216542D2*
X2291385D1*
X2677372D2*
X3196059D1*
X752760Y684033D2*
X1012735D1*
X1661324D2*
X1867427D1*
X1876922D2*
X2303496D1*
X2677372D2*
X3196059D1*
X752760Y676290D2*
X1012150D1*
X1669060D2*
X2573120D1*
X2677372D2*
X3196059D1*
X752760Y668547D2*
X1012842D1*
X1123607D2*
X1580240D1*
X1676803D2*
X2573120D1*
X2677372D2*
X3042693D1*
X3050319D2*
X3196059D1*
X752760Y660804D2*
X1014865D1*
X1130743D2*
X1587984D1*
X1684546D2*
X2573120D1*
X2677372D2*
X3020732D1*
X3072280D2*
X3196059D1*
X752760Y653062D2*
X1018417D1*
X1138487D2*
X1593236D1*
X1692290D2*
X2573120D1*
X2677372D2*
X3012258D1*
X3080754D2*
X3196059D1*
X752760Y645319D2*
X1023953D1*
X1146230D2*
X1596819D1*
X1700033D2*
X2573120D1*
X2677372D2*
X3007052D1*
X3085960D2*
X3196059D1*
X752760Y637576D2*
X1032666D1*
X1155096D2*
X1608399D1*
X1620216D2*
X1639342D1*
X1707776D2*
X2573120D1*
X2677372D2*
X3003884D1*
X3089128D2*
X3196059D1*
X752760Y629833D2*
X1051905D1*
X1068774D2*
X1104016D1*
X1158779D2*
X1647085D1*
X1715520D2*
X3002292D1*
X3090720D2*
X3196059D1*
X752760Y622091D2*
X1012150D1*
X1159164D2*
X1654828D1*
X1723263D2*
X3002115D1*
X3090904D2*
X3196059D1*
X752760Y614348D2*
X1012150D1*
X1108528D2*
X1117119D1*
X1158379D2*
X1662572D1*
X1731006D2*
X3003323D1*
X3089689D2*
X3196059D1*
X752760Y606605D2*
X1012150D1*
X1108528D2*
X1116135D1*
X1159356D2*
X1670307D1*
X1738750D2*
X2097526D1*
X2115464D2*
X3006052D1*
X3086959D2*
X3196059D1*
X752760Y598862D2*
X1012150D1*
X1108528D2*
X1117119D1*
X1158379D2*
X1678050D1*
X2124707D2*
X3010658D1*
X3082353D2*
X3196059D1*
X752760Y591119D2*
X1012150D1*
X1108528D2*
X1116458D1*
X1159033D2*
X1685794D1*
X2127783D2*
X3018056D1*
X3074956D2*
X3196059D1*
X752760Y583377D2*
X1012150D1*
X1108528D2*
X1116535D1*
X1158956D2*
X1693537D1*
X2127706D2*
X3032258D1*
X3060761D2*
X3196059D1*
X752760Y575634D2*
X1012150D1*
X1108528D2*
X1117119D1*
X1158372D2*
X1701280D1*
X2124430D2*
X3196059D1*
X752760Y567891D2*
X1012150D1*
X1108528D2*
X1116150D1*
X1159340D2*
X1709024D1*
X2073457D2*
X2098557D1*
X2114434D2*
X3196059D1*
X752760Y560148D2*
X1012150D1*
X1108528D2*
X1117119D1*
X1158372D2*
X1716767D1*
X2072865D2*
X3196059D1*
X752760Y552406D2*
X1012150D1*
X1108528D2*
X1117119D1*
X1158372D2*
X1724918D1*
X2068889D2*
X3196059D1*
X752760Y544663D2*
X1012150D1*
X1108528D2*
X1117119D1*
X1158372D2*
X3196059D1*
X752760Y536920D2*
X1012150D1*
X1108528D2*
X1117119D1*
X1158372D2*
X3196059D1*
X752760Y529177D2*
X1113121D1*
X1158925D2*
X3196059D1*
X752760Y521434D2*
X1105377D1*
X1159064D2*
X3196059D1*
X1156057Y513692D2*
X2612490D1*
X2693120D2*
X3196059D1*
X1147591Y505949D2*
X2612490D1*
X2693120D2*
X3196059D1*
X1139848Y498206D2*
X2612490D1*
X2693120D2*
X3196059D1*
X1132104Y490463D2*
X2612490D1*
X2693120D2*
X3196059D1*
X1123377Y482720D2*
X2612490D1*
X2693120D2*
X3196059D1*
X752760Y474978D2*
X2612490D1*
X2693120D2*
X2974695D1*
X3086821D2*
X3196059D1*
X752760Y467235D2*
X2612490D1*
X2693120D2*
X2974695D1*
X3086821D2*
X3196059D1*
X752760Y459492D2*
X2612490D1*
X2693120D2*
X2974695D1*
X3086821D2*
X3196059D1*
X956615Y451749D2*
X2275153D1*
X2397206D2*
X2612490D1*
X2693120D2*
X2974695D1*
X3086821D2*
X3196059D1*
X956608Y444007D2*
X2275153D1*
X2397206D2*
X2612490D1*
X2693120D2*
X2974695D1*
X3086821D2*
X3196059D1*
X956608Y436264D2*
X2275153D1*
X2397206D2*
X2612490D1*
X2693120D2*
X2974695D1*
X3086821D2*
X3196059D1*
X956608Y428521D2*
X2275153D1*
X2397214D2*
X2974695D1*
X3086821D2*
X3196059D1*
X956600Y420778D2*
X2275153D1*
X2397214D2*
X2974695D1*
X3086821D2*
X3196059D1*
X956600Y413035D2*
X2275153D1*
X2397214D2*
X2974695D1*
X3086821D2*
X3196059D1*
X2614591Y518810D2*
X2692333D1*
Y431880D1*
X2613278D1*
Y518810D1*
X2614591D1*
X2976795Y1085739D2*
X3086034D1*
Y1014558D1*
X2975483D1*
Y1085739D1*
X2976795D1*
X3090030Y621020D2*
X3089502Y617134D1*
X3088629Y613312D1*
X3087416Y609583D1*
X3085873Y605977D1*
X3084014Y602525D1*
X3081853Y599253D1*
X3079407Y596188D1*
X3076696Y593355D1*
X3073742Y590776D1*
X3070569Y588472D1*
X3067202Y586462D1*
X3063669Y584762D1*
X3059997Y583385D1*
X3056217Y582343D1*
X3052358Y581644D1*
X3048453Y581294D1*
X3044532Y581295D1*
X3040626Y581648D1*
X3036768Y582350D1*
X3032989Y583394D1*
X3029318Y584773D1*
X3025785Y586476D1*
X3022420Y588488D1*
X3019248Y590794D1*
X3016296Y593375D1*
X3013587Y596210D1*
X3011143Y599276D1*
X3008984Y602550D1*
X3007127Y606003D1*
X3005587Y609610D1*
X3004377Y613339D1*
X3003505Y617163D1*
X3002980Y621049D1*
X3002806Y624966D1*
X3002983Y628883D1*
X3003511Y632769D1*
X3004384Y636591D1*
X3005597Y640320D1*
X3007140Y643926D1*
X3008999Y647378D1*
X3011160Y650650D1*
X3013606Y653715D1*
X3016317Y656548D1*
X3019271Y659127D1*
X3022444Y661431D1*
X3025811Y663441D1*
X3029344Y665141D1*
X3033016Y666518D1*
X3036796Y667560D1*
X3040655Y668259D1*
X3044560Y668609D1*
X3048482Y668608D1*
X3052387Y668255D1*
X3056245Y667553D1*
X3060025Y666509D1*
X3063695Y665130D1*
X3067228Y663427D1*
X3070593Y661415D1*
X3073765Y659109D1*
X3076717Y656528D1*
X3079426Y653693D1*
X3081870Y650626D1*
X3084029Y647353D1*
X3085886Y643899D1*
X3087426Y640293D1*
X3088636Y636564D1*
X3089508Y632740D1*
X3090033Y628854D1*
X3090207Y624951D1*
X3090030Y621020D1*
Y935980D2*
X3089502Y932095D1*
X3088629Y928272D1*
X3087416Y924543D1*
X3085873Y920938D1*
X3084014Y917486D1*
X3081853Y914214D1*
X3079407Y911149D1*
X3076696Y908315D1*
X3073742Y905736D1*
X3070569Y903433D1*
X3067202Y901423D1*
X3063669Y899722D1*
X3059997Y898346D1*
X3056217Y897304D1*
X3052358Y896605D1*
X3048453Y896255D1*
X3044532Y896256D1*
X3040626Y896609D1*
X3036768Y897310D1*
X3032989Y898355D1*
X3029318Y899734D1*
X3025785Y901436D1*
X3022420Y903449D1*
X3019248Y905754D1*
X3016296Y908335D1*
X3013587Y911171D1*
X3011143Y914237D1*
X3008984Y917510D1*
X3007127Y920964D1*
X3005587Y924570D1*
X3004377Y928300D1*
X3003505Y932123D1*
X3002980Y936009D1*
X3002806Y939927D1*
X3002983Y943844D1*
X3003511Y947729D1*
X3004384Y951552D1*
X3005597Y955281D1*
X3007140Y958886D1*
X3008999Y962339D1*
X3011160Y965610D1*
X3013606Y968675D1*
X3016317Y971509D1*
X3019271Y974088D1*
X3022444Y976392D1*
X3025811Y978402D1*
X3029344Y980102D1*
X3033016Y981478D1*
X3036796Y982520D1*
X3040655Y983219D1*
X3044560Y983570D1*
X3048482Y983568D1*
X3052387Y983215D1*
X3056245Y982514D1*
X3060025Y981470D1*
X3063695Y980090D1*
X3067228Y978388D1*
X3070593Y976376D1*
X3073765Y974070D1*
X3076717Y971489D1*
X3079426Y968654D1*
X3081870Y965587D1*
X3084029Y962314D1*
X3085886Y958860D1*
X3087426Y955254D1*
X3088636Y951524D1*
X3089508Y947701D1*
X3090033Y943815D1*
X3090207Y939912D1*
X3090030Y935980D1*
X1689410Y1036139D2*
X1689354Y1034831D1*
X1689259Y1033525D1*
X1689127Y1032222D1*
X1688958Y1030924D1*
X1688751Y1029631D1*
X1688507Y1028344D1*
X1688226Y1027065D1*
X1687908Y1025795D1*
X1687554Y1024535D1*
X1687164Y1023285D1*
X1686738Y1022047D1*
X1686276Y1020821D1*
X1685779Y1019610D1*
X1685248Y1018413D1*
X1684682Y1017232D1*
X1684082Y1016068D1*
X1683450Y1014922D1*
X1682784Y1013794D1*
X1682086Y1012686D1*
X1681356Y1011599D1*
X1680596Y1010533D1*
X1679805Y1009489D1*
X1678984Y1008469D1*
X1678135Y1007473D1*
X1677256Y1006501D1*
X1676351Y1005556D1*
X1675418Y1004637D1*
X1674459Y1003745D1*
X1673475Y1002881D1*
X1672467Y1002046D1*
X1671435Y1001240D1*
X1670380Y1000464D1*
X1669303Y999719D1*
X1668205Y999006D1*
X1667087Y998324D1*
X1665950Y997675D1*
X1664795Y997059D1*
X1663622Y996476D1*
X1662433Y995927D1*
X1661229Y995413D1*
X1660010Y994934D1*
X1658778Y994490D1*
X1657534Y994082D1*
X1656278Y993710D1*
X1655013Y993374D1*
X1653738Y993075D1*
X1652455Y992813D1*
X1651165Y992588D1*
X1649869Y992400D1*
X1648569Y992249D1*
X1647264Y992136D1*
X1645957Y992061D1*
X1644648Y992023D1*
X1643338D1*
X1642030Y992061D1*
X1640722Y992136D1*
X1639418Y992250D1*
X1638117Y992400D1*
X1636821Y992588D1*
X1635531Y992814D1*
X1634249Y993076D1*
X1632974Y993376D1*
X1631708Y993712D1*
X1630453Y994084D1*
X1629209Y994492D1*
X1627977Y994936D1*
X1626758Y995415D1*
X1625554Y995930D1*
X1624365Y996478D1*
X1623193Y997061D1*
X1622037Y997677D1*
X1620900Y998327D1*
X1619782Y999009D1*
X1618684Y999722D1*
X1617608Y1000467D1*
X1616553Y1001243D1*
X1615521Y1002049D1*
X1614512Y1002884D1*
X1613528Y1003748D1*
X1612570Y1004641D1*
X1611637Y1005560D1*
X1610732Y1006506D1*
X1609854Y1007477D1*
X1609004Y1008473D1*
X1608184Y1009494D1*
X1607393Y1010537D1*
X1606632Y1011603D1*
X1605903Y1012691D1*
X1605205Y1013799D1*
X1604540Y1014927D1*
X1603907Y1016073D1*
X1603308Y1017237D1*
X1602742Y1018418D1*
X1602211Y1019615D1*
X1601714Y1020827D1*
X1601252Y1022052D1*
X1600826Y1023290D1*
X1600436Y1024540D1*
X1600082Y1025801D1*
X1599765Y1027071D1*
X1599484Y1028350D1*
X1599240Y1029637D1*
X1599034Y1030930D1*
X1598864Y1032228D1*
X1598732Y1033531D1*
X1598638Y1034837D1*
X1598582Y1036145D1*
X1598563Y1037454D1*
X1598582Y1038764D1*
X1598639Y1040072D1*
X1598733Y1041378D1*
X1598865Y1042681D1*
X1599034Y1043979D1*
X1599241Y1045272D1*
X1599485Y1046558D1*
X1599766Y1047837D1*
X1600084Y1049108D1*
X1600438Y1050368D1*
X1600828Y1051618D1*
X1601254Y1052856D1*
X1601716Y1054082D1*
X1602213Y1055293D1*
X1602744Y1056490D1*
X1603310Y1057671D1*
X1603910Y1058835D1*
X1604543Y1059981D1*
X1605208Y1061109D1*
X1605906Y1062217D1*
X1606636Y1063304D1*
X1607396Y1064370D1*
X1608187Y1065414D1*
X1609008Y1066434D1*
X1609858Y1067430D1*
X1610736Y1068402D1*
X1611641Y1069347D1*
X1612574Y1070266D1*
X1613533Y1071158D1*
X1614517Y1072022D1*
X1615525Y1072857D1*
X1616557Y1073663D1*
X1617612Y1074439D1*
X1618689Y1075184D1*
X1619787Y1075897D1*
X1620905Y1076579D1*
X1622042Y1077228D1*
X1623198Y1077844D1*
X1624370Y1078427D1*
X1625559Y1078976D1*
X1626764Y1079490D1*
X1627982Y1079969D1*
X1629214Y1080413D1*
X1630458Y1080821D1*
X1631714Y1081193D1*
X1632979Y1081529D1*
X1634254Y1081828D1*
X1635537Y1082090D1*
X1636827Y1082315D1*
X1638123Y1082503D1*
X1639424Y1082654D1*
X1640728Y1082767D1*
X1642035Y1082842D1*
X1643344Y1082880D1*
X1644654D1*
X1645963Y1082842D1*
X1647270Y1082766D1*
X1648574Y1082653D1*
X1649875Y1082503D1*
X1651171Y1082314D1*
X1652461Y1082089D1*
X1653744Y1081827D1*
X1655018Y1081527D1*
X1656284Y1081191D1*
X1657539Y1080819D1*
X1658783Y1080411D1*
X1660015Y1079967D1*
X1661234Y1079487D1*
X1662438Y1078973D1*
X1663627Y1078424D1*
X1664800Y1077842D1*
X1665955Y1077225D1*
X1667092Y1076576D1*
X1668210Y1075894D1*
X1669308Y1075181D1*
X1670384Y1074435D1*
X1671439Y1073660D1*
X1672471Y1072854D1*
X1673480Y1072018D1*
X1674464Y1071154D1*
X1675422Y1070262D1*
X1676355Y1069343D1*
X1677260Y1068397D1*
X1678138Y1067426D1*
X1678988Y1066430D1*
X1679809Y1065409D1*
X1680599Y1064365D1*
X1681360Y1063299D1*
X1682089Y1062212D1*
X1682787Y1061104D1*
X1683452Y1059976D1*
X1684085Y1058830D1*
X1684685Y1057666D1*
X1685250Y1056485D1*
X1685782Y1055288D1*
X1686278Y1054076D1*
X1686740Y1052851D1*
X1687166Y1051613D1*
X1687556Y1050363D1*
X1687910Y1049102D1*
X1688227Y1047832D1*
X1688508Y1046553D1*
X1688752Y1045266D1*
X1688959Y1043973D1*
X1689128Y1042675D1*
X1689260Y1041372D1*
X1689354Y1040066D1*
X1689410Y1038758D1*
X1689429Y1037451D1*
X1689410Y1036139D1*
X1989259Y1033519D2*
X1988753Y1029643D1*
X1987916Y1025824D1*
X1986754Y1022092D1*
X1985275Y1018473D1*
X1983491Y1014995D1*
X1981414Y1011683D1*
X1979061Y1008561D1*
X1976447Y1005654D1*
X1973594Y1002982D1*
X1970521Y1000565D1*
X1967252Y998422D1*
X1963811Y996567D1*
X1960223Y995015D1*
X1956514Y993777D1*
X1952714Y992863D1*
X1948848Y992278D1*
X1944947Y992028D1*
X1941039Y992115D1*
X1937152Y992537D1*
X1933317Y993291D1*
X1929560Y994373D1*
X1925910Y995773D1*
X1922394Y997482D1*
X1919038Y999487D1*
X1915867Y1001773D1*
X1912904Y1004324D1*
X1910171Y1007119D1*
X1907689Y1010139D1*
X1905476Y1013361D1*
X1903547Y1016762D1*
X1901918Y1020316D1*
X1900601Y1023996D1*
X1899605Y1027776D1*
X1898938Y1031628D1*
X1898604Y1035523D1*
X1898606Y1039433D1*
X1898945Y1043327D1*
X1899616Y1047178D1*
X1900617Y1050957D1*
X1901938Y1054636D1*
X1903571Y1058188D1*
X1905504Y1061587D1*
X1907721Y1064806D1*
X1910207Y1067823D1*
X1912943Y1070616D1*
X1915909Y1073162D1*
X1919083Y1075445D1*
X1922441Y1077446D1*
X1925959Y1079151D1*
X1929610Y1080547D1*
X1933368Y1081624D1*
X1937205Y1082374D1*
X1941092Y1082792D1*
X1945000Y1082873D1*
X1948901Y1082619D1*
X1952766Y1082030D1*
X1956565Y1081111D1*
X1960272Y1079869D1*
X1963858Y1078313D1*
X1967297Y1076454D1*
X1970564Y1074307D1*
X1973634Y1071886D1*
X1976484Y1069211D1*
X1979094Y1066301D1*
X1981444Y1063177D1*
X1983517Y1059862D1*
X1985298Y1056382D1*
X1986772Y1052761D1*
X1987930Y1049027D1*
X1988762Y1045208D1*
X1989263Y1041331D1*
X1989429Y1037451D1*
X1989259Y1033519D1*
X2089259D2*
X2088753Y1029643D1*
X2087916Y1025824D1*
X2086754Y1022092D1*
X2085275Y1018473D1*
X2083491Y1014995D1*
X2081414Y1011683D1*
X2079061Y1008561D1*
X2076447Y1005654D1*
X2073594Y1002982D1*
X2070521Y1000565D1*
X2067252Y998422D1*
X2063811Y996567D1*
X2060223Y995015D1*
X2056514Y993777D1*
X2052714Y992863D1*
X2048848Y992278D1*
X2044947Y992028D1*
X2041039Y992115D1*
X2037152Y992537D1*
X2033317Y993291D1*
X2029560Y994373D1*
X2025910Y995773D1*
X2022394Y997482D1*
X2019038Y999487D1*
X2015867Y1001773D1*
X2012904Y1004324D1*
X2010171Y1007119D1*
X2007689Y1010139D1*
X2005476Y1013361D1*
X2003547Y1016762D1*
X2001918Y1020316D1*
X2000601Y1023996D1*
X1999605Y1027776D1*
X1998938Y1031628D1*
X1998604Y1035523D1*
X1998606Y1039433D1*
X1998945Y1043327D1*
X1999616Y1047178D1*
X2000617Y1050957D1*
X2001938Y1054636D1*
X2003571Y1058188D1*
X2005504Y1061587D1*
X2007721Y1064806D1*
X2010207Y1067823D1*
X2012943Y1070616D1*
X2015909Y1073162D1*
X2019083Y1075445D1*
X2022441Y1077446D1*
X2025959Y1079151D1*
X2029610Y1080547D1*
X2033368Y1081624D1*
X2037205Y1082374D1*
X2041092Y1082792D1*
X2045000Y1082873D1*
X2048901Y1082619D1*
X2052766Y1082030D1*
X2056565Y1081111D1*
X2060272Y1079869D1*
X2063858Y1078313D1*
X2067297Y1076454D1*
X2070564Y1074307D1*
X2073634Y1071886D1*
X2076484Y1069211D1*
X2079094Y1066301D1*
X2081444Y1063177D1*
X2083517Y1059862D1*
X2085298Y1056382D1*
X2086772Y1052761D1*
X2087930Y1049027D1*
X2088762Y1045208D1*
X2089263Y1041331D1*
X2089429Y1037451D1*
X2089259Y1033519D1*
X1014251Y624016D2*
X1107742D1*
Y529212D1*
X1012939D1*
Y624016D1*
X1014251D1*
X1075072Y631584D2*
X1071959Y630659D1*
X1068124Y629856D1*
X1064236Y629373D1*
X1060322Y629213D1*
X1056407Y629376D1*
X1052520Y629862D1*
X1048686Y630668D1*
X1044931Y631787D1*
X1041282Y633212D1*
X1037763Y634934D1*
X1034398Y636941D1*
X1031211Y639219D1*
X1028222Y641752D1*
X1025453Y644523D1*
X1022922Y647514D1*
X1020647Y650703D1*
X1018643Y654069D1*
X1016924Y657590D1*
X1015501Y661240D1*
X1014384Y664995D1*
X1013582Y668830D1*
X1013099Y672718D1*
X1012938Y676632D1*
X1013102Y680547D1*
X1013588Y684434D1*
X1013889Y685868D1*
X1011050Y684712D1*
X1007173Y684061D1*
X998647Y684046D1*
X751965D1*
X751969Y658895D1*
Y519797D1*
X812240Y519794D1*
X1104528D1*
X1117906Y533172D1*
X1117903Y562379D1*
X1117770Y562807D1*
X1117016Y566694D1*
X1117010Y570654D1*
X1117754Y574542D1*
X1117902Y574912D1*
X1117903Y581126D1*
X1117770Y581558D1*
X1117016Y585445D1*
X1117010Y589404D1*
X1117754Y593293D1*
X1117902Y593663D1*
X1117903Y599873D1*
X1117770Y600306D1*
X1117016Y604193D1*
X1117010Y608152D1*
X1117754Y612041D1*
X1117902Y612411D1*
X1117903Y616736D1*
X1099869Y634766D1*
X1075194Y631600D1*
X1112727Y480109D2*
X751966D1*
X751969Y459127D1*
X951890Y459125D1*
X953839Y458609D1*
X955276Y457195D1*
X955826Y455254D1*
X955809Y405508D1*
X1006980Y405512D1*
X2275939D1*
X2275945Y455188D1*
X2276461Y457137D1*
X2277875Y458575D1*
X2279817Y459124D1*
X2392480Y459125D1*
X2394429Y458609D1*
X2395867Y457195D1*
X2396416Y455254D1*
X2396431Y405511D1*
X2975483Y405512D1*
Y475502D1*
X3086034D1*
Y405512D1*
X3196850D1*
Y1094400D1*
X2396432Y1094390D1*
X2396417Y1044714D1*
X2395901Y1042765D1*
X2394487Y1041328D1*
X2392545Y1040779D1*
X2279882Y1040778D1*
X2277933Y1041294D1*
X2276495Y1042707D1*
X2275946Y1044649D1*
X2275936Y1094392D1*
X2177519Y1094390D1*
X955812D1*
X955827Y1044717D1*
X955311Y1042768D1*
X953899Y1041329D1*
X951957Y1040779D1*
X751969Y1040778D1*
Y1015860D1*
X820094Y1015857D1*
X1449300D1*
X1452307Y1017974D1*
X1455907Y1019623D1*
X1459753Y1020562D1*
X1463708Y1020756D1*
X1467628Y1020198D1*
X1471371Y1018908D1*
X1474803Y1016933D1*
X1477799Y1014344D1*
X1480251Y1011235D1*
X1482070Y1007718D1*
X1483190Y1003921D1*
X1483572Y999951D1*
X1483201Y996038D1*
X1482091Y992237D1*
X1480281Y988716D1*
X1477838Y985600D1*
X1474849Y983003D1*
X1471423Y981019D1*
X1467683Y979718D1*
X1463765Y979150D1*
X1459810Y979333D1*
X1455960Y980261D1*
X1452357Y981901D1*
X1449333Y984048D1*
X995604Y984046D1*
X751967D1*
X751969Y915858D1*
X878030Y915857D1*
X917124Y954949D1*
X920223Y957362D1*
X923818Y958942D1*
X927694Y959593D1*
X936215Y959608D1*
X1147121D1*
X1151018Y959123D1*
X1154677Y957698D1*
X1157878Y955417D1*
X1163652Y949665D1*
X1178710Y934607D1*
X1461798Y934608D1*
X1464807Y936724D1*
X1468407Y938374D1*
X1472253Y939313D1*
X1476208Y939507D1*
X1480128Y938948D1*
X1483871Y937659D1*
X1487303Y935684D1*
X1490299Y933095D1*
X1492751Y929986D1*
X1494570Y926469D1*
X1495690Y922671D1*
X1496072Y918702D1*
X1495701Y914788D1*
X1494591Y910988D1*
X1492781Y907466D1*
X1490338Y904351D1*
X1487349Y901754D1*
X1483923Y899769D1*
X1480183Y898469D1*
X1476265Y897900D1*
X1472310Y898083D1*
X1468460Y899012D1*
X1464857Y900651D1*
X1461833Y902798D1*
X1172135Y902797D1*
X1170232Y902909D1*
X1166420Y903853D1*
X1162956Y905703D1*
X1160874Y907455D1*
X1140531Y927798D1*
X934957Y927797D1*
X895878Y888714D1*
X894452Y887448D1*
X891089Y885421D1*
X887332Y884279D1*
X884621Y884046D1*
X751968D1*
X751969Y715857D1*
X999909D1*
X1020239Y736188D1*
X1021664Y737454D1*
X1025027Y739482D1*
X1028787Y740624D1*
X1029434Y740725D1*
X1028222Y741752D1*
X1025453Y744523D1*
X1022922Y747514D1*
X1020647Y750703D1*
X1018643Y754069D1*
X1016924Y757590D1*
X1015501Y761240D1*
X1014384Y764995D1*
X1013582Y768830D1*
X1013099Y772718D1*
X1012938Y776632D1*
X1013102Y780547D1*
X1013588Y784434D1*
X1014393Y788268D1*
X1015513Y792023D1*
X1016938Y795672D1*
X1018660Y799191D1*
X1020667Y802556D1*
X1022945Y805743D1*
X1025478Y808732D1*
X1028249Y811501D1*
X1031240Y814032D1*
X1034429Y816307D1*
X1037795Y818311D1*
X1041316Y820031D1*
X1044966Y821453D1*
X1048721Y822570D1*
X1052556Y823372D1*
X1056444Y823855D1*
X1060358Y824016D1*
X1064272Y823852D1*
X1068160Y823366D1*
X1071994Y822561D1*
X1075748Y821442D1*
X1079398Y820016D1*
X1082917Y818294D1*
X1086281Y816287D1*
X1089469Y814010D1*
X1092457Y811476D1*
X1095227Y808705D1*
X1097758Y805714D1*
X1100033Y802525D1*
X1102037Y799159D1*
X1103756Y795639D1*
X1104669Y793297D1*
X1122100Y763091D1*
X1163086Y722105D1*
X1192356Y722106D1*
X1091738Y822722D1*
X1059468Y829221D1*
X1056407Y829376D1*
X1052520Y829862D1*
X1048686Y830668D1*
X1044931Y831787D1*
X1041282Y833212D1*
X1037763Y834934D1*
X1034398Y836941D1*
X1031211Y839219D1*
X1028222Y841752D1*
X1025453Y844523D1*
X1022922Y847514D1*
X1020647Y850703D1*
X1018643Y854069D1*
X1016924Y857590D1*
X1015501Y861240D1*
X1014384Y864995D1*
X1013582Y868830D1*
X1013099Y872718D1*
X1012938Y876632D1*
X1013102Y880547D1*
X1013588Y884434D1*
X1014393Y888268D1*
X1015513Y892023D1*
X1016938Y895672D1*
X1018660Y899191D1*
X1020667Y902556D1*
X1022945Y905743D1*
X1025478Y908732D1*
X1028249Y911501D1*
X1031240Y914032D1*
X1034429Y916307D1*
X1037795Y918311D1*
X1041316Y920031D1*
X1044966Y921453D1*
X1048721Y922570D1*
X1052556Y923372D1*
X1056444Y923855D1*
X1060358Y924016D1*
X1064272Y923852D1*
X1068160Y923366D1*
X1071994Y922561D1*
X1075748Y921442D1*
X1079398Y920016D1*
X1082917Y918294D1*
X1086281Y916287D1*
X1089469Y914010D1*
X1092457Y911476D1*
X1095227Y908705D1*
X1097758Y905714D1*
X1100033Y902525D1*
X1102037Y899159D1*
X1103756Y895639D1*
X1105179Y891988D1*
X1106295Y888233D1*
X1107098Y884398D1*
X1107581Y880510D1*
X1107698Y877661D1*
X1114231Y845215D1*
X1218589Y740859D1*
X1570263Y740857D1*
X1597105D1*
X1599010Y740744D1*
X1602821Y739800D1*
X1606286Y737951D1*
X1608368Y736198D1*
X1741207Y603359D1*
X1998419Y603357D1*
X2093050D1*
X2096058Y605474D1*
X2099657Y607123D1*
X2103504Y608062D1*
X2107459Y608256D1*
X2111379Y607698D1*
X2115122Y606408D1*
X2118554Y604433D1*
X2121549Y601844D1*
X2124001Y598735D1*
X2125820Y595218D1*
X2126941Y591421D1*
X2127323Y587451D1*
X2126952Y583538D1*
X2125842Y579737D1*
X2124032Y576216D1*
X2121589Y573100D1*
X2118600Y570503D1*
X2115174Y568519D1*
X2111434Y567218D1*
X2107515Y566650D1*
X2103560Y566833D1*
X2099711Y567761D1*
X2096107Y569401D1*
X2093084Y571548D1*
X2071824Y571544D1*
X2072414Y569545D1*
X2072795Y565576D1*
X2072424Y561663D1*
X2071314Y557862D1*
X2069504Y554340D1*
X2067061Y551225D1*
X2064072Y548628D1*
X2060646Y546643D1*
X2056906Y545343D1*
X2052988Y544774D1*
X2049033Y544957D1*
X2045184Y545886D1*
X2041580Y547525D1*
X2038556Y549672D1*
X1823689Y549671D1*
X1734621D1*
X1730724Y550155D1*
X1727064Y551580D1*
X1723863Y553861D1*
X1723366Y554337D1*
X1631577Y646126D1*
X1629401Y643412D1*
X1626412Y640815D1*
X1622986Y638831D1*
X1619246Y637531D1*
X1615328Y636962D1*
X1611373Y637145D1*
X1607523Y638073D1*
X1603920Y639713D1*
X1600691Y642005D1*
X1597955Y644867D1*
X1595810Y648195D1*
X1594333Y651869D1*
X1593579Y655756D1*
X1593578Y655999D1*
X1578031Y671547D1*
X1128371Y671546D1*
X1124474Y672031D1*
X1120815Y673455D1*
X1120132Y673847D1*
X1119469Y674271D1*
X1118827Y674728D1*
X1118209Y675216D1*
X1117586Y675762D1*
X1124438Y666321D1*
X1147501Y643258D1*
X1149803Y641933D1*
X1152799Y639344D1*
X1155251Y636235D1*
X1157070Y632718D1*
X1158190Y628921D1*
X1158572Y624951D1*
X1158201Y621038D1*
X1157589Y618941D1*
X1157588Y612524D1*
X1158190Y610170D1*
X1158572Y606201D1*
X1158201Y602287D1*
X1157589Y600190D1*
X1157587Y593466D1*
X1158190Y591422D1*
X1158572Y587453D1*
X1158201Y583539D1*
X1157589Y581442D1*
X1157588Y575030D1*
X1158190Y572671D1*
X1158572Y568702D1*
X1158201Y564788D1*
X1157589Y562692D1*
X1157588Y531277D1*
X1158190Y528920D1*
X1158572Y524950D1*
X1158201Y521037D1*
X1157091Y517236D1*
X1155281Y513714D1*
X1152838Y510599D1*
X1149849Y508002D1*
X1147497Y506639D1*
X1126778Y485921D1*
X1123737Y483430D1*
X1120264Y481588D1*
X1116493Y480466D1*
X1112727Y480109D1*
X1667980Y730108D2*
X1666859Y729718D1*
X1662941Y729150D1*
X1658985Y729333D1*
X1655764Y730109D1*
X1655785Y769795D2*
X1658929Y770562D1*
X1662884Y770756D1*
X1666804Y770198D1*
X1667977Y769793D1*
X1524511Y846205D2*
X1525633Y842434D1*
X1527475Y838962D1*
X1529965Y835921D1*
X1625498Y740383D1*
X1627643Y737055D1*
X1630379Y734193D1*
X1633607Y731901D1*
X1637211Y730261D1*
X1641060Y729333D1*
X1645015Y729150D1*
X1648934Y729718D1*
X1650055Y730108D1*
X1655764Y730109D1*
X1658985Y729333D1*
X1662941Y729150D1*
X1666859Y729718D1*
X1668250Y730109D1*
X1672214D1*
X1675436Y729333D1*
X1679391Y729150D1*
X1683309Y729718D1*
X1684430Y730108D1*
X1789500Y730112D1*
X1788886Y726903D1*
X1788891Y722943D1*
X1789646Y719057D1*
X1791122Y715383D1*
X1793267Y712055D1*
X1796004Y709193D1*
X1799232Y706901D1*
X1802836Y705261D1*
X1806685Y704333D1*
X1810640Y704150D1*
X1814558Y704718D1*
X1818298Y706019D1*
X1821725Y708003D1*
X1823062Y709046D1*
X1845115Y709044D1*
X1851444Y702715D1*
X1851445Y702471D1*
X1852199Y698584D1*
X1853676Y694910D1*
X1855821Y691582D1*
X1858557Y688721D1*
X1861786Y686428D1*
X1865390Y684788D1*
X1869239Y683860D1*
X1873194Y683677D1*
X1877112Y684246D1*
X1880852Y685546D1*
X1884278Y687531D1*
X1887267Y690127D1*
X1889710Y693243D1*
X1891520Y696765D1*
X1892630Y700565D1*
X1893001Y704507D1*
X1892783Y707478D1*
X1904953Y695308D1*
X1907870Y692897D1*
X1911327Y691026D1*
X1915085Y689873D1*
X1918996Y689484D1*
X2206496D1*
X2209764Y689755D1*
X2213557Y690783D1*
X2217074Y692539D1*
X2220178Y694956D1*
X2222436Y697205D1*
X2291761Y766526D1*
X2315964Y766527D1*
X2319185Y765750D1*
X2323140Y765567D1*
X2327058Y766136D1*
X2328451Y766526D1*
X2428464Y766527D1*
X2431685Y765750D1*
X2435640Y765567D1*
X2439558Y766136D1*
X2440946Y766526D1*
X2567956Y766527D1*
X2573908Y764292D1*
X2573910Y758967D1*
X2345541D1*
X2343555Y760684D1*
X2340123Y762659D1*
X2336380Y763948D1*
X2332460Y764507D1*
X2328505Y764313D1*
X2324659Y763374D1*
X2321059Y761724D1*
X2317837Y759423D1*
X2315109Y756554D1*
X2312973Y753220D1*
X2311506Y749542D1*
X2310762Y745654D1*
X2310768Y741694D1*
X2311522Y737807D1*
X2312999Y734133D1*
X2315144Y730806D1*
X2317880Y727944D1*
X2321109Y725651D1*
X2324712Y724012D1*
X2328562Y723083D1*
X2332517Y722900D1*
X2336435Y723469D1*
X2340175Y724769D1*
X2343601Y726754D1*
X2344148Y727156D1*
X2573908Y727155D1*
X2573906Y715660D1*
X2313282Y715658D1*
X2307282Y721656D1*
X2308406Y723090D1*
X2310216Y726611D1*
X2311326Y730412D1*
X2311697Y734354D1*
X2311315Y738295D1*
X2310194Y742092D1*
X2308375Y745609D1*
X2305924Y748718D1*
X2302928Y751307D1*
X2299496Y753282D1*
X2295753Y754572D1*
X2291833Y755130D1*
X2287878Y754936D1*
X2284031Y753997D1*
X2280432Y752348D1*
X2277210Y750047D1*
X2274482Y747177D1*
X2272346Y743844D1*
X2270879Y740166D1*
X2270135Y736277D1*
X2270140Y732317D1*
X2270895Y728431D1*
X2272372Y724757D1*
X2274517Y721429D1*
X2274964Y720881D1*
Y715576D1*
X2275197Y712864D1*
X2276339Y709107D1*
X2278370Y705742D1*
X2279633Y704319D1*
X2295445Y688508D1*
X2297527Y686755D1*
X2300991Y684906D1*
X2304807Y683962D1*
X2306709Y683849D1*
X2573908Y683848D1*
Y630699D1*
X2676585D1*
Y717317D1*
X2676582Y760621D1*
X2676585Y764873D1*
Y847238D1*
X2676582Y890542D1*
X2676585Y894794D1*
Y973534D1*
Y1014558D1*
X2692334D1*
Y1085739D1*
X2613278D1*
Y1028652D1*
X2573908D1*
X2573906Y1018810D1*
X2450825D1*
X2446268Y1018795D1*
X2442395Y1018144D1*
X2438800Y1016564D1*
X2435702Y1014151D1*
X2395291Y973744D1*
X2394129Y973687D1*
X2390282Y972748D1*
X2386683Y971098D1*
X2383461Y968797D1*
X2380732Y965928D1*
X2378596Y962594D1*
X2377130Y958916D1*
X2376386Y955028D1*
X2376391Y951068D1*
X2377146Y947181D1*
X2378622Y943508D1*
X2380767Y940180D1*
X2383504Y937318D1*
X2386732Y935025D1*
X2390336Y933386D1*
X2394185Y932457D1*
X2398140Y932274D1*
X2402058Y932843D1*
X2405798Y934143D1*
X2409225Y936128D1*
X2412213Y938725D1*
X2414657Y941840D1*
X2416466Y945362D1*
X2417576Y949163D1*
X2417875Y951337D1*
X2453536Y986999D1*
X2573908D1*
X2573912Y942038D1*
X2573908Y937786D1*
X2573910Y932196D1*
X2414172D1*
X2409654Y932181D1*
X2405781Y931530D1*
X2402186Y929950D1*
X2399088Y927537D1*
X2351542Y879994D1*
X2350379Y879937D1*
X2346533Y878999D1*
X2342933Y877349D1*
X2339711Y875048D1*
X2336983Y872179D1*
X2334847Y868845D1*
X2333380Y865167D1*
X2332636Y861278D1*
X2332642Y857319D1*
X2333396Y853432D1*
X2334873Y849758D1*
X2337018Y846430D1*
X2339754Y843568D1*
X2342983Y841276D1*
X2346586Y839636D1*
X2350436Y838708D1*
X2354391Y838525D1*
X2358309Y839094D1*
X2362049Y840394D1*
X2365475Y842378D1*
X2368464Y844975D1*
X2370907Y848091D1*
X2372717Y851613D1*
X2373827Y855413D1*
X2374123Y857585D1*
X2416919Y900384D1*
X2573908D1*
X2573912Y855424D1*
X2573908Y851172D1*
X2573910Y845581D1*
X2561826D1*
X2557415Y845567D1*
X2553542Y844916D1*
X2549947Y843336D1*
X2546849Y840923D1*
X2537411Y831482D1*
X2388546Y831483D1*
X2387303Y832558D1*
X2383871Y834533D1*
X2380128Y835822D1*
X2376208Y836381D1*
X2372253Y836187D1*
X2368407Y835248D1*
X2364807Y833598D1*
X2361585Y831297D1*
X2358857Y828428D1*
X2356721Y825094D1*
X2355254Y821416D1*
X2354510Y817528D1*
X2354516Y813568D1*
X2355270Y809681D1*
X2356640Y806211D1*
X2328177D1*
X2327003Y806615D1*
X2323083Y807173D1*
X2319129Y806979D1*
X2315797Y806211D1*
X2283538D1*
X2280271Y805940D1*
X2276477Y804913D1*
X2272961Y803157D1*
X2269856Y800740D1*
X2267598Y798490D1*
X2198275Y729169D1*
X2170312D1*
X2170858Y729208D1*
X2171640Y729293D1*
X2172419Y729408D1*
X2173193Y729552D1*
X2173961Y729725D1*
X2174722Y729927D1*
X2175475Y730158D1*
X2176219Y730417D1*
X2176952Y730704D1*
X2177674Y731019D1*
X2181100Y733003D1*
X2184089Y735600D1*
X2186532Y738716D1*
X2188342Y742237D1*
X2189452Y746038D1*
X2189823Y749951D1*
X2189788Y751172D1*
X2192684Y751592D1*
X2196424Y752893D1*
X2199851Y754877D1*
X2202839Y757474D1*
X2205283Y760590D1*
X2207092Y764111D1*
X2208202Y767912D1*
X2208573Y771854D1*
X2208192Y775795D1*
X2207071Y779592D1*
X2205252Y783109D1*
X2203652Y785274D1*
Y824951D1*
X2203419Y827663D1*
X2202277Y831420D1*
X2200247Y834786D1*
X2198986Y836206D1*
X2148994Y886198D1*
X2146912Y887951D1*
X2143447Y889800D1*
X2139632Y890744D1*
X2137729Y890857D1*
X1900586Y890855D1*
X1859902Y931543D1*
Y980326D1*
X1876838Y1006088D1*
X1879061Y1008561D1*
X1881414Y1011683D1*
X1883491Y1014995D1*
X1885275Y1018473D1*
X1886754Y1022092D1*
X1887916Y1025824D1*
X1888753Y1029643D1*
X1889259Y1033519D1*
X1889429Y1037451D1*
X1889263Y1041331D1*
X1888762Y1045208D1*
X1887930Y1049027D1*
X1886772Y1052761D1*
X1885298Y1056382D1*
X1883517Y1059862D1*
X1881444Y1063177D1*
X1879094Y1066301D1*
X1876484Y1069211D1*
X1873634Y1071886D1*
X1870564Y1074307D1*
X1867297Y1076454D1*
X1863858Y1078313D1*
X1860272Y1079869D1*
X1856565Y1081111D1*
X1852766Y1082030D1*
X1848901Y1082619D1*
X1845000Y1082873D1*
X1841092Y1082792D1*
X1837205Y1082374D1*
X1833368Y1081624D1*
X1829610Y1080547D1*
X1825959Y1079151D1*
X1822441Y1077446D1*
X1819083Y1075445D1*
X1815909Y1073162D1*
X1812943Y1070616D1*
X1810207Y1067823D1*
X1807721Y1064806D1*
X1805504Y1061587D1*
X1803571Y1058188D1*
X1801938Y1054636D1*
X1800617Y1050957D1*
X1799616Y1047178D1*
X1798945Y1043327D1*
X1798606Y1039433D1*
X1798604Y1035523D1*
X1798938Y1031628D1*
X1799605Y1027776D1*
X1800601Y1023996D1*
X1801918Y1020316D1*
X1803547Y1016762D1*
X1805476Y1013361D1*
X1807689Y1010139D1*
X1810171Y1007119D1*
X1811219Y1005990D1*
X1828091Y980325D1*
Y938349D1*
X1773306Y993131D1*
X1783120Y1014403D1*
X1783491Y1014995D1*
X1785275Y1018473D1*
X1786754Y1022092D1*
X1787916Y1025824D1*
X1788753Y1029643D1*
X1789259Y1033519D1*
X1789429Y1037451D1*
X1789263Y1041331D1*
X1788762Y1045208D1*
X1787930Y1049027D1*
X1786772Y1052761D1*
X1785298Y1056382D1*
X1783517Y1059862D1*
X1781444Y1063177D1*
X1779094Y1066301D1*
X1776484Y1069211D1*
X1773634Y1071886D1*
X1770564Y1074307D1*
X1767297Y1076454D1*
X1763858Y1078313D1*
X1760272Y1079869D1*
X1756565Y1081111D1*
X1752766Y1082030D1*
X1748901Y1082619D1*
X1745000Y1082873D1*
X1741092Y1082792D1*
X1737205Y1082374D1*
X1733368Y1081624D1*
X1729610Y1080547D1*
X1725959Y1079151D1*
X1722441Y1077446D1*
X1719083Y1075445D1*
X1715909Y1073162D1*
X1712943Y1070616D1*
X1710207Y1067823D1*
X1707721Y1064806D1*
X1705504Y1061587D1*
X1703571Y1058188D1*
X1701938Y1054636D1*
X1700617Y1050957D1*
X1699616Y1047178D1*
X1698945Y1043327D1*
X1698606Y1039433D1*
X1698604Y1035523D1*
X1698938Y1031628D1*
X1699605Y1027776D1*
X1700601Y1023996D1*
X1701918Y1020316D1*
X1703547Y1016762D1*
X1705476Y1013361D1*
X1707689Y1010139D1*
X1710171Y1007119D1*
X1712904Y1004324D1*
X1715867Y1001773D1*
X1719038Y999487D1*
X1719645Y999125D1*
X1745140Y976312D1*
X1873734Y847718D1*
X1876990Y844483D1*
X1880189Y842205D1*
X1883848Y840780D1*
X1887745Y840295D1*
X2124907Y840297D1*
X2153091Y812115D1*
X2153088Y763253D1*
X2152051Y762059D1*
X2150065Y758634D1*
X2148764Y754894D1*
X2148195Y750976D1*
X2148377Y747021D1*
X2149304Y743171D1*
X2150943Y739567D1*
X2153234Y736338D1*
X2156095Y733601D1*
X2159423Y731455D1*
X2160129Y731107D1*
X2160847Y730785D1*
X2161578Y730491D1*
X2162319Y730224D1*
X2163069Y729986D1*
X2163828Y729776D1*
X2164594Y729595D1*
X2165367Y729443D1*
X2166145Y729321D1*
X2166926Y729228D1*
X2167632Y729169D1*
X2130866D1*
X2130864Y776239D1*
X2133309Y776594D1*
X2137049Y777894D1*
X2140475Y779878D1*
X2143464Y782475D1*
X2145907Y785591D1*
X2147717Y789113D1*
X2148827Y792913D1*
X2149198Y796855D1*
X2148816Y800796D1*
X2147696Y804594D1*
X2145877Y808110D1*
X2143425Y811219D1*
X2140429Y813808D1*
X2136997Y815783D1*
X2133254Y817073D1*
X2133135Y817090D1*
X2131360Y817580D1*
X2127456Y818066D1*
X2122884Y818072D1*
X2117080D1*
X2115906Y818476D1*
X2111986Y819034D1*
X2108032Y818840D1*
X2104887Y818073D1*
X2108032Y818840D1*
X2111986Y819034D1*
X2115906Y818476D1*
X2117080Y818072D1*
X2115906Y818476D1*
X2111986Y819034D1*
X2108032Y818840D1*
X2104699Y818072D1*
X2095418D1*
X2091645Y817713D1*
X2088438Y816811D1*
X2087157Y816499D1*
X2083558Y814849D1*
X2080336Y812548D1*
X2077608Y809679D1*
X2075471Y806345D1*
X2074005Y802667D1*
X2073261Y798778D1*
X2073266Y794819D1*
X2074021Y790932D1*
X2075498Y787258D1*
X2077643Y783930D1*
X2080379Y781068D1*
X2083607Y778776D1*
X2087211Y777136D1*
X2091060Y776208D1*
X2091180Y776202D1*
X2091178Y729169D1*
X1927214Y729170D1*
X1892402Y763982D1*
X1889900Y766101D1*
X1886491Y768057D1*
X1882763Y769302D1*
X1878858Y769788D1*
X1875131Y769794D1*
X1684427Y769793D1*
X1683254Y770198D1*
X1679334Y770756D1*
X1675379Y770562D1*
X1672043Y769794D1*
X1667977Y769793D1*
X1666804Y770198D1*
X1662884Y770756D1*
X1658929Y770562D1*
X1655592Y769794D1*
X1652213Y769796D1*
X1563839Y858168D1*
X1563837Y979813D1*
X1573293Y992018D1*
X1589429D1*
Y1082884D1*
X1498563D1*
Y992018D1*
X1514700Y992021D1*
X1524153Y979815D1*
Y849971D1*
X1524511Y846205D1*
X2374024Y857488D2*
X2373827Y855413D1*
X2372717Y851613D1*
X2370907Y848091D1*
X2368464Y844975D1*
X2365475Y842378D1*
X2362049Y840394D1*
X2358309Y839094D1*
X2354391Y838525D1*
X2350436Y838708D1*
X2346586Y839636D1*
X2342983Y841276D1*
X2339754Y843568D1*
X2337018Y846430D1*
X2334873Y849758D1*
X2333396Y853432D1*
X2332642Y857319D1*
X2332636Y861278D1*
X2333380Y865167D1*
X2334847Y868845D1*
X2336983Y872179D1*
X2339711Y875048D1*
X2342933Y877349D1*
X2346533Y878999D1*
X2350379Y879937D1*
X2351542Y879994D1*
X2573923Y872983D2*
X2676570D1*
X2613293Y475345D2*
X2692318D1*
X2652806Y431896D2*
Y518794D1*
X2613293Y1050148D2*
X2692318D1*
X2652806D2*
Y1085724D1*
X2975498Y1050148D2*
X3086019D1*
X3030759Y1014573D2*
Y1085724D1*
X2975498Y439912D2*
X3086019D1*
X3030759D2*
Y475487D1*
X1643996Y1082869D2*
Y992034D1*
X1598578Y1037451D2*
X1689414D1*
X1107726Y576614D2*
X1012953D1*
X1060340Y624001D2*
Y529228D1*
D19*
X599631Y499951D3*
Y599951D3*
Y699951D3*
Y799951D3*
Y899951D3*
Y999951D3*
D20*
X2625247Y656448D3*
Y699755D3*
Y743062D3*
Y786369D3*
Y829676D3*
Y872983D3*
Y916290D3*
Y959597D3*
Y1002904D3*
D21*
X2652806Y475345D3*
D22*
Y1050148D3*
D23*
X3030759D3*
Y439912D3*
D24*
X1543996Y1037451D3*
D25*
X1643996D3*
X1743996D3*
X1843996D3*
X1943996D3*
X2043996D3*
D26*
X1060340Y576614D3*
D27*
Y676614D3*
Y776614D3*
Y876614D3*
M02*
