G04 DipTrace 4.3.0.3*
G04 2 - Bottom.gbr*
%MOIN*%
G04 #@! TF.FileFunction,Copper,L2,Bot*
G04 #@! TF.Part,Single*
G04 #@! TA.AperFunction,Conductor*
%ADD15C,0.015748*%
G04 #@! TA.AperFunction,CopperBalancing*
%ADD17C,0.007874*%
%ADD19R,0.255906X0.070866*%
%ADD20R,0.07874X0.027559*%
%ADD21R,0.055118X0.062992*%
%ADD22R,0.055118X0.047244*%
%ADD23R,0.086614X0.047244*%
G04 #@! TA.AperFunction,ComponentPad*
%ADD24R,0.066929X0.066929*%
%ADD25C,0.066929*%
%ADD26R,0.070866X0.070866*%
%ADD27C,0.070866*%
G04 #@! TA.AperFunction,ViaPad*
%ADD31C,0.017717*%
%FSLAX26Y26*%
G04*
G70*
G90*
G75*
G01*
G04 Bottom*
%LPD*%
G36*
X2511073Y794243D2*
X2526822Y800148D1*
X2530759D1*
X2566192Y786369D1*
X2526822Y772589D1*
X2511073Y778495D1*
Y794243D1*
G37*
X1602866Y749951D2*
D15*
X1619316D1*
X1819316D1*
X1859941Y709327D1*
X2051969D1*
X2147441D1*
X2224483Y786369D1*
X2263066D1*
X2375566D1*
X2566192D1*
X1619316Y749951D2*
D3*
X1602866D2*
X1584941D1*
X2051969Y798230D2*
Y709327D1*
Y798230D2*
X2036344D1*
X2034941Y796827D1*
X2051969Y798230D2*
X2067913D1*
X2069316Y796827D1*
G36*
X1477067Y983908D2*
X1461516Y1003987D1*
Y1007333D1*
X1508366D1*
Y1003987D1*
X1492815Y983908D1*
X1477067D1*
G37*
X1484941Y1037451D2*
D15*
Y849951D1*
X1584941Y749951D1*
G36*
X684277Y492077D2*
X668529Y484203D1*
X655734D1*
Y515699D1*
X668529D1*
X684277Y507825D1*
Y492077D1*
G37*
X540576Y499951D2*
D15*
X1053692D1*
X1078690Y524950D1*
Y587453D1*
Y624951D1*
G36*
X1045117Y647388D2*
X1013394Y643315D1*
X1010140Y644719D1*
X1031567Y689459D1*
X1034820Y688055D1*
X1056253Y658525D1*
X1045117Y647388D1*
G37*
X1001285Y676614D2*
D15*
X1027028D1*
X1078690Y624951D1*
G36*
X684277Y592077D2*
X668529Y584203D1*
X655734D1*
Y615699D1*
X668529D1*
X684277Y607825D1*
Y592077D1*
G37*
X540576Y599951D2*
D15*
X863066D1*
G36*
X1047902Y750173D2*
X1013394Y743315D1*
X1010167Y744777D1*
X1031593Y789518D1*
X1034820Y788055D1*
X1053469Y755740D1*
X1047902Y750173D1*
G37*
X1001285Y776614D2*
D17*
X1027028D1*
X1097441Y706201D1*
X1534941D1*
X1675566Y565576D1*
X1992913D1*
G36*
X1038589Y833743D2*
X1001639Y841182D1*
X999134Y843689D1*
X1034210Y878765D1*
X1036717Y876260D1*
X1044156Y839310D1*
X1038589Y833743D1*
G37*
X1001285Y876614D2*
D17*
X1152948Y724951D1*
X1538066D1*
X1675566Y587451D1*
X2047441D1*
G36*
X676403Y696014D2*
X668529Y692077D1*
X655734D1*
Y707825D1*
X668529D1*
X676403Y703888D1*
Y696014D1*
G37*
X540576Y699951D2*
D17*
X947441D1*
X972441Y724951D1*
X1031816D1*
X1069316Y687451D1*
X1525566D1*
X1555253Y657764D1*
X1750566Y724951D2*
X1792647D1*
X1813119Y704479D1*
G36*
X2518948Y833613D2*
X2526822Y837550D1*
X2530759D1*
Y821802D1*
X2526822D1*
X2518948Y825739D1*
Y833613D1*
G37*
X2566192Y829676D2*
D17*
X2499041D1*
X2484941Y815576D1*
X2316190D1*
G36*
X2518948Y703692D2*
X2526822Y707629D1*
X2530759D1*
Y691881D1*
X2526822D1*
X2518948Y695818D1*
Y703692D1*
G37*
X2566192Y699755D2*
D17*
X2247636D1*
X2231815Y715576D1*
Y734325D1*
G36*
X2518948Y1006841D2*
X2526822Y1010778D1*
X2530759D1*
Y995030D1*
X2526822D1*
X2518948Y998967D1*
Y1006841D1*
G37*
X2566192Y1002904D2*
D17*
X2387894D1*
X2338066Y953076D1*
G36*
X2518948Y920227D2*
X2526822Y924164D1*
X2530759D1*
Y908416D1*
X2526822D1*
X2518948Y912353D1*
Y920227D1*
G37*
X2566192Y916290D2*
D17*
X2351280D1*
X2294316Y859327D1*
G36*
X2518948Y746999D2*
X2526822Y750936D1*
X2530759D1*
Y735188D1*
X2526822D1*
X2518948Y739125D1*
Y746999D1*
G37*
X2566192Y743062D2*
D17*
X2281177D1*
X2280537Y743702D1*
X2272442D1*
G36*
X1781004Y983908D2*
X1761516Y1013552D1*
Y1016899D1*
X1808366D1*
Y1013552D1*
X1788878Y983908D1*
X1781004D1*
G37*
X1784941Y1037451D2*
D17*
Y924951D1*
X1834941Y874951D1*
X2078692D1*
X2128692Y824951D1*
Y771825D1*
G36*
X1694322Y985003D2*
X1667874Y1008667D1*
X1667194Y1011944D1*
X1712699Y1023088D1*
X1713379Y1019811D1*
X1699888Y990570D1*
X1694322Y985003D1*
G37*
X1684941Y1037451D2*
D17*
Y999950D1*
X1828690Y856201D1*
X2072442D1*
X2109941Y818702D1*
Y749951D1*
G36*
X676403Y896014D2*
X668529Y892077D1*
X655734D1*
Y907825D1*
X668529D1*
X676403Y903888D1*
Y896014D1*
G37*
X1416190Y918702D2*
D17*
X1113066D1*
X1088066Y943702D1*
X869316D1*
X825566Y899951D1*
X540576D1*
G36*
X676403Y996014D2*
X668529Y992077D1*
X655734D1*
Y1007825D1*
X668529D1*
X676403Y1003888D1*
Y996014D1*
G37*
X1403690Y999951D2*
D17*
X1231815D1*
X540576D1*
D31*
X1602866Y749951D3*
D3*
X2051969Y798230D3*
D3*
D3*
X2375566Y786369D3*
X2263066D3*
X1078690Y524950D3*
X1992913Y565576D3*
X2047441Y587451D3*
X1555253Y657764D3*
X1750566Y724951D3*
X1813119Y704479D3*
X2316190Y815576D3*
X2231815Y734325D3*
X2338066Y953076D3*
X2294316Y859327D3*
D3*
X2272442Y743702D3*
X2128692Y771825D3*
X2109941Y749951D3*
X1416190Y918702D3*
X1403690Y999951D3*
X1078690Y587453D3*
Y624951D3*
Y568702D3*
Y606201D3*
X1584941Y749951D3*
X1619316D3*
X2069316Y796827D3*
X2034941D3*
X2466192Y893702D3*
X2425566Y721827D3*
X2450566Y762451D3*
X2366192D3*
X3131816Y412451D3*
Y1087451D3*
X903690Y412451D3*
Y1087451D3*
X1913066Y784327D3*
X2091192Y587451D3*
X1913066Y606201D3*
X2081816Y743702D3*
X1172441Y940576D3*
X928690Y968702D3*
X781816Y846827D3*
X1181816D3*
X1459941Y806201D3*
X1606816D3*
X850566Y846827D3*
X1766192Y606201D3*
X1956816Y915576D3*
X1466192Y628076D3*
X1316192Y496827D3*
X1316191Y628076D3*
X850566Y749951D3*
X1159941Y612451D3*
Y496827D3*
X2172441Y1049951D3*
X3072441Y549951D3*
X2872441Y449951D3*
X2472441Y1049951D3*
X2672441D3*
X2772441D3*
X2872441D3*
X756816Y628076D3*
X3072441Y849951D3*
X2872441D3*
X2672441D3*
X2244316Y762451D3*
X2172441Y849951D3*
Y949951D3*
X2672441Y449951D3*
X2472441D3*
X850566Y649951D3*
X2072441Y449951D3*
X1872441D3*
X1672441D3*
X1472441D3*
X1572441Y549951D3*
X919316Y649951D3*
X2372441Y1049951D3*
X2972441Y549951D3*
Y849951D3*
X2772441D3*
Y749951D3*
X2572441Y549951D3*
X2472441D3*
X2672441D3*
X2472441Y649951D3*
X2772441Y449951D3*
X878690Y599951D3*
X2372441Y449951D3*
X2172441D3*
X1972441D3*
X1772441D3*
X1572441D3*
X919316Y599951D3*
X850566Y968702D3*
X2344316Y646827D3*
X2506816Y853076D3*
X2466192Y981201D3*
X2506816Y937451D3*
X781816Y468701D3*
Y1028076D3*
Y946827D3*
Y749951D3*
X919316D3*
X781816Y549951D3*
X841192Y524951D3*
X928690Y846827D3*
X703690Y1028076D3*
Y946827D3*
Y846827D3*
Y749951D3*
Y649951D3*
Y549951D3*
Y468702D3*
X2172441Y531201D3*
X2313066D3*
X1209941Y612451D3*
Y496827D3*
X1109940Y612451D3*
X1109941Y496826D3*
X1391191Y562451D3*
X1006816Y968701D3*
X1084941D3*
X1319316Y940576D3*
X1291191Y1021826D3*
X1663066Y724951D3*
X897537Y1086657D2*
D17*
X2216090D1*
X2338167D2*
X3137004D1*
X897537Y1078915D2*
X1438723D1*
X1531165D2*
X1565577D1*
X1604299D2*
X1665578D1*
X1704301D2*
X1765580D1*
X1804302D2*
X1865581D1*
X1904304D2*
X1965583D1*
X2004305D2*
X2216090D1*
X2338167D2*
X2553435D1*
X2634065D2*
X2915640D1*
X3027766D2*
X3137004D1*
X897537Y1071172D2*
X1438723D1*
X1531165D2*
X1553704D1*
X1616179D2*
X1653706D1*
X1716173D2*
X1753707D1*
X1816175D2*
X1853709D1*
X1916176D2*
X1953702D1*
X2016178D2*
X2216090D1*
X2338167D2*
X2553435D1*
X2634065D2*
X2915640D1*
X3027766D2*
X3137004D1*
X897537Y1063429D2*
X1438723D1*
X1531165D2*
X1546883D1*
X1623000D2*
X1646877D1*
X1723002D2*
X1746879D1*
X1823003D2*
X1846880D1*
X1923005D2*
X1946882D1*
X2022998D2*
X2216090D1*
X2338167D2*
X2553435D1*
X2634065D2*
X2915640D1*
X3027766D2*
X3137004D1*
X897537Y1055686D2*
X1438723D1*
X1531165D2*
X1542539D1*
X1627345D2*
X1642540D1*
X1727338D2*
X1742542D1*
X1827340D2*
X1842544D1*
X1927341D2*
X1942537D1*
X2027343D2*
X2216090D1*
X2338167D2*
X2553435D1*
X2634065D2*
X2915640D1*
X3027766D2*
X3137004D1*
X693705Y1047944D2*
X1438723D1*
X1531165D2*
X1539948D1*
X1629936D2*
X1639949D1*
X1729930D2*
X1739951D1*
X1829931D2*
X1839952D1*
X1929933D2*
X1939946D1*
X2029934D2*
X2216090D1*
X2338167D2*
X2553435D1*
X2634065D2*
X2915640D1*
X3027766D2*
X3137004D1*
X693705Y1040201D2*
X1438723D1*
X1531165D2*
X1538802D1*
X1631082D2*
X1638803D1*
X1731075D2*
X1738805D1*
X1831077D2*
X1838806D1*
X1931079D2*
X1938800D1*
X2031080D2*
X2216090D1*
X2338167D2*
X2553435D1*
X2634065D2*
X2915640D1*
X3027766D2*
X3137004D1*
X693705Y1032458D2*
X1438723D1*
X1531165D2*
X1538994D1*
X1630889D2*
X1638996D1*
X1730883D2*
X1738997D1*
X1830885D2*
X1838999D1*
X1930886D2*
X1938993D1*
X2030888D2*
X2553435D1*
X2634065D2*
X2915640D1*
X3027766D2*
X3137004D1*
X693705Y1024715D2*
X1438723D1*
X1531165D2*
X1540540D1*
X1629336D2*
X1640541D1*
X1729338D2*
X1740543D1*
X1829339D2*
X1840544D1*
X1929341D2*
X1940546D1*
X2029342D2*
X2514065D1*
X2634065D2*
X2915640D1*
X3027766D2*
X3137004D1*
X693705Y1016972D2*
X1390903D1*
X1416476D2*
X1438723D1*
X1531165D2*
X1543600D1*
X1626283D2*
X1643594D1*
X1726285D2*
X1743595D1*
X1826286D2*
X1843597D1*
X1926288D2*
X1943599D1*
X2026282D2*
X2379684D1*
X2634065D2*
X2915640D1*
X3027766D2*
X3137004D1*
X1423120Y1009230D2*
X1438723D1*
X1531165D2*
X1548552D1*
X1621331D2*
X1648546D1*
X1722463D2*
X1748547D1*
X1821334D2*
X1848549D1*
X1921336D2*
X1948551D1*
X2021330D2*
X2370941D1*
X2618317D2*
X3137004D1*
X1425250Y1001487D2*
X1438723D1*
X1531165D2*
X1556395D1*
X1613488D2*
X1656389D1*
X1718895D2*
X1754338D1*
X1815544D2*
X1856392D1*
X1913493D2*
X1956394D1*
X2013487D2*
X2363197D1*
X2618317D2*
X3137004D1*
X1424358Y993744D2*
X1438723D1*
X1531165D2*
X1571751D1*
X1598132D2*
X1665816D1*
X1715320D2*
X1759428D1*
X1810454D2*
X1871748D1*
X1898129D2*
X1971750D1*
X1998131D2*
X2355454D1*
X2618317D2*
X3137004D1*
X1419944Y986001D2*
X1459523D1*
X1510365D2*
X1674467D1*
X1722171D2*
X1764518D1*
X1805363D2*
X2347711D1*
X2394269D2*
X2514065D1*
X2618317D2*
X3137004D1*
X693705Y978259D2*
X1464314D1*
X1505574D2*
X1683125D1*
X1729914D2*
X1768248D1*
X1801634D2*
X2339968D1*
X2386526D2*
X2514065D1*
X2618317D2*
X2965706D1*
X3009196D2*
X3137004D1*
X693705Y970516D2*
X1464314D1*
X1505574D2*
X1691092D1*
X1737658D2*
X1768248D1*
X1801634D2*
X2325896D1*
X2378790D2*
X2514065D1*
X2618317D2*
X2955471D1*
X3019438D2*
X3137004D1*
X693705Y962773D2*
X1464314D1*
X1505574D2*
X1698835D1*
X1745401D2*
X1768248D1*
X1801634D2*
X2318845D1*
X2371047D2*
X2514065D1*
X2618317D2*
X2949419D1*
X3025482D2*
X3137004D1*
X693705Y955030D2*
X857361D1*
X1100016D2*
X1464314D1*
X1505574D2*
X1706578D1*
X1753144D2*
X1768248D1*
X1801634D2*
X2316545D1*
X2363304D2*
X2514065D1*
X2618317D2*
X2945659D1*
X3029242D2*
X3137004D1*
X693705Y947287D2*
X849618D1*
X1107759D2*
X1464314D1*
X1505574D2*
X1714322D1*
X1760888D2*
X1768248D1*
X1801634D2*
X2317276D1*
X2358859D2*
X2514065D1*
X2618317D2*
X2943591D1*
X3031311D2*
X3137004D1*
X693705Y939545D2*
X841875D1*
X1115503D2*
X1464314D1*
X1505574D2*
X1722065D1*
X1801634D2*
X2321444D1*
X2354684D2*
X2514065D1*
X2618317D2*
X2942968D1*
X3031941D2*
X3137004D1*
X693705Y931802D2*
X834131D1*
X1433170D2*
X1464314D1*
X1505574D2*
X1729808D1*
X1801634D2*
X2346973D1*
X2618317D2*
X2943722D1*
X3031180D2*
X3137004D1*
X693705Y924059D2*
X826396D1*
X872954D2*
X1084431D1*
X1437107D2*
X1464314D1*
X1505574D2*
X1737552D1*
X1809116D2*
X2335769D1*
X2618317D2*
X2945944D1*
X3028965D2*
X3137004D1*
X693705Y916316D2*
X818652D1*
X865211D2*
X974602D1*
X1027966D2*
X1092167D1*
X1437668D2*
X1464314D1*
X1505574D2*
X1745295D1*
X1816859D2*
X2328026D1*
X2618317D2*
X2949881D1*
X3025021D2*
X3137004D1*
X857467Y908573D2*
X965490D1*
X1037078D2*
X1099910D1*
X1435177D2*
X1464314D1*
X1505574D2*
X1753038D1*
X1824602D2*
X2320283D1*
X2618317D2*
X2956209D1*
X3018700D2*
X3137004D1*
X849724Y900831D2*
X959746D1*
X1042822D2*
X1404705D1*
X1427672D2*
X1464314D1*
X1505574D2*
X1760781D1*
X1832346D2*
X2312539D1*
X2618317D2*
X2967105D1*
X3007796D2*
X3137004D1*
X841981Y893088D2*
X956048D1*
X1046521D2*
X1464314D1*
X1505574D2*
X1768525D1*
X1840089D2*
X2304796D1*
X2351362D2*
X2514065D1*
X2618317D2*
X3137004D1*
X832646Y885345D2*
X953910D1*
X1048666D2*
X1464314D1*
X1505574D2*
X1776268D1*
X2091581D2*
X2297053D1*
X2343619D2*
X2514065D1*
X2618317D2*
X3137004D1*
X693705Y877602D2*
X953103D1*
X1049466D2*
X1464314D1*
X1505574D2*
X1784004D1*
X2099324D2*
X2283542D1*
X2335875D2*
X2514065D1*
X2618317D2*
X3137004D1*
X693705Y869860D2*
X953579D1*
X1051003D2*
X1464314D1*
X1505574D2*
X1791747D1*
X2107067D2*
X2275561D1*
X2328132D2*
X2514065D1*
X2618317D2*
X3137004D1*
X693705Y862117D2*
X955363D1*
X1052557D2*
X1464314D1*
X1505574D2*
X1799490D1*
X2114811D2*
X2272892D1*
X2320389D2*
X2514065D1*
X2618317D2*
X3137004D1*
X693705Y854374D2*
X958639D1*
X1054118D2*
X1464314D1*
X1509365D2*
X1807233D1*
X2122554D2*
X2273300D1*
X2315337D2*
X2514065D1*
X2618317D2*
X3137004D1*
X693705Y846631D2*
X963783D1*
X1055679D2*
X1464591D1*
X1517108D2*
X1814977D1*
X2130290D2*
X2277022D1*
X2311615D2*
X2514065D1*
X2618317D2*
X3137004D1*
X693705Y838888D2*
X971796D1*
X1062292D2*
X1467682D1*
X1524852D2*
X2066476D1*
X2138033D2*
X2289525D1*
X2299104D2*
X2484976D1*
X2618317D2*
X3137004D1*
X693705Y831146D2*
X987098D1*
X1070035D2*
X1474895D1*
X1532595D2*
X2074220D1*
X2144131D2*
X2301574D1*
X2618317D2*
X3137004D1*
X693705Y823403D2*
X992903D1*
X1009673D2*
X1028521D1*
X1077778D2*
X1482638D1*
X1540338D2*
X2081955D1*
X2145384D2*
X2296099D1*
X2618317D2*
X3137004D1*
X693705Y815660D2*
X973618D1*
X1028950D2*
X1038956D1*
X1085521D2*
X1490381D1*
X1548081D2*
X2025261D1*
X2078993D2*
X2089698D1*
X2145384D2*
X2294577D1*
X2618317D2*
X3137004D1*
X693705Y807917D2*
X964898D1*
X1037670D2*
X1046699D1*
X1093265D2*
X1498125D1*
X1555825D2*
X2016525D1*
X2087728D2*
X2093251D1*
X2145384D2*
X2296038D1*
X2618317D2*
X3137004D1*
X693705Y800175D2*
X959362D1*
X1043206D2*
X1054442D1*
X1101008D2*
X1505868D1*
X1563568D2*
X2013596D1*
X2145384D2*
X2209439D1*
X2618317D2*
X3137004D1*
X693705Y792432D2*
X955809D1*
X1046897D2*
X1062186D1*
X1108751D2*
X1513611D1*
X1571311D2*
X2013796D1*
X2145384D2*
X2201696D1*
X2618317D2*
X3137004D1*
X693705Y784689D2*
X953787D1*
X1051365D2*
X1069929D1*
X1116495D2*
X1521354D1*
X1579055D2*
X2017233D1*
X2087029D2*
X2093251D1*
X2145861D2*
X2193952D1*
X2618317D2*
X3137004D1*
X693705Y776946D2*
X953095D1*
X1055840D2*
X1077672D1*
X1124230D2*
X1529098D1*
X1586798D2*
X2027944D1*
X2076310D2*
X2093251D1*
X2149667D2*
X2186209D1*
X2618317D2*
X3137004D1*
X693705Y769203D2*
X953679D1*
X1060308D2*
X1085415D1*
X1131974D2*
X1536841D1*
X1824910D2*
X2031335D1*
X2072596D2*
X2093251D1*
X2150144D2*
X2178466D1*
X2618317D2*
X3137004D1*
X693705Y761461D2*
X955586D1*
X1065460D2*
X1093159D1*
X1139717D2*
X1544584D1*
X1836660D2*
X2031335D1*
X2072596D2*
X2091798D1*
X2147545D2*
X2170722D1*
X2228423D2*
X2260774D1*
X2284110D2*
X2514065D1*
X2618317D2*
X3137004D1*
X693705Y753718D2*
X958993D1*
X1073203D2*
X1100902D1*
X1147460D2*
X1552328D1*
X1844403D2*
X2031335D1*
X2072596D2*
X2088668D1*
X2139771D2*
X2162987D1*
X2240195D2*
X2253392D1*
X2618317D2*
X3137004D1*
X693705Y745975D2*
X964329D1*
X1080946D2*
X1108645D1*
X1155203D2*
X1560071D1*
X1852138D2*
X2031335D1*
X2072596D2*
X2088706D1*
X2131174D2*
X2155243D1*
X2618317D2*
X3137004D1*
X693705Y738232D2*
X962899D1*
X1088690D2*
X1116389D1*
X1547605D2*
X1566938D1*
X1859882D2*
X2031335D1*
X2072596D2*
X2091936D1*
X2127944D2*
X2147500D1*
X2205193D2*
X2210569D1*
X2618317D2*
X3137004D1*
X693705Y730490D2*
X954694D1*
X1096433D2*
X1124132D1*
X1555809D2*
X1576742D1*
X1867625D2*
X2031335D1*
X2072596D2*
X2101740D1*
X2118140D2*
X2139757D1*
X2197449D2*
X2210554D1*
X2618317D2*
X3137004D1*
X693705Y722747D2*
X946951D1*
X1104176D2*
X1131867D1*
X1563553D2*
X1729070D1*
X2189706D2*
X2213714D1*
X2249915D2*
X2514065D1*
X2618317D2*
X3137004D1*
X1571296Y715004D2*
X1731477D1*
X2181971D2*
X2215129D1*
X2618317D2*
X3137004D1*
X1579039Y707261D2*
X1738790D1*
X1762341D2*
X1787056D1*
X2174227D2*
X2217467D1*
X2618317D2*
X3137004D1*
X1586783Y699518D2*
X1792108D1*
X1834137D2*
X1840898D1*
X2166484D2*
X2224595D1*
X2618317D2*
X3137004D1*
X1594526Y691776D2*
X1795830D1*
X1830408D2*
X1849895D1*
X2157487D2*
X2232330D1*
X2618317D2*
X3137004D1*
X693705Y684033D2*
X953679D1*
X1602269D2*
X1808372D1*
X1817866D2*
X2244441D1*
X2618317D2*
X3137004D1*
X693705Y676290D2*
X953095D1*
X1610005D2*
X2514065D1*
X2618317D2*
X3137004D1*
X693705Y668547D2*
X953787D1*
X1064552D2*
X1521185D1*
X1617748D2*
X2514065D1*
X2618317D2*
X2983638D1*
X2991264D2*
X3137004D1*
X693705Y660804D2*
X955809D1*
X1071688D2*
X1528929D1*
X1625491D2*
X2514065D1*
X2618317D2*
X2961676D1*
X3013225D2*
X3137004D1*
X693705Y653062D2*
X959362D1*
X1079431D2*
X1534180D1*
X1633235D2*
X2514065D1*
X2618317D2*
X2953203D1*
X3021699D2*
X3137004D1*
X693705Y645319D2*
X964898D1*
X1087175D2*
X1537764D1*
X1640978D2*
X2514065D1*
X2618317D2*
X2947997D1*
X3026905D2*
X3137004D1*
X693705Y637576D2*
X973611D1*
X1096041D2*
X1549344D1*
X1561161D2*
X1580287D1*
X1648721D2*
X2514065D1*
X2618317D2*
X2944829D1*
X3030073D2*
X3137004D1*
X693705Y629833D2*
X992850D1*
X1009719D2*
X1044961D1*
X1099724D2*
X1588030D1*
X1656465D2*
X2943237D1*
X3031664D2*
X3137004D1*
X693705Y622091D2*
X953095D1*
X1100108D2*
X1595773D1*
X1664208D2*
X2943060D1*
X3031849D2*
X3137004D1*
X693705Y614348D2*
X953095D1*
X1049473D2*
X1058064D1*
X1099324D2*
X1603516D1*
X1671951D2*
X2944268D1*
X3030634D2*
X3137004D1*
X693705Y606605D2*
X953095D1*
X1049473D2*
X1057080D1*
X1100301D2*
X1611252D1*
X1679694D2*
X2038471D1*
X2056409D2*
X2946997D1*
X3027904D2*
X3137004D1*
X693705Y598862D2*
X953095D1*
X1049473D2*
X1058064D1*
X1099324D2*
X1618995D1*
X2065652D2*
X2951603D1*
X3023298D2*
X3137004D1*
X693705Y591119D2*
X953095D1*
X1049473D2*
X1057403D1*
X1099978D2*
X1626739D1*
X2068728D2*
X2959001D1*
X3015901D2*
X3137004D1*
X693705Y583377D2*
X953095D1*
X1049473D2*
X1057480D1*
X1099901D2*
X1634482D1*
X2068651D2*
X2973203D1*
X3001706D2*
X3137004D1*
X693705Y575634D2*
X953095D1*
X1049473D2*
X1058064D1*
X1099316D2*
X1642225D1*
X2065375D2*
X3137004D1*
X693705Y567891D2*
X953095D1*
X1049473D2*
X1057095D1*
X1100285D2*
X1649968D1*
X2014402D2*
X2039502D1*
X2055379D2*
X3137004D1*
X693705Y560148D2*
X953095D1*
X1049473D2*
X1058064D1*
X1099316D2*
X1657712D1*
X2013810D2*
X3137004D1*
X693705Y552406D2*
X953095D1*
X1049473D2*
X1058064D1*
X1099316D2*
X1665863D1*
X2009834D2*
X3137004D1*
X693705Y544663D2*
X953095D1*
X1049473D2*
X1058064D1*
X1099316D2*
X3137004D1*
X693705Y536920D2*
X953095D1*
X1049473D2*
X1058064D1*
X1099316D2*
X3137004D1*
X693705Y529177D2*
X1054065D1*
X1099870D2*
X3137004D1*
X693705Y521434D2*
X1046322D1*
X1100008D2*
X3137004D1*
X1097002Y513692D2*
X2553435D1*
X2634065D2*
X3137004D1*
X1088536Y505949D2*
X2553435D1*
X2634065D2*
X3137004D1*
X1080792Y498206D2*
X2553435D1*
X2634065D2*
X3137004D1*
X1073049Y490463D2*
X2553435D1*
X2634065D2*
X3137004D1*
X1064322Y482720D2*
X2553435D1*
X2634065D2*
X3137004D1*
X693705Y474978D2*
X2553435D1*
X2634065D2*
X2915640D1*
X3027766D2*
X3137004D1*
X693705Y467235D2*
X2553435D1*
X2634065D2*
X2915640D1*
X3027766D2*
X3137004D1*
X693705Y459492D2*
X2216090D1*
X2338167D2*
X2553435D1*
X2634065D2*
X2915640D1*
X3027766D2*
X3137004D1*
X693705Y451749D2*
X2216090D1*
X2338167D2*
X2553435D1*
X2634065D2*
X2915640D1*
X3027766D2*
X3137004D1*
X897537Y444007D2*
X2216090D1*
X2338167D2*
X2553435D1*
X2634065D2*
X2915640D1*
X3027766D2*
X3137004D1*
X897537Y436264D2*
X2216090D1*
X2338167D2*
X2553435D1*
X2634065D2*
X2915640D1*
X3027766D2*
X3137004D1*
X897537Y428521D2*
X2216090D1*
X2338167D2*
X2915640D1*
X3027766D2*
X3137004D1*
X897537Y420778D2*
X2216090D1*
X2338167D2*
X2915640D1*
X3027766D2*
X3137004D1*
X897537Y413035D2*
X2216090D1*
X2338167D2*
X2915640D1*
X3027766D2*
X3137004D1*
X2555536Y518810D2*
X2633278D1*
Y431880D1*
X2554223D1*
Y518810D1*
X2555536D1*
X2917740Y1085739D2*
X3026979D1*
Y1014558D1*
X2916428D1*
Y1085739D1*
X2917740D1*
X3030975Y621020D2*
X3030447Y617134D1*
X3029574Y613312D1*
X3028361Y609583D1*
X3026818Y605977D1*
X3024959Y602525D1*
X3022798Y599253D1*
X3020352Y596188D1*
X3017641Y593355D1*
X3014687Y590776D1*
X3011514Y588472D1*
X3008147Y586462D1*
X3004614Y584762D1*
X3000942Y583385D1*
X2997162Y582343D1*
X2993303Y581644D1*
X2989398Y581294D1*
X2985476Y581295D1*
X2981571Y581648D1*
X2977713Y582350D1*
X2973933Y583394D1*
X2970263Y584773D1*
X2966730Y586476D1*
X2963365Y588488D1*
X2960193Y590794D1*
X2957241Y593375D1*
X2954532Y596210D1*
X2952088Y599276D1*
X2949929Y602550D1*
X2948072Y606003D1*
X2946532Y609610D1*
X2945322Y613339D1*
X2944450Y617163D1*
X2943925Y621049D1*
X2943751Y624966D1*
X2943928Y628883D1*
X2944456Y632769D1*
X2945329Y636591D1*
X2946542Y640320D1*
X2948085Y643926D1*
X2949944Y647378D1*
X2952105Y650650D1*
X2954551Y653715D1*
X2957262Y656548D1*
X2960216Y659127D1*
X2963389Y661431D1*
X2966756Y663441D1*
X2970289Y665141D1*
X2973961Y666518D1*
X2977741Y667560D1*
X2981600Y668259D1*
X2985505Y668609D1*
X2989426Y668608D1*
X2993332Y668255D1*
X2997190Y667553D1*
X3000969Y666509D1*
X3004640Y665130D1*
X3008173Y663427D1*
X3011538Y661415D1*
X3014710Y659109D1*
X3017662Y656528D1*
X3020371Y653693D1*
X3022815Y650626D1*
X3024974Y647353D1*
X3026831Y643899D1*
X3028371Y640293D1*
X3029581Y636564D1*
X3030453Y632740D1*
X3030978Y628854D1*
X3031152Y624951D1*
X3030975Y621020D1*
Y935980D2*
X3030447Y932095D1*
X3029574Y928272D1*
X3028361Y924543D1*
X3026818Y920938D1*
X3024959Y917486D1*
X3022798Y914214D1*
X3020352Y911149D1*
X3017641Y908315D1*
X3014687Y905736D1*
X3011514Y903433D1*
X3008147Y901423D1*
X3004614Y899722D1*
X3000942Y898346D1*
X2997162Y897304D1*
X2993303Y896605D1*
X2989398Y896255D1*
X2985476Y896256D1*
X2981571Y896609D1*
X2977713Y897310D1*
X2973933Y898355D1*
X2970263Y899734D1*
X2966730Y901436D1*
X2963365Y903449D1*
X2960193Y905754D1*
X2957241Y908335D1*
X2954532Y911171D1*
X2952088Y914237D1*
X2949929Y917510D1*
X2948072Y920964D1*
X2946532Y924570D1*
X2945322Y928300D1*
X2944450Y932123D1*
X2943925Y936009D1*
X2943751Y939927D1*
X2943928Y943844D1*
X2944456Y947729D1*
X2945329Y951552D1*
X2946542Y955281D1*
X2948085Y958886D1*
X2949944Y962339D1*
X2952105Y965610D1*
X2954551Y968675D1*
X2957262Y971509D1*
X2960216Y974088D1*
X2963389Y976392D1*
X2966756Y978402D1*
X2970289Y980102D1*
X2973961Y981478D1*
X2977741Y982520D1*
X2981600Y983219D1*
X2985505Y983570D1*
X2989426Y983568D1*
X2993332Y983215D1*
X2997190Y982514D1*
X3000969Y981470D1*
X3004640Y980090D1*
X3008173Y978388D1*
X3011538Y976376D1*
X3014710Y974070D1*
X3017662Y971489D1*
X3020371Y968654D1*
X3022815Y965587D1*
X3024974Y962314D1*
X3026831Y958860D1*
X3028371Y955254D1*
X3029581Y951524D1*
X3030453Y947701D1*
X3030978Y943815D1*
X3031152Y939912D1*
X3030975Y935980D1*
X1630355Y1036139D2*
X1630298Y1034831D1*
X1630204Y1033525D1*
X1630072Y1032222D1*
X1629903Y1030924D1*
X1629696Y1029631D1*
X1629452Y1028344D1*
X1629171Y1027065D1*
X1628853Y1025795D1*
X1628499Y1024535D1*
X1628109Y1023285D1*
X1627683Y1022047D1*
X1627221Y1020821D1*
X1626724Y1019610D1*
X1626193Y1018413D1*
X1625627Y1017232D1*
X1625027Y1016068D1*
X1624394Y1014922D1*
X1623729Y1013794D1*
X1623031Y1012686D1*
X1622301Y1011599D1*
X1621541Y1010533D1*
X1620750Y1009489D1*
X1619929Y1008469D1*
X1619079Y1007473D1*
X1618201Y1006501D1*
X1617296Y1005556D1*
X1616363Y1004637D1*
X1615404Y1003745D1*
X1614420Y1002881D1*
X1613412Y1002046D1*
X1612380Y1001240D1*
X1611325Y1000464D1*
X1610248Y999719D1*
X1609150Y999006D1*
X1608032Y998324D1*
X1606895Y997675D1*
X1605739Y997059D1*
X1604567Y996476D1*
X1603378Y995927D1*
X1602173Y995413D1*
X1600955Y994934D1*
X1599723Y994490D1*
X1598479Y994082D1*
X1597223Y993710D1*
X1595958Y993374D1*
X1594683Y993075D1*
X1593400Y992813D1*
X1592110Y992588D1*
X1590814Y992400D1*
X1589513Y992249D1*
X1588209Y992136D1*
X1586902Y992061D1*
X1585593Y992023D1*
X1584283D1*
X1582974Y992061D1*
X1581667Y992136D1*
X1580363Y992250D1*
X1579062Y992400D1*
X1577766Y992588D1*
X1576476Y992814D1*
X1575193Y993076D1*
X1573919Y993376D1*
X1572653Y993712D1*
X1571398Y994084D1*
X1570154Y994492D1*
X1568922Y994936D1*
X1567703Y995415D1*
X1566499Y995930D1*
X1565310Y996478D1*
X1564137Y997061D1*
X1562982Y997677D1*
X1561845Y998327D1*
X1560727Y999009D1*
X1559629Y999722D1*
X1558553Y1000467D1*
X1557498Y1001243D1*
X1556466Y1002049D1*
X1555457Y1002884D1*
X1554473Y1003748D1*
X1553515Y1004641D1*
X1552582Y1005560D1*
X1551677Y1006506D1*
X1550799Y1007477D1*
X1549949Y1008473D1*
X1549128Y1009494D1*
X1548338Y1010537D1*
X1547577Y1011603D1*
X1546848Y1012691D1*
X1546150Y1013799D1*
X1545485Y1014927D1*
X1544852Y1016073D1*
X1544252Y1017237D1*
X1543687Y1018418D1*
X1543156Y1019615D1*
X1542659Y1020827D1*
X1542197Y1022052D1*
X1541771Y1023290D1*
X1541381Y1024540D1*
X1541027Y1025801D1*
X1540710Y1027071D1*
X1540429Y1028350D1*
X1540185Y1029637D1*
X1539978Y1030930D1*
X1539809Y1032228D1*
X1539677Y1033531D1*
X1539583Y1034837D1*
X1539527Y1036145D1*
X1539508Y1037454D1*
X1539527Y1038764D1*
X1539584Y1040072D1*
X1539678Y1041378D1*
X1539810Y1042681D1*
X1539979Y1043979D1*
X1540186Y1045272D1*
X1540430Y1046558D1*
X1540711Y1047837D1*
X1541029Y1049108D1*
X1541383Y1050368D1*
X1541773Y1051618D1*
X1542199Y1052856D1*
X1542661Y1054082D1*
X1543158Y1055293D1*
X1543689Y1056490D1*
X1544255Y1057671D1*
X1544855Y1058835D1*
X1545488Y1059981D1*
X1546153Y1061109D1*
X1546851Y1062217D1*
X1547581Y1063304D1*
X1548341Y1064370D1*
X1549132Y1065414D1*
X1549953Y1066434D1*
X1550802Y1067430D1*
X1551681Y1068402D1*
X1552586Y1069347D1*
X1553519Y1070266D1*
X1554478Y1071158D1*
X1555462Y1072022D1*
X1556470Y1072857D1*
X1557502Y1073663D1*
X1558557Y1074439D1*
X1559634Y1075184D1*
X1560732Y1075897D1*
X1561850Y1076579D1*
X1562987Y1077228D1*
X1564142Y1077844D1*
X1565315Y1078427D1*
X1566504Y1078976D1*
X1567708Y1079490D1*
X1568927Y1079969D1*
X1570159Y1080413D1*
X1571403Y1080821D1*
X1572659Y1081193D1*
X1573924Y1081529D1*
X1575199Y1081828D1*
X1576482Y1082090D1*
X1577772Y1082315D1*
X1579068Y1082503D1*
X1580368Y1082654D1*
X1581673Y1082767D1*
X1582980Y1082842D1*
X1584289Y1082880D1*
X1585599D1*
X1586907Y1082842D1*
X1588215Y1082766D1*
X1589519Y1082653D1*
X1590820Y1082503D1*
X1592116Y1082314D1*
X1593406Y1082089D1*
X1594688Y1081827D1*
X1595963Y1081527D1*
X1597229Y1081191D1*
X1598484Y1080819D1*
X1599728Y1080411D1*
X1600960Y1079967D1*
X1602179Y1079487D1*
X1603383Y1078973D1*
X1604572Y1078424D1*
X1605744Y1077842D1*
X1606900Y1077225D1*
X1608037Y1076576D1*
X1609155Y1075894D1*
X1610253Y1075181D1*
X1611329Y1074435D1*
X1612384Y1073660D1*
X1613416Y1072854D1*
X1614425Y1072018D1*
X1615409Y1071154D1*
X1616367Y1070262D1*
X1617300Y1069343D1*
X1618205Y1068397D1*
X1619083Y1067426D1*
X1619933Y1066430D1*
X1620753Y1065409D1*
X1621544Y1064365D1*
X1622305Y1063299D1*
X1623034Y1062212D1*
X1623732Y1061104D1*
X1624397Y1059976D1*
X1625030Y1058830D1*
X1625629Y1057666D1*
X1626195Y1056485D1*
X1626726Y1055288D1*
X1627223Y1054076D1*
X1627685Y1052851D1*
X1628111Y1051613D1*
X1628501Y1050363D1*
X1628855Y1049102D1*
X1629172Y1047832D1*
X1629453Y1046553D1*
X1629697Y1045266D1*
X1629903Y1043973D1*
X1630073Y1042675D1*
X1630205Y1041372D1*
X1630299Y1040066D1*
X1630355Y1038758D1*
X1630374Y1037451D1*
X1630355Y1036139D1*
X1930204Y1033519D2*
X1929698Y1029643D1*
X1928861Y1025824D1*
X1927699Y1022092D1*
X1926220Y1018473D1*
X1924436Y1014995D1*
X1922359Y1011683D1*
X1920006Y1008561D1*
X1917392Y1005654D1*
X1914539Y1002982D1*
X1911466Y1000565D1*
X1908197Y998422D1*
X1904755Y996567D1*
X1901167Y995015D1*
X1897459Y993777D1*
X1893659Y992863D1*
X1889793Y992278D1*
X1885892Y992028D1*
X1881984Y992115D1*
X1878097Y992537D1*
X1874261Y993291D1*
X1870505Y994373D1*
X1866855Y995773D1*
X1863339Y997482D1*
X1859983Y999487D1*
X1856812Y1001773D1*
X1853849Y1004324D1*
X1851116Y1007119D1*
X1848634Y1010139D1*
X1846420Y1013361D1*
X1844492Y1016762D1*
X1842863Y1020316D1*
X1841546Y1023996D1*
X1840550Y1027776D1*
X1839883Y1031628D1*
X1839549Y1035523D1*
X1839551Y1039433D1*
X1839889Y1043327D1*
X1840561Y1047178D1*
X1841562Y1050957D1*
X1842883Y1054636D1*
X1844516Y1058188D1*
X1846449Y1061587D1*
X1848666Y1064806D1*
X1851152Y1067823D1*
X1853888Y1070616D1*
X1856854Y1073162D1*
X1860028Y1075445D1*
X1863386Y1077446D1*
X1866904Y1079151D1*
X1870555Y1080547D1*
X1874313Y1081624D1*
X1878150Y1082374D1*
X1882037Y1082792D1*
X1885945Y1082873D1*
X1889846Y1082619D1*
X1893711Y1082030D1*
X1897510Y1081111D1*
X1901217Y1079869D1*
X1904803Y1078313D1*
X1908242Y1076454D1*
X1911509Y1074307D1*
X1914579Y1071886D1*
X1917429Y1069211D1*
X1920039Y1066301D1*
X1922389Y1063177D1*
X1924462Y1059862D1*
X1926242Y1056382D1*
X1927717Y1052761D1*
X1928875Y1049027D1*
X1929707Y1045208D1*
X1930208Y1041331D1*
X1930374Y1037451D1*
X1930204Y1033519D1*
X2030204D2*
X2029698Y1029643D1*
X2028861Y1025824D1*
X2027699Y1022092D1*
X2026220Y1018473D1*
X2024436Y1014995D1*
X2022359Y1011683D1*
X2020006Y1008561D1*
X2017392Y1005654D1*
X2014539Y1002982D1*
X2011466Y1000565D1*
X2008197Y998422D1*
X2004755Y996567D1*
X2001167Y995015D1*
X1997459Y993777D1*
X1993659Y992863D1*
X1989793Y992278D1*
X1985892Y992028D1*
X1981984Y992115D1*
X1978097Y992537D1*
X1974261Y993291D1*
X1970505Y994373D1*
X1966855Y995773D1*
X1963339Y997482D1*
X1959983Y999487D1*
X1956812Y1001773D1*
X1953849Y1004324D1*
X1951116Y1007119D1*
X1948634Y1010139D1*
X1946420Y1013361D1*
X1944492Y1016762D1*
X1942863Y1020316D1*
X1941546Y1023996D1*
X1940550Y1027776D1*
X1939883Y1031628D1*
X1939549Y1035523D1*
X1939551Y1039433D1*
X1939889Y1043327D1*
X1940561Y1047178D1*
X1941562Y1050957D1*
X1942883Y1054636D1*
X1944516Y1058188D1*
X1946449Y1061587D1*
X1948666Y1064806D1*
X1951152Y1067823D1*
X1953888Y1070616D1*
X1956854Y1073162D1*
X1960028Y1075445D1*
X1963386Y1077446D1*
X1966904Y1079151D1*
X1970555Y1080547D1*
X1974313Y1081624D1*
X1978150Y1082374D1*
X1982037Y1082792D1*
X1985945Y1082873D1*
X1989846Y1082619D1*
X1993711Y1082030D1*
X1997510Y1081111D1*
X2001217Y1079869D1*
X2004803Y1078313D1*
X2008242Y1076454D1*
X2011509Y1074307D1*
X2014579Y1071886D1*
X2017429Y1069211D1*
X2020039Y1066301D1*
X2022389Y1063177D1*
X2024462Y1059862D1*
X2026242Y1056382D1*
X2027717Y1052761D1*
X2028875Y1049027D1*
X2029707Y1045208D1*
X2030208Y1041331D1*
X2030374Y1037451D1*
X2030204Y1033519D1*
X955196Y624016D2*
X1048687D1*
Y529212D1*
X953883D1*
Y624016D1*
X955196D1*
X1016024Y631586D2*
X1012904Y630659D1*
X1009069Y629856D1*
X1005181Y629373D1*
X1001267Y629213D1*
X997352Y629376D1*
X993465Y629862D1*
X989631Y630668D1*
X985876Y631787D1*
X982227Y633212D1*
X978708Y634934D1*
X975343Y636941D1*
X972156Y639219D1*
X969167Y641752D1*
X966398Y644523D1*
X963867Y647514D1*
X961592Y650703D1*
X959588Y654069D1*
X957868Y657590D1*
X956446Y661240D1*
X955329Y664995D1*
X954527Y668830D1*
X954044Y672718D1*
X953883Y676632D1*
X954047Y680547D1*
X954533Y684434D1*
X954834Y685868D1*
X951995Y684712D1*
X948118Y684061D1*
X939592Y684046D1*
X692910D1*
X692913Y641204D1*
Y519791D1*
X729563Y519794D1*
X1045473D1*
X1058850Y533172D1*
X1058848Y562379D1*
X1058715Y562807D1*
X1057961Y566694D1*
X1057955Y570654D1*
X1058699Y574542D1*
X1058847Y574912D1*
X1058848Y581126D1*
X1058715Y581558D1*
X1057961Y585445D1*
X1057955Y589404D1*
X1058699Y593293D1*
X1058847Y593663D1*
X1058848Y599873D1*
X1058715Y600306D1*
X1057961Y604193D1*
X1057955Y608152D1*
X1058699Y612041D1*
X1058847Y612411D1*
X1058848Y616736D1*
X1040814Y634766D1*
X1016138Y631601D1*
X1053672Y480109D2*
X692911D1*
X692913Y449278D1*
X748015Y449277D1*
X892815Y449263D1*
X894764Y448746D1*
X896202Y447333D1*
X896751Y445391D1*
X896752Y405512D1*
X2216876D1*
X2216880Y421341D1*
X2216881Y457826D1*
X2217397Y459774D1*
X2218810Y461212D1*
X2220752Y461761D1*
X2333440Y461762D1*
X2335388Y461246D1*
X2336826Y459833D1*
X2337376Y457892D1*
X2337377Y405514D1*
X2628702Y405512D1*
X2916428D1*
Y475502D1*
X3026979D1*
Y405512D1*
X3137795D1*
Y1094400D1*
X2337377Y1094390D1*
Y1042077D1*
X2336861Y1040129D1*
X2335447Y1038691D1*
X2333506Y1038141D1*
X2220818Y1038140D1*
X2218869Y1038656D1*
X2217431Y1040070D1*
X2216881Y1042011D1*
X2216880Y1094389D1*
X896749Y1094390D1*
X896752Y1054577D1*
X896236Y1052629D1*
X894823Y1051191D1*
X892881Y1050641D1*
X692910Y1050621D1*
X692913Y1015854D1*
X729543Y1015857D1*
X1390245D1*
X1393252Y1017974D1*
X1396852Y1019623D1*
X1400698Y1020562D1*
X1404653Y1020756D1*
X1408573Y1020198D1*
X1412316Y1018908D1*
X1415748Y1016933D1*
X1418744Y1014344D1*
X1421196Y1011235D1*
X1423015Y1007718D1*
X1424135Y1003921D1*
X1424517Y999951D1*
X1424146Y996038D1*
X1423036Y992237D1*
X1421226Y988716D1*
X1418783Y985600D1*
X1415794Y983003D1*
X1412368Y981019D1*
X1408628Y979718D1*
X1404710Y979150D1*
X1400754Y979333D1*
X1396905Y980261D1*
X1393302Y981901D1*
X1390278Y984048D1*
X936549Y984046D1*
X692912D1*
X692913Y915860D1*
X737448Y915857D1*
X818975D1*
X858069Y954949D1*
X861168Y957362D1*
X864763Y958942D1*
X868639Y959593D1*
X877160Y959608D1*
X1088066D1*
X1091963Y959123D1*
X1095622Y957698D1*
X1098823Y955417D1*
X1104596Y949665D1*
X1119655Y934607D1*
X1402742Y934608D1*
X1405752Y936724D1*
X1409352Y938374D1*
X1413198Y939313D1*
X1417153Y939507D1*
X1421073Y938948D1*
X1424816Y937659D1*
X1428248Y935684D1*
X1431244Y933095D1*
X1433696Y929986D1*
X1435515Y926469D1*
X1436635Y922671D1*
X1437017Y918702D1*
X1436646Y914788D1*
X1435536Y910988D1*
X1433726Y907466D1*
X1431283Y904351D1*
X1428294Y901754D1*
X1424868Y899769D1*
X1421128Y898469D1*
X1417210Y897900D1*
X1413254Y898083D1*
X1409405Y899012D1*
X1405802Y900651D1*
X1402778Y902798D1*
X1113080Y902797D1*
X1111177Y902909D1*
X1107365Y903853D1*
X1103901Y905703D1*
X1101819Y907455D1*
X1081476Y927798D1*
X875902Y927797D1*
X836823Y888714D1*
X835397Y887448D1*
X832034Y885421D1*
X828277Y884279D1*
X825566Y884046D1*
X692913D1*
X692914Y715857D1*
X940853D1*
X961184Y736188D1*
X962609Y737454D1*
X965972Y739482D1*
X969732Y740624D1*
X970378Y740725D1*
X969167Y741752D1*
X966398Y744523D1*
X963867Y747514D1*
X961592Y750703D1*
X959588Y754069D1*
X957868Y757590D1*
X956446Y761240D1*
X955329Y764995D1*
X954527Y768830D1*
X954044Y772718D1*
X953883Y776632D1*
X954047Y780547D1*
X954533Y784434D1*
X955338Y788268D1*
X956457Y792023D1*
X957883Y795672D1*
X959605Y799191D1*
X961612Y802556D1*
X963889Y805743D1*
X966423Y808732D1*
X969194Y811501D1*
X972184Y814032D1*
X975374Y816307D1*
X978740Y818311D1*
X982260Y820031D1*
X985911Y821453D1*
X989666Y822570D1*
X993501Y823372D1*
X997388Y823855D1*
X1001303Y824016D1*
X1005217Y823852D1*
X1009105Y823366D1*
X1012939Y822561D1*
X1016693Y821442D1*
X1020342Y820016D1*
X1023861Y818294D1*
X1027226Y816287D1*
X1030414Y814010D1*
X1033402Y811476D1*
X1036172Y808705D1*
X1038702Y805714D1*
X1040978Y802525D1*
X1042982Y799159D1*
X1044701Y795639D1*
X1045614Y793297D1*
X1063045Y763091D1*
X1104031Y722105D1*
X1133301Y722106D1*
X1032683Y822722D1*
X1000413Y829221D1*
X997352Y829376D1*
X993465Y829862D1*
X989631Y830668D1*
X985876Y831787D1*
X982227Y833212D1*
X978708Y834934D1*
X975343Y836941D1*
X972156Y839219D1*
X969167Y841752D1*
X966398Y844523D1*
X963867Y847514D1*
X961592Y850703D1*
X959588Y854069D1*
X957868Y857590D1*
X956446Y861240D1*
X955329Y864995D1*
X954527Y868830D1*
X954044Y872718D1*
X953883Y876632D1*
X954047Y880547D1*
X954533Y884434D1*
X955338Y888268D1*
X956457Y892023D1*
X957883Y895672D1*
X959605Y899191D1*
X961612Y902556D1*
X963889Y905743D1*
X966423Y908732D1*
X969194Y911501D1*
X972184Y914032D1*
X975374Y916307D1*
X978740Y918311D1*
X982260Y920031D1*
X985911Y921453D1*
X989666Y922570D1*
X993501Y923372D1*
X997388Y923855D1*
X1001303Y924016D1*
X1005217Y923852D1*
X1009105Y923366D1*
X1012939Y922561D1*
X1016693Y921442D1*
X1020342Y920016D1*
X1023861Y918294D1*
X1027226Y916287D1*
X1030414Y914010D1*
X1033402Y911476D1*
X1036172Y908705D1*
X1038702Y905714D1*
X1040978Y902525D1*
X1042982Y899159D1*
X1044701Y895639D1*
X1046124Y891988D1*
X1047240Y888233D1*
X1048043Y884398D1*
X1048526Y880510D1*
X1048643Y877661D1*
X1055176Y845215D1*
X1159534Y740859D1*
X1511208Y740857D1*
X1538050D1*
X1539955Y740744D1*
X1543766Y739800D1*
X1547231Y737951D1*
X1549313Y736198D1*
X1682152Y603359D1*
X1939364Y603357D1*
X2033995D1*
X2037003Y605474D1*
X2040602Y607123D1*
X2044449Y608062D1*
X2048404Y608256D1*
X2052323Y607698D1*
X2056067Y606408D1*
X2059499Y604433D1*
X2062494Y601844D1*
X2064946Y598735D1*
X2066765Y595218D1*
X2067886Y591421D1*
X2068268Y587451D1*
X2067897Y583538D1*
X2066786Y579737D1*
X2064977Y576216D1*
X2062534Y573100D1*
X2059545Y570503D1*
X2056119Y568519D1*
X2052379Y567218D1*
X2048460Y566650D1*
X2044505Y566833D1*
X2040656Y567761D1*
X2037052Y569401D1*
X2034029Y571548D1*
X2012769Y571544D1*
X2013358Y569545D1*
X2013740Y565576D1*
X2013369Y561663D1*
X2012259Y557862D1*
X2010449Y554340D1*
X2008006Y551225D1*
X2005017Y548628D1*
X2001591Y546643D1*
X1997851Y545343D1*
X1993933Y544774D1*
X1989978Y544957D1*
X1986128Y545886D1*
X1982525Y547525D1*
X1979501Y549672D1*
X1764634Y549671D1*
X1675566D1*
X1671669Y550155D1*
X1668009Y551580D1*
X1664808Y553861D1*
X1664311Y554337D1*
X1572522Y646126D1*
X1570346Y643412D1*
X1567357Y640815D1*
X1563931Y638831D1*
X1560191Y637531D1*
X1556273Y636962D1*
X1552317Y637145D1*
X1548468Y638073D1*
X1544864Y639713D1*
X1541636Y642005D1*
X1538900Y644867D1*
X1536755Y648195D1*
X1535278Y651869D1*
X1534524Y655756D1*
X1534523Y655999D1*
X1518976Y671547D1*
X1069316Y671546D1*
X1065419Y672031D1*
X1061760Y673455D1*
X1061077Y673847D1*
X1060413Y674271D1*
X1059772Y674728D1*
X1059154Y675216D1*
X1058536Y675756D1*
X1065388Y666315D1*
X1088446Y643258D1*
X1090748Y641933D1*
X1093744Y639344D1*
X1096196Y636235D1*
X1098015Y632718D1*
X1099135Y628921D1*
X1099517Y624951D1*
X1099146Y621038D1*
X1098533Y618941D1*
Y612524D1*
X1099135Y610170D1*
X1099517Y606201D1*
X1099146Y602287D1*
X1098533Y600190D1*
X1098532Y593466D1*
X1099135Y591422D1*
X1099517Y587453D1*
X1099146Y583539D1*
X1098533Y581442D1*
Y575030D1*
X1099135Y572671D1*
X1099517Y568702D1*
X1099146Y564788D1*
X1098533Y562692D1*
Y531277D1*
X1099135Y528920D1*
X1099517Y524950D1*
X1099146Y521037D1*
X1098036Y517236D1*
X1096226Y513714D1*
X1093783Y510599D1*
X1090794Y508002D1*
X1088442Y506639D1*
X1067722Y485921D1*
X1064681Y483430D1*
X1061209Y481588D1*
X1057438Y480466D1*
X1053672Y480109D1*
X1608925Y730108D2*
X1607804Y729718D1*
X1603885Y729150D1*
X1599930Y729333D1*
X1596709Y730109D1*
X1596730Y769795D2*
X1599874Y770562D1*
X1603829Y770756D1*
X1607749Y770198D1*
X1608922Y769793D1*
X1465456Y846205D2*
X1466578Y842434D1*
X1468420Y838962D1*
X1470910Y835921D1*
X1566442Y740383D1*
X1568588Y737055D1*
X1571324Y734193D1*
X1574552Y731901D1*
X1578156Y730261D1*
X1582005Y729333D1*
X1585960Y729150D1*
X1589879Y729718D1*
X1591000Y730108D1*
X1596709Y730109D1*
X1599930Y729333D1*
X1603885Y729150D1*
X1607804Y729718D1*
X1609194Y730109D1*
X1613159D1*
X1616380Y729333D1*
X1620336Y729150D1*
X1624254Y729718D1*
X1625375Y730108D1*
X1730444Y730112D1*
X1729830Y726903D1*
X1729836Y722943D1*
X1730590Y719057D1*
X1732067Y715383D1*
X1734212Y712055D1*
X1736948Y709193D1*
X1740177Y706901D1*
X1743781Y705261D1*
X1747630Y704333D1*
X1751585Y704150D1*
X1755503Y704718D1*
X1759243Y706019D1*
X1762669Y708003D1*
X1764007Y709046D1*
X1786060Y709044D1*
X1792389Y702715D1*
X1792390Y702471D1*
X1793144Y698584D1*
X1794621Y694910D1*
X1796766Y691582D1*
X1799502Y688721D1*
X1802731Y686428D1*
X1806334Y684788D1*
X1810184Y683860D1*
X1814139Y683677D1*
X1818057Y684246D1*
X1821797Y685546D1*
X1825223Y687531D1*
X1828212Y690127D1*
X1830655Y693243D1*
X1832465Y696765D1*
X1833575Y700565D1*
X1833946Y704507D1*
X1833728Y707478D1*
X1845898Y695308D1*
X1848815Y692897D1*
X1852272Y691026D1*
X1856030Y689873D1*
X1859941Y689484D1*
X2147441D1*
X2150708Y689755D1*
X2154502Y690783D1*
X2158019Y692539D1*
X2161123Y694956D1*
X2163381Y697205D1*
X2232706Y766526D1*
X2256908Y766527D1*
X2260130Y765750D1*
X2264085Y765567D1*
X2268003Y766136D1*
X2269396Y766526D1*
X2369408Y766527D1*
X2372630Y765750D1*
X2376585Y765567D1*
X2380503Y766136D1*
X2381891Y766526D1*
X2508901Y766527D1*
X2514853Y764292D1*
X2514855Y758967D1*
X2286486D1*
X2284500Y760684D1*
X2281068Y762659D1*
X2277325Y763948D1*
X2273405Y764507D1*
X2269450Y764313D1*
X2265604Y763374D1*
X2262004Y761724D1*
X2258782Y759423D1*
X2256054Y756554D1*
X2253918Y753220D1*
X2252451Y749542D1*
X2251707Y745654D1*
X2251713Y741694D1*
X2252467Y737807D1*
X2253944Y734133D1*
X2256089Y730806D1*
X2258825Y727944D1*
X2262053Y725651D1*
X2265657Y724012D1*
X2269506Y723083D1*
X2273462Y722900D1*
X2277380Y723469D1*
X2281120Y724769D1*
X2284546Y726754D1*
X2285093Y727156D1*
X2514853Y727155D1*
X2514851Y715660D1*
X2254227Y715658D1*
X2248227Y721656D1*
X2249351Y723090D1*
X2251160Y726611D1*
X2252271Y730412D1*
X2252642Y734354D1*
X2252260Y738295D1*
X2251139Y742092D1*
X2249320Y745609D1*
X2246868Y748718D1*
X2243873Y751307D1*
X2240441Y753282D1*
X2236697Y754572D1*
X2232778Y755130D1*
X2228823Y754936D1*
X2224976Y753997D1*
X2221377Y752348D1*
X2218155Y750047D1*
X2215426Y747177D1*
X2213290Y743844D1*
X2211824Y740166D1*
X2211080Y736277D1*
X2211085Y732317D1*
X2211840Y728431D1*
X2213316Y724757D1*
X2215462Y721429D1*
X2215909Y720881D1*
Y715576D1*
X2216142Y712864D1*
X2217284Y709107D1*
X2219315Y705742D1*
X2220578Y704319D1*
X2236390Y688508D1*
X2238472Y686755D1*
X2241936Y684906D1*
X2245751Y683962D1*
X2247654Y683849D1*
X2514853Y683848D1*
Y630699D1*
X2617530D1*
Y717317D1*
X2617526Y760621D1*
X2617530Y764873D1*
Y847238D1*
X2617526Y890542D1*
X2617530Y894794D1*
Y973534D1*
Y1014558D1*
X2633278D1*
Y1085739D1*
X2554223D1*
Y1028652D1*
X2514853D1*
X2514851Y1018810D1*
X2391770D1*
X2387213Y1018795D1*
X2383340Y1018144D1*
X2379745Y1016564D1*
X2376647Y1014151D1*
X2336236Y973744D1*
X2335074Y973687D1*
X2331227Y972748D1*
X2327628Y971098D1*
X2324406Y968797D1*
X2321677Y965928D1*
X2319541Y962594D1*
X2318074Y958916D1*
X2317330Y955028D1*
X2317336Y951068D1*
X2318090Y947181D1*
X2319567Y943508D1*
X2321712Y940180D1*
X2324448Y937318D1*
X2327677Y935025D1*
X2331281Y933386D1*
X2335130Y932457D1*
X2339085Y932274D1*
X2343003Y932843D1*
X2346743Y934143D1*
X2350169Y936128D1*
X2353158Y938725D1*
X2355602Y941840D1*
X2357411Y945362D1*
X2358521Y949163D1*
X2358820Y951337D1*
X2394481Y986999D1*
X2514853D1*
X2514857Y942038D1*
X2514853Y937786D1*
X2514854Y932196D1*
X2355117D1*
X2350599Y932181D1*
X2346726Y931530D1*
X2343131Y929950D1*
X2340033Y927537D1*
X2292487Y879994D1*
X2291324Y879937D1*
X2287478Y878999D1*
X2283878Y877349D1*
X2280656Y875048D1*
X2277928Y872179D1*
X2275792Y868845D1*
X2274325Y865167D1*
X2273581Y861278D1*
X2273587Y857319D1*
X2274341Y853432D1*
X2275818Y849758D1*
X2277963Y846430D1*
X2280699Y843568D1*
X2283927Y841276D1*
X2287531Y839636D1*
X2291380Y838708D1*
X2295336Y838525D1*
X2299254Y839094D1*
X2302994Y840394D1*
X2306420Y842378D1*
X2309409Y844975D1*
X2311852Y848091D1*
X2313662Y851613D1*
X2314772Y855413D1*
X2315068Y857585D1*
X2357864Y900384D1*
X2514853D1*
X2514857Y855424D1*
X2514853Y851172D1*
X2514855Y845581D1*
X2502771D1*
X2498360Y845567D1*
X2494487Y844916D1*
X2490892Y843336D1*
X2487794Y840923D1*
X2478356Y831482D1*
X2329491Y831483D1*
X2328248Y832558D1*
X2324816Y834533D1*
X2321073Y835822D1*
X2317153Y836381D1*
X2313198Y836187D1*
X2309352Y835248D1*
X2305752Y833598D1*
X2302530Y831297D1*
X2299802Y828428D1*
X2297666Y825094D1*
X2296199Y821416D1*
X2295455Y817528D1*
X2295461Y813568D1*
X2296215Y809681D1*
X2297585Y806211D1*
X2269122D1*
X2267948Y806615D1*
X2264028Y807173D1*
X2260074Y806979D1*
X2256742Y806211D1*
X2224483D1*
X2221216Y805940D1*
X2217422Y804913D1*
X2213905Y803157D1*
X2210801Y800740D1*
X2208543Y798490D1*
X2139220Y729169D1*
X2111257D1*
X2111802Y729208D1*
X2112585Y729293D1*
X2113364Y729408D1*
X2114138Y729552D1*
X2114906Y729725D1*
X2115667Y729927D1*
X2116420Y730158D1*
X2117163Y730417D1*
X2117897Y730704D1*
X2118619Y731019D1*
X2122045Y733003D1*
X2125034Y735600D1*
X2127477Y738716D1*
X2129286Y742237D1*
X2130397Y746038D1*
X2130768Y749951D1*
X2130733Y751172D1*
X2133629Y751592D1*
X2137369Y752893D1*
X2140795Y754877D1*
X2143784Y757474D1*
X2146228Y760590D1*
X2148037Y764111D1*
X2149147Y767912D1*
X2149518Y771854D1*
X2149137Y775795D1*
X2148016Y779592D1*
X2146197Y783109D1*
X2144597Y785274D1*
Y824951D1*
X2144364Y827663D1*
X2143222Y831420D1*
X2141192Y834786D1*
X2139931Y836206D1*
X2089939Y886198D1*
X2087857Y887951D1*
X2084392Y889800D1*
X2080577Y890744D1*
X2078674Y890857D1*
X1841531Y890855D1*
X1800847Y931543D1*
X1800846Y980326D1*
X1817783Y1006088D1*
X1820006Y1008561D1*
X1822359Y1011683D1*
X1824436Y1014995D1*
X1826220Y1018473D1*
X1827699Y1022092D1*
X1828861Y1025824D1*
X1829698Y1029643D1*
X1830204Y1033519D1*
X1830374Y1037451D1*
X1830208Y1041331D1*
X1829707Y1045208D1*
X1828875Y1049027D1*
X1827717Y1052761D1*
X1826242Y1056382D1*
X1824462Y1059862D1*
X1822389Y1063177D1*
X1820039Y1066301D1*
X1817429Y1069211D1*
X1814579Y1071886D1*
X1811509Y1074307D1*
X1808242Y1076454D1*
X1804803Y1078313D1*
X1801217Y1079869D1*
X1797510Y1081111D1*
X1793711Y1082030D1*
X1789846Y1082619D1*
X1785945Y1082873D1*
X1782037Y1082792D1*
X1778150Y1082374D1*
X1774313Y1081624D1*
X1770555Y1080547D1*
X1766904Y1079151D1*
X1763386Y1077446D1*
X1760028Y1075445D1*
X1756854Y1073162D1*
X1753888Y1070616D1*
X1751152Y1067823D1*
X1748666Y1064806D1*
X1746449Y1061587D1*
X1744516Y1058188D1*
X1742883Y1054636D1*
X1741562Y1050957D1*
X1740561Y1047178D1*
X1739889Y1043327D1*
X1739551Y1039433D1*
X1739549Y1035523D1*
X1739883Y1031628D1*
X1740550Y1027776D1*
X1741546Y1023996D1*
X1742863Y1020316D1*
X1744492Y1016762D1*
X1746420Y1013361D1*
X1748634Y1010139D1*
X1751116Y1007119D1*
X1752164Y1005990D1*
X1769035Y980325D1*
X1769036Y938349D1*
X1714251Y993131D1*
X1724065Y1014403D1*
X1724436Y1014995D1*
X1726220Y1018473D1*
X1727699Y1022092D1*
X1728861Y1025824D1*
X1729698Y1029643D1*
X1730204Y1033519D1*
X1730374Y1037451D1*
X1730208Y1041331D1*
X1729707Y1045208D1*
X1728875Y1049027D1*
X1727717Y1052761D1*
X1726242Y1056382D1*
X1724462Y1059862D1*
X1722389Y1063177D1*
X1720039Y1066301D1*
X1717429Y1069211D1*
X1714579Y1071886D1*
X1711509Y1074307D1*
X1708242Y1076454D1*
X1704803Y1078313D1*
X1701217Y1079869D1*
X1697510Y1081111D1*
X1693711Y1082030D1*
X1689846Y1082619D1*
X1685945Y1082873D1*
X1682037Y1082792D1*
X1678150Y1082374D1*
X1674313Y1081624D1*
X1670555Y1080547D1*
X1666904Y1079151D1*
X1663386Y1077446D1*
X1660028Y1075445D1*
X1656854Y1073162D1*
X1653888Y1070616D1*
X1651152Y1067823D1*
X1648666Y1064806D1*
X1646449Y1061587D1*
X1644516Y1058188D1*
X1642883Y1054636D1*
X1641562Y1050957D1*
X1640561Y1047178D1*
X1639889Y1043327D1*
X1639551Y1039433D1*
X1639549Y1035523D1*
X1639883Y1031628D1*
X1640550Y1027776D1*
X1641546Y1023996D1*
X1642863Y1020316D1*
X1644492Y1016762D1*
X1646420Y1013361D1*
X1648634Y1010139D1*
X1651116Y1007119D1*
X1653849Y1004324D1*
X1656812Y1001773D1*
X1659983Y999487D1*
X1660589Y999125D1*
X1686085Y976312D1*
X1814679Y847718D1*
X1817935Y844483D1*
X1821134Y842205D1*
X1824793Y840780D1*
X1828690Y840295D1*
X2065852Y840297D1*
X2094035Y812115D1*
X2094033Y763253D1*
X2092995Y762059D1*
X2091010Y758634D1*
X2089709Y754894D1*
X2089139Y750976D1*
X2089321Y747021D1*
X2090249Y743171D1*
X2091888Y739567D1*
X2094179Y736338D1*
X2097040Y733601D1*
X2100368Y731455D1*
X2101074Y731107D1*
X2101792Y730785D1*
X2102523Y730491D1*
X2103264Y730224D1*
X2104014Y729986D1*
X2104773Y729776D1*
X2105539Y729595D1*
X2106312Y729443D1*
X2107089Y729321D1*
X2107871Y729228D1*
X2108577Y729169D1*
X2071811D1*
X2071809Y776239D1*
X2074254Y776594D1*
X2077994Y777894D1*
X2081420Y779878D1*
X2084409Y782475D1*
X2086852Y785591D1*
X2088662Y789113D1*
X2089772Y792913D1*
X2090143Y796855D1*
X2089761Y800796D1*
X2088641Y804594D1*
X2086821Y808110D1*
X2084370Y811219D1*
X2081374Y813808D1*
X2077942Y815783D1*
X2074199Y817073D1*
X2074080Y817090D1*
X2072305Y817580D1*
X2068401Y818066D1*
X2063829Y818072D1*
X2058024D1*
X2056851Y818476D1*
X2052931Y819034D1*
X2048976Y818840D1*
X2045832Y818073D1*
X2048976Y818840D1*
X2052931Y819034D1*
X2056851Y818476D1*
X2058024Y818072D1*
X2056851Y818476D1*
X2052931Y819034D1*
X2048976Y818840D1*
X2045644Y818072D1*
X2036363D1*
X2032590Y817713D1*
X2029383Y816811D1*
X2028102Y816499D1*
X2024503Y814849D1*
X2021281Y812548D1*
X2018552Y809679D1*
X2016416Y806345D1*
X2014950Y802667D1*
X2014206Y798778D1*
X2014211Y794819D1*
X2014966Y790932D1*
X2016442Y787258D1*
X2018588Y783930D1*
X2021324Y781068D1*
X2024552Y778776D1*
X2028156Y777136D1*
X2032005Y776208D1*
X2032125Y776202D1*
X2032123Y729169D1*
X1868159Y729170D1*
X1833347Y763982D1*
X1830845Y766101D1*
X1827436Y768057D1*
X1823708Y769302D1*
X1819803Y769788D1*
X1816076Y769794D1*
X1625372Y769793D1*
X1624199Y770198D1*
X1620279Y770756D1*
X1616324Y770562D1*
X1612988Y769794D1*
X1608922Y769793D1*
X1607749Y770198D1*
X1603829Y770756D1*
X1599874Y770562D1*
X1596537Y769794D1*
X1593158Y769796D1*
X1504784Y858168D1*
X1504781Y979813D1*
X1514238Y992018D1*
X1530374D1*
Y1082884D1*
X1439508D1*
Y992018D1*
X1455645Y992021D1*
X1465098Y979815D1*
Y849971D1*
X1465456Y846205D1*
X2314969Y857488D2*
X2314772Y855413D1*
X2313662Y851613D1*
X2311852Y848091D1*
X2309409Y844975D1*
X2306420Y842378D1*
X2302994Y840394D1*
X2299254Y839094D1*
X2295336Y838525D1*
X2291380Y838708D1*
X2287531Y839636D1*
X2283927Y841276D1*
X2280699Y843568D1*
X2277963Y846430D1*
X2275818Y849758D1*
X2274341Y853432D1*
X2273587Y857319D1*
X2273581Y861278D1*
X2274325Y865167D1*
X2275792Y868845D1*
X2277928Y872179D1*
X2280656Y875048D1*
X2283878Y877349D1*
X2287478Y878999D1*
X2291324Y879937D1*
X2292487Y879994D1*
X2514868Y872983D2*
X2617515D1*
X2554238Y475345D2*
X2633263D1*
X2593751Y431896D2*
Y518794D1*
X2554238Y1050148D2*
X2633263D1*
X2593751D2*
Y1085724D1*
X2916443Y1050148D2*
X3026964D1*
X2971703Y1014573D2*
Y1085724D1*
X2916443Y439912D2*
X3026964D1*
X2971703D2*
Y475487D1*
X1584941Y1082869D2*
Y992034D1*
X1539523Y1037451D2*
X1630359D1*
X1048671Y576614D2*
X953898D1*
X1001285Y624001D2*
Y529228D1*
D19*
X540576Y499951D3*
Y599951D3*
Y699951D3*
Y799951D3*
Y899951D3*
Y999951D3*
D20*
X2566192Y656448D3*
Y699755D3*
Y743062D3*
Y786369D3*
Y829676D3*
Y872983D3*
Y916290D3*
Y959597D3*
Y1002904D3*
D21*
X2593751Y475345D3*
D22*
Y1050148D3*
D23*
X2971703D3*
Y439912D3*
D24*
X1484941Y1037451D3*
D25*
X1584941D3*
X1684941D3*
X1784941D3*
X1884941D3*
X1984941D3*
D26*
X1001285Y576614D3*
D27*
Y676614D3*
Y776614D3*
Y876614D3*
M02*
