G04 DipTrace 4.3.0.3*
G04 BottomSilk.gbr*
%MOIN*%
G04 #@! TF.FileFunction,Legend,Bot*
G04 #@! TF.Part,Single*
%ADD10C,0.009843*%
%ADD65C,0.00772*%
%ADD66C,0.006176*%
%ADD67C,0.004632*%
%FSLAX26Y26*%
G04*
G70*
G90*
G75*
G01*
G04 BotSilk*
%LPD*%
X740576Y1042570D2*
D10*
X796825Y986320D1*
X740576Y457333D2*
X796825Y513584D1*
Y948820D2*
Y986320D1*
Y513584D2*
Y551084D1*
X2641684Y1050148D2*
X2929085D1*
X2641684Y459597D2*
X2929085D1*
X2164627Y476645D2*
D65*
X2195744D1*
Y426405D1*
Y452713D2*
X2176621D1*
X2149188Y476645D2*
Y426405D1*
X2132441D1*
X2125256Y428837D1*
X2120448Y433590D1*
X2118071Y438398D1*
X2115694Y445528D1*
Y457522D1*
X2118071Y464707D1*
X2120448Y469460D1*
X2125256Y474268D1*
X2132441Y476645D1*
X2149188D1*
X2066762Y469460D2*
X2071515Y474268D1*
X2078700Y476645D1*
X2088262D1*
X2095447Y474268D1*
X2100255Y469460D1*
Y464707D1*
X2097823Y459898D1*
X2095447Y457522D1*
X2090694Y455145D1*
X2076323Y450337D1*
X2071515Y447960D1*
X2069138Y445528D1*
X2066762Y440775D1*
Y433590D1*
X2071515Y428837D1*
X2078700Y426405D1*
X2088262D1*
X2095447Y428837D1*
X2100255Y433590D1*
X2051323Y476645D2*
Y426405D1*
X2017829Y476645D2*
X2051323Y443152D1*
X2039384Y455145D2*
X2017829Y426405D1*
X2002390Y445528D2*
X1973705D1*
Y450337D1*
X1976082Y455145D1*
X1978458Y457522D1*
X1983267Y459898D1*
X1990452D1*
X1995205Y457522D1*
X2000013Y452713D1*
X2002390Y445528D1*
Y440775D1*
X2000013Y433590D1*
X1995205Y428837D1*
X1990452Y426405D1*
X1983267D1*
X1978458Y428837D1*
X1973705Y433590D1*
X1955834Y459898D2*
X1941519Y426405D1*
X1946272Y416843D1*
X1951081Y412035D1*
X1955834Y409658D1*
X1958266D1*
X1927149Y459898D2*
X1941519Y426405D1*
X1863109Y459898D2*
Y426405D1*
Y445528D2*
X1860677Y452713D1*
X1855924Y457522D1*
X1851115Y459898D1*
X1843930D1*
X1828491Y445528D2*
X1799806D1*
Y450337D1*
X1802183Y455145D1*
X1804559Y457522D1*
X1809368Y459898D1*
X1816553D1*
X1821306Y457522D1*
X1826115Y452713D1*
X1828491Y445528D1*
Y440775D1*
X1826115Y433590D1*
X1821306Y428837D1*
X1816553Y426405D1*
X1809368D1*
X1804559Y428837D1*
X1799806Y433590D1*
X1784367Y459898D2*
X1769997Y426405D1*
X1755682Y459898D1*
X1737866Y431213D2*
X1740243Y428782D1*
X1737866Y426405D1*
X1735434Y428782D1*
X1737866Y431213D1*
X1671394Y467028D2*
X1666586Y469460D1*
X1659401Y476590D1*
Y426405D1*
X1641585Y431213D2*
X1643962Y428782D1*
X1641585Y426405D1*
X1639153Y428782D1*
X1641585Y431213D1*
X1623714Y467028D2*
X1618905Y469460D1*
X1611720Y476590D1*
Y426405D1*
X1567541Y452713D2*
X1572349Y457522D1*
X1577158Y459898D1*
X1584288D1*
X1589096Y457522D1*
X1593849Y452713D1*
X1596281Y445528D1*
Y440775D1*
X1593849Y433590D1*
X1589096Y428837D1*
X1584288Y426405D1*
X1577158D1*
X1572349Y428837D1*
X1567541Y433590D1*
X1378965Y454263D2*
X1383774Y459072D1*
X1388582Y461448D1*
X1395712D1*
X1400521Y459072D1*
X1405274Y454263D1*
X1407706Y447078D1*
Y442325D1*
X1405274Y435140D1*
X1400521Y430387D1*
X1395712Y427955D1*
X1388582D1*
X1383774Y430387D1*
X1378965Y435140D1*
X1363526Y478195D2*
Y427955D1*
X1348087Y461448D2*
Y437516D1*
X1345710Y430387D1*
X1340902Y427955D1*
X1333717D1*
X1328964Y430387D1*
X1321779Y437516D1*
Y461448D2*
Y427955D1*
X1280031Y454263D2*
X1282408Y459072D1*
X1289593Y461448D1*
X1296778D1*
X1303963Y459072D1*
X1306339Y454263D1*
X1303963Y449510D1*
X1299154Y447078D1*
X1287216Y444702D1*
X1282408Y442325D1*
X1280031Y437516D1*
Y435140D1*
X1282408Y430387D1*
X1289593Y427955D1*
X1296778D1*
X1303963Y430387D1*
X1306339Y435140D1*
X1257407Y478195D2*
Y437516D1*
X1255030Y430387D1*
X1250222Y427955D1*
X1245469D1*
X1264592Y461448D2*
X1247845D1*
X1230029Y447078D2*
X1201344D1*
Y451887D1*
X1203721Y456695D1*
X1206098Y459072D1*
X1210906Y461448D1*
X1218091D1*
X1222844Y459072D1*
X1227653Y454263D1*
X1230029Y447078D1*
Y442325D1*
X1227653Y435140D1*
X1222844Y430387D1*
X1218091Y427955D1*
X1210906D1*
X1206098Y430387D1*
X1201344Y435140D1*
X1185905Y461448D2*
Y427955D1*
Y447078D2*
X1183473Y454263D1*
X1178720Y459072D1*
X1173912Y461448D1*
X1166727D1*
X1148911Y432763D2*
X1151287Y430331D1*
X1148911Y427955D1*
X1146479Y430331D1*
X1148911Y432763D1*
X1131040Y461448D2*
X1121478Y427955D1*
X1111916Y461448D1*
X1102355Y427955D1*
X1092793Y461448D1*
X1070169Y478195D2*
Y437516D1*
X1067792Y430387D1*
X1062984Y427955D1*
X1058231D1*
X1077354Y461448D2*
X1060607D1*
X1023668Y478195D2*
X1028421D1*
X1033230Y475818D1*
X1035606Y468633D1*
Y427955D1*
X1042791Y461448D2*
X1026045D1*
X1464133Y980343D2*
D66*
X1504325Y965044D1*
X1464133Y949746D1*
X1473683Y908698D2*
X1469881Y910600D1*
X1466034Y914446D1*
X1464133Y918249D1*
Y925898D1*
X1466034Y929745D1*
X1469881Y933547D1*
X1473683Y935493D1*
X1479431Y937394D1*
X1489026D1*
X1494730Y935493D1*
X1498577Y933547D1*
X1502379Y929745D1*
X1504325Y925898D1*
Y918249D1*
X1502379Y914446D1*
X1498577Y910600D1*
X1494730Y908698D1*
X1473683Y867651D2*
X1469881Y869552D1*
X1466034Y873399D1*
X1464133Y877202D1*
Y884851D1*
X1466034Y888698D1*
X1469881Y892500D1*
X1473683Y894446D1*
X1479431Y896347D1*
X1489026D1*
X1494730Y894446D1*
X1498577Y892500D1*
X1502379Y888698D1*
X1504325Y884851D1*
Y877202D1*
X1502379Y873399D1*
X1498577Y869552D1*
X1494730Y867651D1*
X1573321Y951647D2*
X1569518Y953548D1*
X1565671Y957395D1*
X1563770Y961197D1*
Y968847D1*
X1565671Y972694D1*
X1569518Y976496D1*
X1573321Y978442D1*
X1579069Y980343D1*
X1588663D1*
X1594367Y978442D1*
X1598214Y976496D1*
X1602016Y972694D1*
X1603962Y968847D1*
Y961197D1*
X1602016Y957395D1*
X1598214Y953548D1*
X1594367Y951647D1*
X1588663D1*
Y961197D1*
X1563770Y912501D2*
X1603962D1*
X1563770Y939295D1*
X1603962D1*
X1563770Y900149D2*
X1603962D1*
Y886752D1*
X1602016Y881004D1*
X1598214Y877157D1*
X1594367Y875256D1*
X1588663Y873355D1*
X1579069D1*
X1573321Y875256D1*
X1569518Y877157D1*
X1565671Y881004D1*
X1563770Y886752D1*
Y900149D1*
X1669155Y953548D2*
X1665309Y957351D1*
X1663407Y963099D1*
Y970748D1*
X1665309Y976496D1*
X1669155Y980343D1*
X1672958D1*
X1676805Y978397D1*
X1678706Y976496D1*
X1680607Y972694D1*
X1684454Y961197D1*
X1686355Y957351D1*
X1688301Y955449D1*
X1692103Y953548D1*
X1697851D1*
X1701654Y957351D1*
X1703599Y963099D1*
Y970748D1*
X1701654Y976496D1*
X1697851Y980343D1*
X1663407Y941197D2*
X1703599Y931602D1*
X1663407Y922051D1*
X1703599Y912501D1*
X1663407Y902906D1*
Y890555D2*
X1703599D1*
Y877157D1*
X1701654Y871409D1*
X1697851Y867562D1*
X1694005Y865661D1*
X1688301Y863760D1*
X1678706D1*
X1672958Y865661D1*
X1669155Y867562D1*
X1665309Y871409D1*
X1663407Y877157D1*
Y890555D1*
Y851409D2*
X1703599D1*
X1663407Y827561D2*
X1665309Y831408D1*
X1669155Y835210D1*
X1672958Y837156D1*
X1678706Y839057D1*
X1688301D1*
X1694005Y837156D1*
X1697851Y835210D1*
X1701654Y831408D1*
X1703599Y827561D1*
Y819912D1*
X1701654Y816109D1*
X1697851Y812262D1*
X1694005Y810361D1*
X1688301Y808460D1*
X1678706D1*
X1672958Y810361D1*
X1669155Y812262D1*
X1665309Y816109D1*
X1663407Y819912D1*
Y827561D1*
X1768793Y953548D2*
X1764946Y957351D1*
X1763045Y963099D1*
Y970748D1*
X1764946Y976496D1*
X1768793Y980343D1*
X1772595D1*
X1776442Y978397D1*
X1778343Y976496D1*
X1780245Y972694D1*
X1784091Y961197D1*
X1785993Y957351D1*
X1787938Y955449D1*
X1791741Y953548D1*
X1797489D1*
X1801291Y957351D1*
X1803237Y963099D1*
Y970748D1*
X1801291Y976496D1*
X1797489Y980343D1*
X1763045Y941197D2*
X1803237Y931602D1*
X1763045Y922051D1*
X1803237Y912501D1*
X1763045Y902906D1*
X1772595Y861859D2*
X1768793Y863760D1*
X1764946Y867607D1*
X1763045Y871409D1*
Y879059D1*
X1764946Y882905D1*
X1768793Y886708D1*
X1772595Y888653D1*
X1778343Y890555D1*
X1787938D1*
X1793642Y888653D1*
X1797489Y886708D1*
X1801291Y882905D1*
X1803237Y879059D1*
Y871409D1*
X1801291Y867607D1*
X1797489Y863760D1*
X1793642Y861859D1*
X1763045Y849507D2*
X1803237D1*
Y826559D1*
X1763045Y814208D2*
X1803237D1*
X1763045Y787413D2*
X1789839Y814208D1*
X1780245Y804657D2*
X1803237Y787413D1*
X1862682Y953548D2*
X1902874D1*
X1862682Y980343D1*
X1902874D1*
X1881827Y941197D2*
Y923997D1*
X1879882Y918249D1*
X1877981Y916303D1*
X1874178Y914402D1*
X1870331D1*
X1866529Y916303D1*
X1864583Y918249D1*
X1862682Y923997D1*
Y941197D1*
X1902874D1*
X1881827Y927799D2*
X1902874Y914402D1*
X1868430Y875256D2*
X1864583Y879059D1*
X1862682Y884807D1*
Y892456D1*
X1864583Y898204D1*
X1868430Y902051D1*
X1872233D1*
X1876079Y900105D1*
X1877981Y898204D1*
X1879882Y894401D1*
X1883729Y882905D1*
X1885630Y879059D1*
X1887575Y877157D1*
X1891378Y875256D1*
X1897126D1*
X1900929Y879059D1*
X1902874Y884807D1*
Y892456D1*
X1900929Y898204D1*
X1897126Y902051D1*
X1862682Y849507D2*
X1902874D1*
X1862682Y862905D2*
Y836110D1*
X2495388Y752530D2*
D67*
X2518336D1*
X2522647Y753956D1*
X2524073Y755416D1*
X2525532Y758267D1*
Y761152D1*
X2524073Y764004D1*
X2522647Y765430D1*
X2518336Y766889D1*
X2515484D1*
X2502584Y741808D2*
X2501158D1*
X2498273Y740382D1*
X2496847Y738956D1*
X2495421Y736071D1*
Y730334D1*
X2496847Y727482D1*
X2498273Y726056D1*
X2501158Y724597D1*
X2504010D1*
X2506895Y726056D1*
X2511173Y728908D1*
X2525532Y743267D1*
Y723171D1*
M02*
