G04 DipTrace 4.3.0.3*
G04 BottomSilk.gbr*
%MOIN*%
G04 #@! TF.FileFunction,Legend,Bot*
G04 #@! TF.Part,Single*
%ADD10C,0.009843*%
%ADD59C,0.00772*%
%ADD60C,0.006176*%
%ADD61C,0.004632*%
%FSLAX26Y26*%
G04*
G70*
G90*
G75*
G01*
G04 BotSilk*
%LPD*%
X799631Y1042570D2*
D10*
X855881Y986320D1*
X799631Y457333D2*
X855881Y513584D1*
Y948820D2*
Y986320D1*
Y513584D2*
Y551084D1*
X2688239Y1050148D2*
X2975640D1*
X2688239Y459597D2*
X2975640D1*
X2201003Y476645D2*
D59*
X2232119D1*
Y426405D1*
Y452713D2*
X2212996D1*
X2185563Y476645D2*
Y426405D1*
X2168817D1*
X2161632Y428837D1*
X2156823Y433590D1*
X2154447Y438398D1*
X2152070Y445528D1*
Y457522D1*
X2154447Y464707D1*
X2156823Y469460D1*
X2161632Y474268D1*
X2168817Y476645D1*
X2185563D1*
X2103137Y469460D2*
X2107891Y474268D1*
X2115076Y476645D1*
X2124637D1*
X2131822Y474268D1*
X2136631Y469460D1*
Y464707D1*
X2134199Y459898D1*
X2131822Y457522D1*
X2127069Y455145D1*
X2112699Y450337D1*
X2107891Y447960D1*
X2105514Y445528D1*
X2103137Y440775D1*
Y433590D1*
X2107891Y428837D1*
X2115076Y426405D1*
X2124637D1*
X2131822Y428837D1*
X2136631Y433590D1*
X2087698Y476645D2*
Y426405D1*
X2054205Y476645D2*
X2087698Y443152D1*
X2075760Y455145D2*
X2054205Y426405D1*
X2038766Y445528D2*
X2010081D1*
Y450337D1*
X2012457Y455145D1*
X2014834Y457522D1*
X2019642Y459898D1*
X2026827D1*
X2031581Y457522D1*
X2036389Y452713D1*
X2038766Y445528D1*
Y440775D1*
X2036389Y433590D1*
X2031581Y428837D1*
X2026827Y426405D1*
X2019642D1*
X2014834Y428837D1*
X2010081Y433590D1*
X1992210Y459898D2*
X1977895Y426405D1*
X1982648Y416843D1*
X1987456Y412035D1*
X1992210Y409658D1*
X1994641D1*
X1963525Y459898D2*
X1977895Y426405D1*
X1899485Y459898D2*
Y426405D1*
Y445528D2*
X1897053Y452713D1*
X1892299Y457522D1*
X1887491Y459898D1*
X1880306D1*
X1864867Y445528D2*
X1836182D1*
Y450337D1*
X1838558Y455145D1*
X1840935Y457522D1*
X1845743Y459898D1*
X1852929D1*
X1857682Y457522D1*
X1862490Y452713D1*
X1864867Y445528D1*
Y440775D1*
X1862490Y433590D1*
X1857682Y428837D1*
X1852929Y426405D1*
X1845743D1*
X1840935Y428837D1*
X1836182Y433590D1*
X1820743Y459898D2*
X1806373Y426405D1*
X1792058Y459898D1*
X1774242Y431213D2*
X1776618Y428782D1*
X1774242Y426405D1*
X1771810Y428782D1*
X1774242Y431213D1*
X1707770Y467028D2*
X1702961Y469460D1*
X1695776Y476590D1*
Y426405D1*
X1677960Y431213D2*
X1680337Y428782D1*
X1677960Y426405D1*
X1675529Y428782D1*
X1677960Y431213D1*
X1657658Y464651D2*
Y467028D1*
X1655281Y471837D1*
X1652904Y474213D1*
X1648096Y476590D1*
X1638534D1*
X1633781Y474213D1*
X1631404Y471837D1*
X1628973Y467028D1*
Y462275D1*
X1631404Y457466D1*
X1636158Y450337D1*
X1660089Y426405D1*
X1626596D1*
X1438021Y454263D2*
X1442829Y459072D1*
X1447637Y461448D1*
X1454767D1*
X1459576Y459072D1*
X1464329Y454263D1*
X1466761Y447078D1*
Y442325D1*
X1464329Y435140D1*
X1459576Y430387D1*
X1454767Y427955D1*
X1447637D1*
X1442829Y430387D1*
X1438021Y435140D1*
X1422581Y478195D2*
Y427955D1*
X1407142Y461448D2*
Y437516D1*
X1404765Y430387D1*
X1399957Y427955D1*
X1392772D1*
X1388019Y430387D1*
X1380834Y437516D1*
Y461448D2*
Y427955D1*
X1339086Y454263D2*
X1341463Y459072D1*
X1348648Y461448D1*
X1355833D1*
X1363018Y459072D1*
X1365395Y454263D1*
X1363018Y449510D1*
X1358209Y447078D1*
X1346271Y444702D1*
X1341463Y442325D1*
X1339086Y437516D1*
Y435140D1*
X1341463Y430387D1*
X1348648Y427955D1*
X1355833D1*
X1363018Y430387D1*
X1365395Y435140D1*
X1316462Y478195D2*
Y437516D1*
X1314085Y430387D1*
X1309277Y427955D1*
X1304524D1*
X1323647Y461448D2*
X1306900D1*
X1289084Y447078D2*
X1260400D1*
Y451887D1*
X1262776Y456695D1*
X1265153Y459072D1*
X1269961Y461448D1*
X1277146D1*
X1281899Y459072D1*
X1286708Y454263D1*
X1289084Y447078D1*
Y442325D1*
X1286708Y435140D1*
X1281899Y430387D1*
X1277146Y427955D1*
X1269961D1*
X1265153Y430387D1*
X1260400Y435140D1*
X1244960Y461448D2*
Y427955D1*
Y447078D2*
X1242528Y454263D1*
X1237775Y459072D1*
X1232967Y461448D1*
X1225782D1*
X1207966Y432763D2*
X1210343Y430331D1*
X1207966Y427955D1*
X1205534Y430331D1*
X1207966Y432763D1*
X1190095Y461448D2*
X1180533Y427955D1*
X1170972Y461448D1*
X1161410Y427955D1*
X1151848Y461448D1*
X1129224Y478195D2*
Y437516D1*
X1126847Y430387D1*
X1122039Y427955D1*
X1117286D1*
X1136409Y461448D2*
X1119662D1*
X1082723Y478195D2*
X1087477D1*
X1092285Y475818D1*
X1094662Y468633D1*
Y427955D1*
X1101847Y461448D2*
X1085100D1*
X1523188Y980343D2*
D60*
X1563380Y965044D1*
X1523188Y949746D1*
X1532738Y908698D2*
X1528936Y910600D1*
X1525089Y914446D1*
X1523188Y918249D1*
Y925898D1*
X1525089Y929745D1*
X1528936Y933547D1*
X1532738Y935493D1*
X1538486Y937394D1*
X1548081D1*
X1553785Y935493D1*
X1557632Y933547D1*
X1561434Y929745D1*
X1563380Y925898D1*
Y918249D1*
X1561434Y914446D1*
X1557632Y910600D1*
X1553785Y908698D1*
X1532738Y867651D2*
X1528936Y869552D1*
X1525089Y873399D1*
X1523188Y877202D1*
Y884851D1*
X1525089Y888698D1*
X1528936Y892500D1*
X1532738Y894446D1*
X1538486Y896347D1*
X1548081D1*
X1553785Y894446D1*
X1557632Y892500D1*
X1561434Y888698D1*
X1563380Y884851D1*
Y877202D1*
X1561434Y873399D1*
X1557632Y869552D1*
X1553785Y867651D1*
X1632376Y951647D2*
X1628573Y953548D1*
X1624726Y957395D1*
X1622825Y961197D1*
Y968847D1*
X1624726Y972694D1*
X1628573Y976496D1*
X1632376Y978442D1*
X1638124Y980343D1*
X1647718D1*
X1653422Y978442D1*
X1657269Y976496D1*
X1661072Y972694D1*
X1663017Y968847D1*
Y961197D1*
X1661072Y957395D1*
X1657269Y953548D1*
X1653422Y951647D1*
X1647718D1*
Y961197D1*
X1622825Y912501D2*
X1663017D1*
X1622825Y939295D1*
X1663017D1*
X1622825Y900149D2*
X1663017D1*
Y886752D1*
X1661072Y881004D1*
X1657269Y877157D1*
X1653422Y875256D1*
X1647718Y873355D1*
X1638124D1*
X1632376Y875256D1*
X1628573Y877157D1*
X1624726Y881004D1*
X1622825Y886752D1*
Y900149D1*
X1728210Y953548D2*
X1724364Y957351D1*
X1722462Y963099D1*
Y970748D1*
X1724364Y976496D1*
X1728210Y980343D1*
X1732013D1*
X1735860Y978397D1*
X1737761Y976496D1*
X1739662Y972694D1*
X1743509Y961197D1*
X1745410Y957351D1*
X1747356Y955449D1*
X1751158Y953548D1*
X1756906D1*
X1760709Y957351D1*
X1762654Y963099D1*
Y970748D1*
X1760709Y976496D1*
X1756906Y980343D1*
X1722462Y941197D2*
X1762654Y931602D1*
X1722462Y922051D1*
X1762654Y912501D1*
X1722462Y902906D1*
Y890555D2*
X1762654D1*
Y877157D1*
X1760709Y871409D1*
X1756906Y867562D1*
X1753060Y865661D1*
X1747356Y863760D1*
X1737761D1*
X1732013Y865661D1*
X1728210Y867562D1*
X1724364Y871409D1*
X1722462Y877157D1*
Y890555D1*
Y851409D2*
X1762654D1*
X1722462Y827561D2*
X1724364Y831408D1*
X1728210Y835210D1*
X1732013Y837156D1*
X1737761Y839057D1*
X1747356D1*
X1753060Y837156D1*
X1756906Y835210D1*
X1760709Y831408D1*
X1762654Y827561D1*
Y819912D1*
X1760709Y816109D1*
X1756906Y812262D1*
X1753060Y810361D1*
X1747356Y808460D1*
X1737761D1*
X1732013Y810361D1*
X1728210Y812262D1*
X1724364Y816109D1*
X1722462Y819912D1*
Y827561D1*
X1827848Y953548D2*
X1824001Y957351D1*
X1822100Y963099D1*
Y970748D1*
X1824001Y976496D1*
X1827848Y980343D1*
X1831650D1*
X1835497Y978397D1*
X1837398Y976496D1*
X1839300Y972694D1*
X1843146Y961197D1*
X1845048Y957351D1*
X1846993Y955449D1*
X1850796Y953548D1*
X1856544D1*
X1860346Y957351D1*
X1862292Y963099D1*
Y970748D1*
X1860346Y976496D1*
X1856544Y980343D1*
X1822100Y941197D2*
X1862292Y931602D1*
X1822100Y922051D1*
X1862292Y912501D1*
X1822100Y902906D1*
X1831650Y861859D2*
X1827848Y863760D1*
X1824001Y867607D1*
X1822100Y871409D1*
Y879059D1*
X1824001Y882905D1*
X1827848Y886708D1*
X1831650Y888653D1*
X1837398Y890555D1*
X1846993D1*
X1852697Y888653D1*
X1856544Y886708D1*
X1860346Y882905D1*
X1862292Y879059D1*
Y871409D1*
X1860346Y867607D1*
X1856544Y863760D1*
X1852697Y861859D1*
X1822100Y849507D2*
X1862292D1*
Y826559D1*
X1822100Y814208D2*
X1862292D1*
X1822100Y787413D2*
X1848894Y814208D1*
X1839300Y804657D2*
X1862292Y787413D1*
X1921737Y953548D2*
X1961929D1*
X1921737Y980343D1*
X1961929D1*
X1940882Y941197D2*
Y923997D1*
X1938937Y918249D1*
X1937036Y916303D1*
X1933233Y914402D1*
X1929386D1*
X1925584Y916303D1*
X1923638Y918249D1*
X1921737Y923997D1*
Y941197D1*
X1961929D1*
X1940882Y927799D2*
X1961929Y914402D1*
X1927485Y875256D2*
X1923638Y879059D1*
X1921737Y884807D1*
Y892456D1*
X1923638Y898204D1*
X1927485Y902051D1*
X1931288D1*
X1935134Y900105D1*
X1937036Y898204D1*
X1938937Y894401D1*
X1942784Y882905D1*
X1944685Y879059D1*
X1946631Y877157D1*
X1950433Y875256D1*
X1956181D1*
X1959984Y879059D1*
X1961929Y884807D1*
Y892456D1*
X1959984Y898204D1*
X1956181Y902051D1*
X1921737Y849507D2*
X1961929D1*
X1921737Y862905D2*
Y836110D1*
X2541943Y752530D2*
D61*
X2564891D1*
X2569202Y753956D1*
X2570628Y755416D1*
X2572087Y758267D1*
Y761152D1*
X2570628Y764004D1*
X2569202Y765430D1*
X2564891Y766889D1*
X2562039D1*
X2549139Y741808D2*
X2547713D1*
X2544828Y740382D1*
X2543402Y738956D1*
X2541976Y736071D1*
Y730334D1*
X2543402Y727482D1*
X2544828Y726056D1*
X2547713Y724597D1*
X2550565D1*
X2553450Y726056D1*
X2557728Y728908D1*
X2572087Y743267D1*
Y723171D1*
M02*
