G04 DipTrace 4.3.0.3*
G04 BottomSilk.gbr*
%MOIN*%
G04 #@! TF.FileFunction,Legend,Bot*
G04 #@! TF.Part,Single*
%ADD10C,0.009843*%
%ADD59C,0.00772*%
%ADD60C,0.006176*%
%ADD61C,0.004632*%
%FSLAX26Y26*%
G04*
G70*
G90*
G75*
G01*
G04 BotSilk*
%LPD*%
X740576Y1042570D2*
D10*
X796825Y986320D1*
X740576Y457333D2*
X796825Y513584D1*
Y948820D2*
Y986320D1*
Y513584D2*
Y551084D1*
X2629184Y1050148D2*
X2916585D1*
X2629184Y459597D2*
X2916585D1*
X2141947Y476645D2*
D59*
X2173064D1*
Y426405D1*
Y452713D2*
X2153941D1*
X2126508Y476645D2*
Y426405D1*
X2109762D1*
X2102577Y428837D1*
X2097768Y433590D1*
X2095391Y438398D1*
X2093015Y445528D1*
Y457522D1*
X2095391Y464707D1*
X2097768Y469460D1*
X2102577Y474268D1*
X2109762Y476645D1*
X2126508D1*
X2044082Y469460D2*
X2048835Y474268D1*
X2056021Y476645D1*
X2065582D1*
X2072767Y474268D1*
X2077576Y469460D1*
Y464707D1*
X2075144Y459898D1*
X2072767Y457522D1*
X2068014Y455145D1*
X2053644Y450337D1*
X2048835Y447960D1*
X2046459Y445528D1*
X2044082Y440775D1*
Y433590D1*
X2048835Y428837D1*
X2056021Y426405D1*
X2065582D1*
X2072767Y428837D1*
X2077576Y433590D1*
X2028643Y476645D2*
Y426405D1*
X1995150Y476645D2*
X2028643Y443152D1*
X2016705Y455145D2*
X1995150Y426405D1*
X1979710Y445528D2*
X1951026D1*
Y450337D1*
X1953402Y455145D1*
X1955779Y457522D1*
X1960587Y459898D1*
X1967772D1*
X1972525Y457522D1*
X1977334Y452713D1*
X1979710Y445528D1*
Y440775D1*
X1977334Y433590D1*
X1972525Y428837D1*
X1967772Y426405D1*
X1960587D1*
X1955779Y428837D1*
X1951026Y433590D1*
X1933154Y459898D2*
X1918840Y426405D1*
X1923593Y416843D1*
X1928401Y412035D1*
X1933154Y409658D1*
X1935586D1*
X1904470Y459898D2*
X1918840Y426405D1*
X1840429Y459898D2*
Y426405D1*
Y445528D2*
X1837998Y452713D1*
X1833244Y457522D1*
X1828436Y459898D1*
X1821251D1*
X1805812Y445528D2*
X1777127D1*
Y450337D1*
X1779503Y455145D1*
X1781880Y457522D1*
X1786688Y459898D1*
X1793873D1*
X1798627Y457522D1*
X1803435Y452713D1*
X1805812Y445528D1*
Y440775D1*
X1803435Y433590D1*
X1798627Y428837D1*
X1793873Y426405D1*
X1786688D1*
X1781880Y428837D1*
X1777127Y433590D1*
X1761687Y459898D2*
X1747317Y426405D1*
X1733003Y459898D1*
X1715187Y431213D2*
X1717563Y428782D1*
X1715187Y426405D1*
X1712755Y428782D1*
X1715187Y431213D1*
X1648715Y467028D2*
X1643906Y469460D1*
X1636721Y476590D1*
Y426405D1*
X1618905Y431213D2*
X1621282Y428782D1*
X1618905Y426405D1*
X1616473Y428782D1*
X1618905Y431213D1*
X1598602Y464651D2*
Y467028D1*
X1596226Y471837D1*
X1593849Y474213D1*
X1589041Y476590D1*
X1579479D1*
X1574726Y474213D1*
X1572349Y471837D1*
X1569918Y467028D1*
Y462275D1*
X1572349Y457466D1*
X1577103Y450337D1*
X1601034Y426405D1*
X1567541D1*
X1378965Y454263D2*
X1383774Y459072D1*
X1388582Y461448D1*
X1395712D1*
X1400521Y459072D1*
X1405274Y454263D1*
X1407706Y447078D1*
Y442325D1*
X1405274Y435140D1*
X1400521Y430387D1*
X1395712Y427955D1*
X1388582D1*
X1383774Y430387D1*
X1378965Y435140D1*
X1363526Y478195D2*
Y427955D1*
X1348087Y461448D2*
Y437516D1*
X1345710Y430387D1*
X1340902Y427955D1*
X1333717D1*
X1328964Y430387D1*
X1321779Y437516D1*
Y461448D2*
Y427955D1*
X1280031Y454263D2*
X1282408Y459072D1*
X1289593Y461448D1*
X1296778D1*
X1303963Y459072D1*
X1306339Y454263D1*
X1303963Y449510D1*
X1299154Y447078D1*
X1287216Y444702D1*
X1282408Y442325D1*
X1280031Y437516D1*
Y435140D1*
X1282408Y430387D1*
X1289593Y427955D1*
X1296778D1*
X1303963Y430387D1*
X1306339Y435140D1*
X1257407Y478195D2*
Y437516D1*
X1255030Y430387D1*
X1250222Y427955D1*
X1245469D1*
X1264592Y461448D2*
X1247845D1*
X1230029Y447078D2*
X1201344D1*
Y451887D1*
X1203721Y456695D1*
X1206098Y459072D1*
X1210906Y461448D1*
X1218091D1*
X1222844Y459072D1*
X1227653Y454263D1*
X1230029Y447078D1*
Y442325D1*
X1227653Y435140D1*
X1222844Y430387D1*
X1218091Y427955D1*
X1210906D1*
X1206098Y430387D1*
X1201344Y435140D1*
X1185905Y461448D2*
Y427955D1*
Y447078D2*
X1183473Y454263D1*
X1178720Y459072D1*
X1173912Y461448D1*
X1166727D1*
X1148911Y432763D2*
X1151287Y430331D1*
X1148911Y427955D1*
X1146479Y430331D1*
X1148911Y432763D1*
X1131040Y461448D2*
X1121478Y427955D1*
X1111916Y461448D1*
X1102355Y427955D1*
X1092793Y461448D1*
X1070169Y478195D2*
Y437516D1*
X1067792Y430387D1*
X1062984Y427955D1*
X1058231D1*
X1077354Y461448D2*
X1060607D1*
X1023668Y478195D2*
X1028421D1*
X1033230Y475818D1*
X1035606Y468633D1*
Y427955D1*
X1042791Y461448D2*
X1026045D1*
X1464133Y980343D2*
D60*
X1504325Y965044D1*
X1464133Y949746D1*
X1473683Y908698D2*
X1469881Y910600D1*
X1466034Y914446D1*
X1464133Y918249D1*
Y925898D1*
X1466034Y929745D1*
X1469881Y933547D1*
X1473683Y935493D1*
X1479431Y937394D1*
X1489026D1*
X1494730Y935493D1*
X1498577Y933547D1*
X1502379Y929745D1*
X1504325Y925898D1*
Y918249D1*
X1502379Y914446D1*
X1498577Y910600D1*
X1494730Y908698D1*
X1473683Y867651D2*
X1469881Y869552D1*
X1466034Y873399D1*
X1464133Y877202D1*
Y884851D1*
X1466034Y888698D1*
X1469881Y892500D1*
X1473683Y894446D1*
X1479431Y896347D1*
X1489026D1*
X1494730Y894446D1*
X1498577Y892500D1*
X1502379Y888698D1*
X1504325Y884851D1*
Y877202D1*
X1502379Y873399D1*
X1498577Y869552D1*
X1494730Y867651D1*
X1573321Y951647D2*
X1569518Y953548D1*
X1565671Y957395D1*
X1563770Y961197D1*
Y968847D1*
X1565671Y972694D1*
X1569518Y976496D1*
X1573321Y978442D1*
X1579069Y980343D1*
X1588663D1*
X1594367Y978442D1*
X1598214Y976496D1*
X1602016Y972694D1*
X1603962Y968847D1*
Y961197D1*
X1602016Y957395D1*
X1598214Y953548D1*
X1594367Y951647D1*
X1588663D1*
Y961197D1*
X1563770Y912501D2*
X1603962D1*
X1563770Y939295D1*
X1603962D1*
X1563770Y900149D2*
X1603962D1*
Y886752D1*
X1602016Y881004D1*
X1598214Y877157D1*
X1594367Y875256D1*
X1588663Y873355D1*
X1579069D1*
X1573321Y875256D1*
X1569518Y877157D1*
X1565671Y881004D1*
X1563770Y886752D1*
Y900149D1*
X1669155Y953548D2*
X1665309Y957351D1*
X1663407Y963099D1*
Y970748D1*
X1665309Y976496D1*
X1669155Y980343D1*
X1672958D1*
X1676805Y978397D1*
X1678706Y976496D1*
X1680607Y972694D1*
X1684454Y961197D1*
X1686355Y957351D1*
X1688301Y955449D1*
X1692103Y953548D1*
X1697851D1*
X1701654Y957351D1*
X1703599Y963099D1*
Y970748D1*
X1701654Y976496D1*
X1697851Y980343D1*
X1663407Y941197D2*
X1703599Y931602D1*
X1663407Y922051D1*
X1703599Y912501D1*
X1663407Y902906D1*
Y890555D2*
X1703599D1*
Y877157D1*
X1701654Y871409D1*
X1697851Y867562D1*
X1694005Y865661D1*
X1688301Y863760D1*
X1678706D1*
X1672958Y865661D1*
X1669155Y867562D1*
X1665309Y871409D1*
X1663407Y877157D1*
Y890555D1*
Y851409D2*
X1703599D1*
X1663407Y827561D2*
X1665309Y831408D1*
X1669155Y835210D1*
X1672958Y837156D1*
X1678706Y839057D1*
X1688301D1*
X1694005Y837156D1*
X1697851Y835210D1*
X1701654Y831408D1*
X1703599Y827561D1*
Y819912D1*
X1701654Y816109D1*
X1697851Y812262D1*
X1694005Y810361D1*
X1688301Y808460D1*
X1678706D1*
X1672958Y810361D1*
X1669155Y812262D1*
X1665309Y816109D1*
X1663407Y819912D1*
Y827561D1*
X1768793Y953548D2*
X1764946Y957351D1*
X1763045Y963099D1*
Y970748D1*
X1764946Y976496D1*
X1768793Y980343D1*
X1772595D1*
X1776442Y978397D1*
X1778343Y976496D1*
X1780245Y972694D1*
X1784091Y961197D1*
X1785993Y957351D1*
X1787938Y955449D1*
X1791741Y953548D1*
X1797489D1*
X1801291Y957351D1*
X1803237Y963099D1*
Y970748D1*
X1801291Y976496D1*
X1797489Y980343D1*
X1763045Y941197D2*
X1803237Y931602D1*
X1763045Y922051D1*
X1803237Y912501D1*
X1763045Y902906D1*
X1772595Y861859D2*
X1768793Y863760D1*
X1764946Y867607D1*
X1763045Y871409D1*
Y879059D1*
X1764946Y882905D1*
X1768793Y886708D1*
X1772595Y888653D1*
X1778343Y890555D1*
X1787938D1*
X1793642Y888653D1*
X1797489Y886708D1*
X1801291Y882905D1*
X1803237Y879059D1*
Y871409D1*
X1801291Y867607D1*
X1797489Y863760D1*
X1793642Y861859D1*
X1763045Y849507D2*
X1803237D1*
Y826559D1*
X1763045Y814208D2*
X1803237D1*
X1763045Y787413D2*
X1789839Y814208D1*
X1780245Y804657D2*
X1803237Y787413D1*
X1862682Y953548D2*
X1902874D1*
X1862682Y980343D1*
X1902874D1*
X1881827Y941197D2*
Y923997D1*
X1879882Y918249D1*
X1877981Y916303D1*
X1874178Y914402D1*
X1870331D1*
X1866529Y916303D1*
X1864583Y918249D1*
X1862682Y923997D1*
Y941197D1*
X1902874D1*
X1881827Y927799D2*
X1902874Y914402D1*
X1868430Y875256D2*
X1864583Y879059D1*
X1862682Y884807D1*
Y892456D1*
X1864583Y898204D1*
X1868430Y902051D1*
X1872233D1*
X1876079Y900105D1*
X1877981Y898204D1*
X1879882Y894401D1*
X1883729Y882905D1*
X1885630Y879059D1*
X1887575Y877157D1*
X1891378Y875256D1*
X1897126D1*
X1900929Y879059D1*
X1902874Y884807D1*
Y892456D1*
X1900929Y898204D1*
X1897126Y902051D1*
X1862682Y849507D2*
X1902874D1*
X1862682Y862905D2*
Y836110D1*
X2482888Y752530D2*
D61*
X2505836D1*
X2510147Y753956D1*
X2511573Y755416D1*
X2513032Y758267D1*
Y761152D1*
X2511573Y764004D1*
X2510147Y765430D1*
X2505836Y766889D1*
X2502984D1*
X2490084Y741808D2*
X2488658D1*
X2485773Y740382D1*
X2484347Y738956D1*
X2482921Y736071D1*
Y730334D1*
X2484347Y727482D1*
X2485773Y726056D1*
X2488658Y724597D1*
X2491510D1*
X2494395Y726056D1*
X2498673Y728908D1*
X2513032Y743267D1*
Y723171D1*
M02*
