M48
INCH
T01C0.0079
T02C0.0315
T03C0.0394
T04C0.0433
%
T01
X+011377Y+005875
X+011377Y+006062
X+011377Y+006250
X+011690Y+006125
X+012190Y+006125
X+012690Y+006125
X+013752Y+006281
X+014502Y+005625
X+013752Y+004968
X+012690Y+004968
X+012190Y+004968
X+011690Y+004968
X+011377Y+005250
X+011377Y+005687
X+009784Y+006000
X+009377Y+006000
X+009096Y+006500
X+009784Y+006500
X+009784Y+007500
X+009096Y+007500
X+008409Y+007500
X+007627Y+007500
X+007627Y+008468
X+008409Y+008468
X+009096Y+008468
X+009877Y+008468
X+009877Y+009687
X+009096Y+009687
X+008409Y+009468
X+007627Y+009468
X+007627Y+010281
X+008409Y+010281
X+009627Y+010875
X+010659Y+009687
X+011440Y+009687
X+012315Y+009406
X+012409Y+008468
X+013784Y+009406
X+013502Y+010218
X+014627Y+010000
X+014752Y+009187
X+015190Y+008062
X+016440Y+007500
X+016619Y+007500
X+016784Y+007500
X+017221Y+007250
X+018096Y+007250
X+018722Y+007045
X+018252Y+006062
X+019721Y+006062
X+020520Y+005656
X+021065Y+005875
X+021502Y+005875
X+022315Y+005312
X+022315Y+004500
X+021315Y+004500
X+020315Y+004500
X+019315Y+004500
X+018315Y+004500
X+017315Y+004500
X+016315Y+004500
X+016315Y+005500
X+016143Y+006578
X+015252Y+006281
X+015315Y+004500
X+016659Y+008062
X+019721Y+007843
X+020940Y+007968
X+021110Y+007982
X+021284Y+007968
X+021409Y+007437
X+021690Y+007500
X+021877Y+007718
X+022315Y+008500
X+022315Y+009500
X+022315Y+010500
X+023971Y+009531
X+024315Y+010500
X+025315Y+010500
X+025252Y+009812
X+025659Y+009375
X+025252Y+008937
X+025659Y+008531
X+025096Y+007625
X+024846Y+007218
X+024252Y+007625
X+024346Y+007864
X+023752Y+008156
X+023534Y+008593
X+023221Y+007864
X+023034Y+007625
X+022909Y+007343
X+023315Y+007437
X+024034Y+006468
X+023721Y+005312
X+024315Y+004500
X+025315Y+004500
X+025315Y+005500
X+026315Y+005500
X+027315Y+005500
X+027315Y+004500
X+028315Y+004500
X+029315Y+004500
X+030315Y+005500
X+031315Y+005500
X+031909Y+004125
X+031315Y+008500
X+030315Y+008500
X+029315Y+008500
X+028315Y+008500
X+028315Y+007500
X+027315Y+008500
X+027315Y+010500
X+028315Y+010500
X+029315Y+010500
X+031909Y+010875
X+025315Y+006500
X+020159Y+009156
X+009627Y+004125
X+009002Y+005250
X+008409Y+005500
X+007627Y+005500
X+007627Y+004687
X+008409Y+004687
X+008159Y+006281
X+007627Y+006500
T02
X+010603Y+005766
X+010603Y+006766
X+010603Y+007766
X+010603Y+008766
T03
X+030465Y+006250
X+030465Y+009399
T04
X+015440Y+010375
X+016440Y+010375
X+017440Y+010375
X+018440Y+010375
X+019440Y+010375
X+020440Y+010375
T00
M30
