M48
INCH
T01C0.0079
T02C0.0315
T03C0.0394
T04C0.0433
T05C0.0551
%
T01
X+010787Y+005875
X+010787Y+006062
X+010787Y+006250
X+010787Y+005687
X+010787Y+005250
X+011381Y+004968
X+011381Y+006125
X+013193Y+006281
X+014068Y+006437
X+014662Y+006281
X+014917Y+006651
X+015474Y+007250
X+015849Y+007500
X+016029Y+007500
X+016193Y+007500
X+016068Y+008062
X+016662Y+007045
X+017506Y+007250
X+018131Y+007045
X+017662Y+006062
X+019131Y+006062
X+019929Y+005656
X+020474Y+005875
X+020912Y+005875
X+021724Y+005312
X+021724Y+004500
X+020724Y+004500
X+019724Y+004500
X+018724Y+004500
X+017724Y+004500
X+016724Y+004500
X+015724Y+004500
X+015724Y+005500
X+014568Y+005343
X+014006Y+005125
X+013162Y+004968
X+014724Y+004500
X+014599Y+008062
X+014162Y+009187
X+013631Y+009750
X+014037Y+010000
X+013506Y+010218
X+011474Y+009656
X+010631Y+008406
X+009287Y+008468
X+009193Y+007500
X+009193Y+006500
X+009193Y+006000
X+008787Y+006000
X+008506Y+006500
X+007818Y+006500
X+007037Y+006500
X+007037Y+007500
X+007818Y+007500
X+007818Y+008468
X+007037Y+008468
X+007037Y+009468
X+007818Y+009468
X+007818Y+010281
X+007037Y+010281
X+009287Y+009687
X+010006Y+010750
X+007818Y+005500
X+008412Y+005250
X+007818Y+004687
X+007037Y+004687
X+007037Y+005500
X+010006Y+004250
X+019131Y+007843
X+020349Y+007968
X+020520Y+007982
X+020693Y+007968
X+020818Y+007437
X+021099Y+007500
X+021287Y+007718
X+021724Y+008500
X+021724Y+009500
X+021724Y+010500
X+023381Y+009531
X+023724Y+010500
X+024724Y+010500
X+024662Y+009812
X+025068Y+009375
X+024662Y+008937
X+025068Y+008531
X+024506Y+007625
X+024256Y+007218
X+023662Y+007625
X+023756Y+007864
X+023162Y+008156
X+022943Y+008593
X+022631Y+007864
X+022443Y+007625
X+022318Y+007343
X+022724Y+007437
X+023443Y+006468
X+023131Y+005312
X+023724Y+004500
X+024724Y+004500
X+024724Y+005500
X+025724Y+005500
X+026724Y+005500
X+026724Y+004500
X+027724Y+004500
X+028724Y+004500
X+029724Y+005500
X+030724Y+005500
X+030724Y+008500
X+029724Y+008500
X+028724Y+008500
X+027724Y+008500
X+026724Y+008500
X+027724Y+007500
X+027724Y+010500
X+026724Y+010500
X+028724Y+010500
X+024724Y+006500
X+019568Y+009156
T02
X+010013Y+005668
X+010013Y+006668
X+010013Y+007668
X+010013Y+008668
T03
X+030000Y+006250
X+030000Y+009399
T04
X+014849Y+010375
X+015849Y+010375
X+016849Y+010375
X+017849Y+010375
X+018849Y+010375
X+019849Y+010375
T05
X+009224Y+004312
X+009224Y+010687
X+031131Y+010687
X+031131Y+004312
T00
M30
