G04 DipTrace 4.3.0.3*
G04 TopSilk.gbr*
%MOIN*%
G04 #@! TF.FileFunction,Legend,Top*
G04 #@! TF.Part,Single*
%ADD10C,0.009843*%
%ADD13C,0.004724*%
%ADD61C,0.004632*%
%FSLAX26Y26*%
G04*
G70*
G90*
G75*
G01*
G04 TopSilk*
%LPD*%
X855881Y950297D2*
D10*
Y1044046D1*
X799631D1*
X855881Y549608D2*
Y455857D1*
X799631D1*
X1494024Y1087454D2*
Y987451D1*
X2093969D1*
Y1087454D1*
X1494024D1*
X1007987Y943543D2*
D13*
Y509685D1*
X1112711D1*
Y943543D1*
X1007987D1*
X2780881Y1018382D2*
D10*
Y900272D1*
X2938361D1*
Y1018382D1*
X2780881D1*
X2565256Y809007D2*
Y690896D1*
X2722736D1*
Y809007D1*
X2565256D1*
X2996507D2*
Y690896D1*
X3153987D1*
Y809007D1*
X2996507D1*
X2780881Y599633D2*
Y481522D1*
X2938361D1*
Y599633D1*
X2780881D1*
X2223228Y796211D2*
D13*
Y816684D1*
X2202756D1*
Y533219D2*
X2223228D1*
Y553692D1*
X1939764D2*
Y533219D1*
X1960236D1*
Y816684D2*
X1939764D1*
Y796211D1*
G36*
X2220079Y852510D2*
X2219995Y851226D1*
X2219743Y849963D1*
X2219330Y848744D1*
X2218760Y847589D1*
X2218045Y846519D1*
X2217196Y845551D1*
X2216228Y844702D1*
X2215157Y843987D1*
X2214003Y843417D1*
X2212784Y843003D1*
X2211521Y842752D1*
X2210236Y842668D1*
X2208952Y842752D1*
X2207689Y843003D1*
X2206470Y843417D1*
X2205315Y843987D1*
X2204244Y844702D1*
X2203277Y845551D1*
X2202428Y846519D1*
X2201712Y847589D1*
X2201143Y848744D1*
X2200729Y849963D1*
X2200478Y851226D1*
X2200394Y852510D1*
D1*
X2200478Y853795D1*
X2200729Y855058D1*
X2201143Y856277D1*
X2201712Y857432D1*
X2202428Y858502D1*
X2203277Y859470D1*
X2204244Y860319D1*
X2205315Y861034D1*
X2206470Y861604D1*
X2207689Y862018D1*
X2208952Y862269D1*
X2210236Y862353D1*
X2211521Y862269D1*
X2212784Y862018D1*
X2214003Y861604D1*
X2215157Y861034D1*
X2216228Y860319D1*
X2217196Y859470D1*
X2218045Y858502D1*
X2218760Y857432D1*
X2219330Y856277D1*
X2219743Y855058D1*
X2219995Y853795D1*
X2220079Y852510D1*
D1*
G37*
G36*
X1131055Y871130D2*
X1130050Y871196D1*
X1129062Y871392D1*
X1128108Y871716D1*
X1127204Y872162D1*
X1126366Y872722D1*
X1125609Y873386D1*
X1124945Y874143D1*
X1124385Y874981D1*
X1123939Y875885D1*
X1123615Y876839D1*
X1123419Y877827D1*
X1123353Y878832D1*
X1123419Y879837D1*
X1123615Y880825D1*
X1123939Y881779D1*
X1124385Y882683D1*
X1124945Y883521D1*
X1125609Y884278D1*
X1126366Y884943D1*
X1127204Y885502D1*
X1128108Y885948D1*
X1129062Y886272D1*
X1130050Y886468D1*
X1131055Y886534D1*
X1131081D1*
X1132087Y886468D1*
X1133075Y886272D1*
X1134029Y885948D1*
X1134932Y885502D1*
X1135770Y884943D1*
X1136528Y884278D1*
X1137192Y883521D1*
X1137752Y882683D1*
X1138197Y881779D1*
X1138521Y880825D1*
X1138718Y879837D1*
X1138783Y878832D1*
X1138718Y877827D1*
X1138521Y876839D1*
X1138197Y875885D1*
X1137752Y874981D1*
X1137192Y874143D1*
X1136528Y873386D1*
X1135770Y872722D1*
X1134932Y872162D1*
X1134029Y871716D1*
X1133075Y871392D1*
X1132087Y871196D1*
X1131081Y871130D1*
X1131055D1*
G37*
X1220318Y879871D2*
D10*
Y620041D1*
X1330554Y879871D2*
Y620041D1*
X1220318D2*
X1330554D1*
X1220318Y879871D2*
X1330554D1*
X1250040Y533732D2*
D61*
X1247188Y532306D1*
X1244303Y529421D1*
X1242877Y526569D1*
Y520832D1*
X1244303Y517947D1*
X1247188Y515095D1*
X1250040Y513636D1*
X1254351Y512210D1*
X1261547D1*
X1265825Y513636D1*
X1268710Y515095D1*
X1271562Y517947D1*
X1273021Y520832D1*
Y526569D1*
X1271562Y529421D1*
X1268710Y532306D1*
X1265825Y533732D1*
X1248647Y542995D2*
X1247188Y545881D1*
X1242910Y550192D1*
X1273021D1*
X1250040Y964783D2*
X1247188Y963357D1*
X1244303Y960472D1*
X1242877Y957620D1*
Y951883D1*
X1244303Y948998D1*
X1247188Y946146D1*
X1250040Y944687D1*
X1254351Y943261D1*
X1261547D1*
X1265825Y944687D1*
X1268710Y946146D1*
X1271562Y948998D1*
X1273021Y951883D1*
Y957620D1*
X1271562Y960472D1*
X1268710Y963357D1*
X1265825Y964783D1*
X1250073Y975506D2*
X1248647D1*
X1245762Y976932D1*
X1244336Y978358D1*
X1242910Y981243D1*
Y986980D1*
X1244336Y989832D1*
X1245762Y991258D1*
X1248647Y992717D1*
X1251499D1*
X1254384Y991258D1*
X1258662Y988406D1*
X1273021Y974047D1*
Y994143D1*
X2133324Y918713D2*
X2131898Y921565D1*
X2129013Y924450D1*
X2126161Y925876D1*
X2120424D1*
X2117539Y924450D1*
X2114687Y921565D1*
X2113228Y918713D1*
X2111802Y914402D1*
Y907206D1*
X2113228Y902928D1*
X2114687Y900043D1*
X2117539Y897191D1*
X2120424Y895732D1*
X2126161D1*
X2129013Y897191D1*
X2131898Y900043D1*
X2133324Y902928D1*
X2145473Y925843D2*
X2161224D1*
X2152636Y914369D1*
X2156947D1*
X2159798Y912943D1*
X2161224Y911517D1*
X2162684Y907206D1*
Y904354D1*
X2161224Y900043D1*
X2158373Y897158D1*
X2154061Y895732D1*
X2149750D1*
X2145473Y897158D1*
X2144047Y898617D1*
X2142588Y901469D1*
X2428028Y888135D2*
X2425176Y886709D1*
X2422291Y883824D1*
X2420865Y880972D1*
Y875235D1*
X2422291Y872350D1*
X2425176Y869498D1*
X2428028Y868039D1*
X2432339Y866613D1*
X2439535D1*
X2443813Y868039D1*
X2446698Y869498D1*
X2449550Y872350D1*
X2451009Y875235D1*
Y880972D1*
X2449550Y883824D1*
X2446698Y886709D1*
X2443813Y888135D1*
X2451009Y911757D2*
X2420899D1*
X2440961Y897398D1*
Y918920D1*
X764481Y989978D2*
X741533D1*
X737222Y991404D1*
X735796Y992863D1*
X734337Y995715D1*
Y998600D1*
X735796Y1001452D1*
X737222Y1002878D1*
X741533Y1004337D1*
X744385D1*
X758711Y980715D2*
X760170Y977830D1*
X764448Y973518D1*
X734337D1*
X2120416Y1047475D2*
Y1024527D1*
X2118990Y1020216D1*
X2117531Y1018790D1*
X2114679Y1017331D1*
X2111794D1*
X2108942Y1018790D1*
X2107516Y1020216D1*
X2106057Y1024527D1*
Y1027379D1*
X2132564Y1047441D2*
X2148316D1*
X2139727Y1035967D1*
X2144038D1*
X2146890Y1034541D1*
X2148316Y1033116D1*
X2149775Y1028804D1*
Y1025953D1*
X2148316Y1021642D1*
X2145464Y1018756D1*
X2141153Y1017331D1*
X2136842D1*
X2132564Y1018756D1*
X2131138Y1020216D1*
X2129679Y1023068D1*
X1050522Y976069D2*
Y953121D1*
X1049096Y948810D1*
X1047637Y947384D1*
X1044785Y945925D1*
X1041900D1*
X1039048Y947384D1*
X1037622Y948810D1*
X1036163Y953121D1*
Y955973D1*
X1074144Y945925D2*
Y976036D1*
X1059785Y955973D1*
X1081307D1*
X1885092Y955895D2*
X1897992D1*
X1902303Y957354D1*
X1903762Y958780D1*
X1905188Y961632D1*
Y964517D1*
X1903762Y967369D1*
X1902303Y968828D1*
X1897992Y970254D1*
X1885092D1*
Y940110D1*
X1895140Y955895D2*
X1905188Y940110D1*
X1914452Y964484D2*
X1917337Y965943D1*
X1921648Y970221D1*
Y940110D1*
X2319899Y866612D2*
Y879512D1*
X2318440Y883823D1*
X2317014Y885282D1*
X2314162Y886708D1*
X2311277D1*
X2308425Y885282D1*
X2306966Y883823D1*
X2305540Y879512D1*
Y866612D1*
X2335684D1*
X2319899Y876660D2*
X2335684Y886708D1*
X2312736Y897431D2*
X2311310D1*
X2308425Y898857D1*
X2306999Y900283D1*
X2305573Y903168D1*
Y908905D1*
X2306999Y911757D1*
X2308425Y913183D1*
X2311310Y914642D1*
X2314162D1*
X2317047Y913183D1*
X2321325Y910331D1*
X2335684Y895972D1*
Y916068D1*
X2859470Y1058005D2*
X2856619Y1060890D1*
X2852307Y1062316D1*
X2846571D1*
X2842259Y1060890D1*
X2839374Y1058005D1*
Y1055153D1*
X2840834Y1052268D1*
X2842259Y1050842D1*
X2845111Y1049416D1*
X2853733Y1046531D1*
X2856619Y1045105D1*
X2858044Y1043646D1*
X2859470Y1040794D1*
Y1036483D1*
X2856619Y1033631D1*
X2852307Y1032172D1*
X2846571D1*
X2842259Y1033631D1*
X2839374Y1036483D1*
X2868734Y1056546D2*
X2871619Y1058005D1*
X2875930Y1062283D1*
Y1032172D1*
X2637396Y848629D2*
X2634544Y851514D1*
X2630233Y852940D1*
X2624496D1*
X2620185Y851514D1*
X2617300Y848629D1*
Y845777D1*
X2618759Y842892D1*
X2620185Y841466D1*
X2623037Y840040D1*
X2631659Y837155D1*
X2634544Y835729D1*
X2635970Y834270D1*
X2637396Y831418D1*
Y827107D1*
X2634544Y824256D1*
X2630233Y822796D1*
X2624496D1*
X2620185Y824256D1*
X2617300Y827107D1*
X2648118Y845744D2*
Y847170D1*
X2649544Y850055D1*
X2650970Y851481D1*
X2653855Y852907D1*
X2659592D1*
X2662444Y851481D1*
X2663870Y850055D1*
X2665329Y847170D1*
Y844318D1*
X2663870Y841433D1*
X2661018Y837155D1*
X2646659Y822796D1*
X2666755D1*
X3068646Y848629D2*
X3065795Y851514D1*
X3061484Y852940D1*
X3055747D1*
X3051436Y851514D1*
X3048550Y848629D1*
Y845777D1*
X3050010Y842892D1*
X3051436Y841466D1*
X3054287Y840040D1*
X3062909Y837155D1*
X3065795Y835729D1*
X3067220Y834270D1*
X3068646Y831418D1*
Y827107D1*
X3065795Y824256D1*
X3061484Y822796D1*
X3055747D1*
X3051436Y824256D1*
X3048550Y827107D1*
X3080795Y852907D2*
X3096547D1*
X3087958Y841433D1*
X3092269D1*
X3095121Y840007D1*
X3096547Y838581D1*
X3098006Y834270D1*
Y831418D1*
X3096547Y827107D1*
X3093695Y824222D1*
X3089384Y822796D1*
X3085073D1*
X3080795Y824222D1*
X3079369Y825681D1*
X3077910Y828533D1*
X2852307Y639255D2*
X2849456Y642140D1*
X2845145Y643566D1*
X2839408D1*
X2835097Y642140D1*
X2832211Y639255D1*
Y636403D1*
X2833671Y633518D1*
X2835097Y632092D1*
X2837948Y630666D1*
X2846571Y627781D1*
X2849456Y626355D1*
X2850882Y624896D1*
X2852307Y622044D1*
Y617733D1*
X2849456Y614882D1*
X2845145Y613422D1*
X2839408D1*
X2835097Y614882D1*
X2832211Y617733D1*
X2875930Y613422D2*
Y643533D1*
X2861571Y623470D1*
X2883093D1*
X2250718Y874217D2*
Y852695D1*
X2252144Y848384D1*
X2255029Y845532D1*
X2259340Y844073D1*
X2262192D1*
X2266503Y845532D1*
X2269388Y848384D1*
X2270814Y852695D1*
Y874217D1*
X2280078Y868447D2*
X2282963Y869906D1*
X2287274Y874184D1*
Y844073D1*
X1356957Y864842D2*
Y843320D1*
X1358383Y839009D1*
X1361268Y836157D1*
X1365579Y834698D1*
X1368431D1*
X1372742Y836157D1*
X1375627Y839009D1*
X1377053Y843320D1*
Y864842D1*
X1387776Y857646D2*
Y859072D1*
X1389202Y861957D1*
X1390628Y863383D1*
X1393513Y864809D1*
X1399250D1*
X1402102Y863383D1*
X1403528Y861957D1*
X1404987Y859072D1*
Y856220D1*
X1403528Y853335D1*
X1400676Y849057D1*
X1386317Y834698D1*
X1406413D1*
M02*
