G04 DipTrace 4.3.0.3*
G04 TopSilk.gbr*
%MOIN*%
G04 #@! TF.FileFunction,Legend,Top*
G04 #@! TF.Part,Single*
%ADD10C,0.009843*%
%ADD13C,0.004724*%
%ADD61C,0.004632*%
%FSLAX26Y26*%
G04*
G70*
G90*
G75*
G01*
G04 TopSilk*
%LPD*%
X796825Y950297D2*
D10*
Y1044046D1*
X740576D1*
X796825Y549608D2*
Y455857D1*
X740576D1*
X1434969Y1087454D2*
Y987451D1*
X2034913D1*
Y1087454D1*
X1434969D1*
X948932Y943543D2*
D13*
Y509685D1*
X1053656D1*
Y943543D1*
X948932D1*
X2721825Y1018382D2*
D10*
Y900272D1*
X2879306D1*
Y1018382D1*
X2721825D1*
X2506201Y809007D2*
Y690896D1*
X2663681D1*
Y809007D1*
X2506201D1*
X2937451D2*
Y690896D1*
X3094932D1*
Y809007D1*
X2937451D1*
X2721825Y599633D2*
Y481522D1*
X2879306D1*
Y599633D1*
X2721825D1*
X2164173Y796211D2*
D13*
Y816684D1*
X2143701D1*
Y533219D2*
X2164173D1*
Y553692D1*
X1880709D2*
Y533219D1*
X1901181D1*
Y816684D2*
X1880709D1*
Y796211D1*
G36*
X2161024Y852510D2*
X2160939Y851226D1*
X2160688Y849963D1*
X2160274Y848744D1*
X2159705Y847589D1*
X2158990Y846519D1*
X2158141Y845551D1*
X2157173Y844702D1*
X2156102Y843987D1*
X2154948Y843417D1*
X2153729Y843003D1*
X2152466Y842752D1*
X2151181Y842668D1*
X2149896Y842752D1*
X2148634Y843003D1*
X2147415Y843417D1*
X2146260Y843987D1*
X2145189Y844702D1*
X2144221Y845551D1*
X2143373Y846519D1*
X2142657Y847589D1*
X2142088Y848744D1*
X2141674Y849963D1*
X2141423Y851226D1*
X2141339Y852510D1*
D1*
X2141423Y853795D1*
X2141674Y855058D1*
X2142088Y856277D1*
X2142657Y857432D1*
X2143373Y858502D1*
X2144221Y859470D1*
X2145189Y860319D1*
X2146260Y861034D1*
X2147415Y861604D1*
X2148634Y862018D1*
X2149896Y862269D1*
X2151181Y862353D1*
X2152466Y862269D1*
X2153729Y862018D1*
X2154948Y861604D1*
X2156102Y861034D1*
X2157173Y860319D1*
X2158141Y859470D1*
X2158990Y858502D1*
X2159705Y857432D1*
X2160274Y856277D1*
X2160688Y855058D1*
X2160939Y853795D1*
X2161024Y852510D1*
D1*
G37*
G36*
X1072000Y871130D2*
X1070995Y871196D1*
X1070007Y871392D1*
X1069053Y871716D1*
X1068149Y872162D1*
X1067311Y872722D1*
X1066554Y873386D1*
X1065890Y874143D1*
X1065330Y874981D1*
X1064884Y875885D1*
X1064560Y876839D1*
X1064364Y877827D1*
X1064298Y878832D1*
X1064364Y879837D1*
X1064560Y880825D1*
X1064884Y881779D1*
X1065330Y882683D1*
X1065890Y883521D1*
X1066554Y884278D1*
X1067311Y884943D1*
X1068149Y885502D1*
X1069053Y885948D1*
X1070007Y886272D1*
X1070995Y886468D1*
X1072000Y886534D1*
X1072026D1*
X1073032Y886468D1*
X1074020Y886272D1*
X1074974Y885948D1*
X1075877Y885502D1*
X1076715Y884943D1*
X1077472Y884278D1*
X1078137Y883521D1*
X1078696Y882683D1*
X1079142Y881779D1*
X1079466Y880825D1*
X1079662Y879837D1*
X1079728Y878832D1*
X1079662Y877827D1*
X1079466Y876839D1*
X1079142Y875885D1*
X1078696Y874981D1*
X1078137Y874143D1*
X1077472Y873386D1*
X1076715Y872722D1*
X1075877Y872162D1*
X1074974Y871716D1*
X1074020Y871392D1*
X1073032Y871196D1*
X1072026Y871130D1*
X1072000D1*
G37*
X1161262Y879871D2*
D10*
Y620041D1*
X1271499Y879871D2*
Y620041D1*
X1161262D2*
X1271499D1*
X1161262Y879871D2*
X1271499D1*
X1190985Y530607D2*
D61*
X1188133Y529181D1*
X1185248Y526296D1*
X1183822Y523444D1*
Y517707D1*
X1185248Y514822D1*
X1188133Y511970D1*
X1190985Y510511D1*
X1195296Y509085D1*
X1202492D1*
X1206770Y510511D1*
X1209655Y511970D1*
X1212507Y514822D1*
X1213966Y517707D1*
Y523444D1*
X1212507Y526296D1*
X1209655Y529181D1*
X1206770Y530607D1*
X1189592Y539871D2*
X1188133Y542756D1*
X1183855Y547067D1*
X1213966D1*
X1190985Y964783D2*
X1188133Y963357D1*
X1185248Y960472D1*
X1183822Y957620D1*
Y951883D1*
X1185248Y948998D1*
X1188133Y946146D1*
X1190985Y944687D1*
X1195296Y943261D1*
X1202492D1*
X1206770Y944687D1*
X1209655Y946146D1*
X1212507Y948998D1*
X1213966Y951883D1*
Y957620D1*
X1212507Y960472D1*
X1209655Y963357D1*
X1206770Y964783D1*
X1191018Y975506D2*
X1189592D1*
X1186707Y976932D1*
X1185281Y978358D1*
X1183855Y981243D1*
Y986980D1*
X1185281Y989832D1*
X1186707Y991258D1*
X1189592Y992717D1*
X1192444D1*
X1195329Y991258D1*
X1199607Y988406D1*
X1213966Y974047D1*
Y994143D1*
X2074269Y918713D2*
X2072843Y921565D1*
X2069958Y924450D1*
X2067106Y925876D1*
X2061369D1*
X2058484Y924450D1*
X2055632Y921565D1*
X2054173Y918713D1*
X2052747Y914402D1*
Y907206D1*
X2054173Y902928D1*
X2055632Y900043D1*
X2058484Y897191D1*
X2061369Y895732D1*
X2067106D1*
X2069958Y897191D1*
X2072843Y900043D1*
X2074269Y902928D1*
X2086417Y925843D2*
X2102169D1*
X2093580Y914369D1*
X2097891D1*
X2100743Y912943D1*
X2102169Y911517D1*
X2103628Y907206D1*
Y904354D1*
X2102169Y900043D1*
X2099317Y897158D1*
X2095006Y895732D1*
X2090695D1*
X2086417Y897158D1*
X2084992Y898617D1*
X2083532Y901469D1*
X2368973Y888135D2*
X2366121Y886709D1*
X2363236Y883824D1*
X2361810Y880972D1*
Y875235D1*
X2363236Y872350D1*
X2366121Y869498D1*
X2368973Y868039D1*
X2373284Y866613D1*
X2380480D1*
X2384758Y868039D1*
X2387643Y869498D1*
X2390495Y872350D1*
X2391954Y875235D1*
Y880972D1*
X2390495Y883824D1*
X2387643Y886709D1*
X2384758Y888135D1*
X2391954Y911757D2*
X2361843D1*
X2381906Y897398D1*
Y918920D1*
X737094Y988502D2*
X714146D1*
X709835Y989928D1*
X708409Y991387D1*
X706950Y994239D1*
Y997124D1*
X708409Y999976D1*
X709835Y1001402D1*
X714146Y1002861D1*
X716998D1*
X731324Y979238D2*
X732783Y976353D1*
X737061Y972042D1*
X706950D1*
X2061361Y1047475D2*
Y1024527D1*
X2059935Y1020216D1*
X2058476Y1018790D1*
X2055624Y1017331D1*
X2052739D1*
X2049887Y1018790D1*
X2048461Y1020216D1*
X2047002Y1024527D1*
Y1027379D1*
X2073509Y1047441D2*
X2089261D1*
X2080672Y1035967D1*
X2084983D1*
X2087835Y1034541D1*
X2089261Y1033116D1*
X2090720Y1028804D1*
Y1025953D1*
X2089261Y1021642D1*
X2086409Y1018756D1*
X2082098Y1017331D1*
X2077787D1*
X2073509Y1018756D1*
X2072083Y1020216D1*
X2070624Y1023068D1*
X991467Y976069D2*
Y953121D1*
X990041Y948810D1*
X988581Y947384D1*
X985730Y945925D1*
X982845D1*
X979993Y947384D1*
X978567Y948810D1*
X977108Y953121D1*
Y955973D1*
X1015089Y945925D2*
Y976036D1*
X1000730Y955973D1*
X1022252D1*
X1826037Y955895D2*
X1838937D1*
X1843248Y957354D1*
X1844707Y958780D1*
X1846133Y961632D1*
Y964517D1*
X1844707Y967369D1*
X1843248Y968828D1*
X1838937Y970254D1*
X1826037D1*
Y940110D1*
X1836085Y955895D2*
X1846133Y940110D1*
X1855397Y964484D2*
X1858282Y965943D1*
X1862593Y970221D1*
Y940110D1*
X2260844Y866612D2*
Y879512D1*
X2259385Y883823D1*
X2257959Y885282D1*
X2255107Y886708D1*
X2252222D1*
X2249370Y885282D1*
X2247911Y883823D1*
X2246485Y879512D1*
Y866612D1*
X2276629D1*
X2260844Y876660D2*
X2276629Y886708D1*
X2253681Y897431D2*
X2252255D1*
X2249370Y898857D1*
X2247944Y900283D1*
X2246518Y903168D1*
Y908905D1*
X2247944Y911757D1*
X2249370Y913183D1*
X2252255Y914642D1*
X2255107D1*
X2257992Y913183D1*
X2262270Y910331D1*
X2276629Y895972D1*
Y916068D1*
X2800415Y1058005D2*
X2797563Y1060890D1*
X2793252Y1062316D1*
X2787515D1*
X2783204Y1060890D1*
X2780319Y1058005D1*
Y1055153D1*
X2781778Y1052268D1*
X2783204Y1050842D1*
X2786056Y1049416D1*
X2794678Y1046531D1*
X2797563Y1045105D1*
X2798989Y1043646D1*
X2800415Y1040794D1*
Y1036483D1*
X2797563Y1033631D1*
X2793252Y1032172D1*
X2787515D1*
X2783204Y1033631D1*
X2780319Y1036483D1*
X2809679Y1056546D2*
X2812564Y1058005D1*
X2816875Y1062283D1*
Y1032172D1*
X2578341Y848629D2*
X2575489Y851514D1*
X2571178Y852940D1*
X2565441D1*
X2561130Y851514D1*
X2558245Y848629D1*
Y845777D1*
X2559704Y842892D1*
X2561130Y841466D1*
X2563982Y840040D1*
X2572604Y837155D1*
X2575489Y835729D1*
X2576915Y834270D1*
X2578341Y831418D1*
Y827107D1*
X2575489Y824256D1*
X2571178Y822796D1*
X2565441D1*
X2561130Y824256D1*
X2558245Y827107D1*
X2589063Y845744D2*
Y847170D1*
X2590489Y850055D1*
X2591915Y851481D1*
X2594800Y852907D1*
X2600537D1*
X2603389Y851481D1*
X2604815Y850055D1*
X2606274Y847170D1*
Y844318D1*
X2604815Y841433D1*
X2601963Y837155D1*
X2587604Y822796D1*
X2607700D1*
X3009591Y848629D2*
X3006739Y851514D1*
X3002428Y852940D1*
X2996691D1*
X2992380Y851514D1*
X2989495Y848629D1*
Y845777D1*
X2990954Y842892D1*
X2992380Y841466D1*
X2995232Y840040D1*
X3003854Y837155D1*
X3006739Y835729D1*
X3008165Y834270D1*
X3009591Y831418D1*
Y827107D1*
X3006739Y824256D1*
X3002428Y822796D1*
X2996691D1*
X2992380Y824256D1*
X2989495Y827107D1*
X3021740Y852907D2*
X3037492D1*
X3028903Y841433D1*
X3033214D1*
X3036066Y840007D1*
X3037492Y838581D1*
X3038951Y834270D1*
Y831418D1*
X3037492Y827107D1*
X3034640Y824222D1*
X3030329Y822796D1*
X3026018D1*
X3021740Y824222D1*
X3020314Y825681D1*
X3018855Y828533D1*
X2793252Y639255D2*
X2790400Y642140D1*
X2786089Y643566D1*
X2780352D1*
X2776041Y642140D1*
X2773156Y639255D1*
Y636403D1*
X2774615Y633518D1*
X2776041Y632092D1*
X2778893Y630666D1*
X2787515Y627781D1*
X2790400Y626355D1*
X2791826Y624896D1*
X2793252Y622044D1*
Y617733D1*
X2790400Y614882D1*
X2786089Y613422D1*
X2780352D1*
X2776041Y614882D1*
X2773156Y617733D1*
X2816875Y613422D2*
Y643533D1*
X2802516Y623470D1*
X2824038D1*
X2191663Y874217D2*
Y852695D1*
X2193089Y848384D1*
X2195974Y845532D1*
X2200285Y844073D1*
X2203137D1*
X2207448Y845532D1*
X2210333Y848384D1*
X2211759Y852695D1*
Y874217D1*
X2221023Y868447D2*
X2223908Y869906D1*
X2228219Y874184D1*
Y844073D1*
X1297902Y864842D2*
Y843320D1*
X1299328Y839009D1*
X1302213Y836157D1*
X1306524Y834698D1*
X1309376D1*
X1313687Y836157D1*
X1316572Y839009D1*
X1317998Y843320D1*
Y864842D1*
X1328721Y857646D2*
Y859072D1*
X1330147Y861957D1*
X1331573Y863383D1*
X1334458Y864809D1*
X1340195D1*
X1343047Y863383D1*
X1344473Y861957D1*
X1345932Y859072D1*
Y856220D1*
X1344473Y853335D1*
X1341621Y849057D1*
X1327262Y834698D1*
X1347358D1*
M02*
